<?xml version="1.0" encoding="UTF-8"?><svg xmlns="http://www.w3.org/2000/svg" viewBox="0 0 34.86 34.86"><defs><style>.d{fill:#fff;}.e{fill:#004054;}</style></defs><g id="a"/><g id="b"><g id="c"><rect class="d" width="34.86" height="34.86"/><g><rect class="e" x="2.62" y="2.88" width="1.02" height="2.04"/><rect class="e" x="2.62" y="4.93" width="1.02" height="2.04"/><rect class="e" x="2.62" y="6.97" width="1.02" height="3.06"/><rect class="e" x="2.62" y="11.06" width="1.02" height="1.02"/><rect class="e" x="2.62" y="14.12" width="1.02" height="2.04"/><rect class="e" x="2.62" y="17.19" width="1.02" height="1.02"/><rect class="e" x="2.62" y="19.23" width="1.02" height="5.11"/><rect class="e" x="2.62" y="25.36" width="1.02" height="7.15"/><rect class="e" x="3.64" y="2.88" width="1.02" height="1.02"/><rect class="e" x="3.64" y="9.01" width="1.02" height="1.02"/><rect class="e" x="3.64" y="13.1" width="1.02" height="1.02"/><rect class="e" x="3.64" y="16.16" width="1.02" height="2.04"/><rect class="e" x="3.64" y="20.25" width="1.02" height="1.02"/><rect class="e" x="3.64" y="25.36" width="1.02" height="1.02"/><rect class="e" x="3.64" y="31.49" width="1.02" height="1.02"/><rect class="e" x="4.66" y="2.88" width="1.02" height="1.02"/><rect class="e" x="4.66" y="4.93" width="1.02" height="2.04"/><rect class="e" x="4.66" y="6.97" width="1.02" height="1.02"/><rect class="e" x="4.66" y="9.01" width="1.02" height="1.02"/><rect class="e" x="4.66" y="11.06" width="1.02" height="1.02"/><rect class="e" x="4.66" y="13.1" width="1.02" height="3.06"/><rect class="e" x="4.66" y="18.21" width="1.02" height="4.09"/><rect class="e" x="4.66" y="25.36" width="1.02" height="1.02"/><rect class="e" x="4.66" y="27.4" width="1.02" height="3.06"/><rect class="e" x="4.66" y="31.49" width="1.02" height="1.02"/><rect class="e" x="5.68" y="2.88" width="1.02" height="1.02"/><rect class="e" x="5.68" y="4.93" width="1.02" height="2.04"/><rect class="e" x="5.68" y="6.97" width="1.02" height="1.02"/><rect class="e" x="5.68" y="9.01" width="1.02" height="1.02"/><rect class="e" x="5.68" y="11.06" width="1.02" height="1.02"/><rect class="e" x="5.68" y="13.1" width="1.02" height="4.09"/><rect class="e" x="5.68" y="18.21" width="1.02" height="1.02"/><rect class="e" x="5.68" y="20.25" width="1.02" height="1.02"/><rect class="e" x="5.68" y="22.29" width="1.02" height="1.02"/><rect class="e" x="5.68" y="25.36" width="1.02" height="1.02"/><rect class="e" x="5.68" y="27.4" width="1.02" height="3.06"/><rect class="e" x="5.68" y="31.49" width="1.02" height="1.02"/><rect class="e" x="6.7" y="2.88" width="1.02" height="1.02"/><rect class="e" x="6.7" y="4.93" width="1.02" height="2.04"/><rect class="e" x="6.7" y="6.97" width="1.02" height="1.02"/><rect class="e" x="6.7" y="9.01" width="1.02" height="1.02"/><rect class="e" x="6.7" y="11.06" width="1.02" height="1.02"/><rect class="e" x="6.7" y="15.14" width="1.02" height="3.06"/><rect class="e" x="6.7" y="19.23" width="1.02" height="3.06"/><rect class="e" x="6.7" y="23.31" width="1.02" height="1.02"/><rect class="e" x="6.7" y="25.36" width="1.02" height="1.02"/><rect class="e" x="6.7" y="27.4" width="1.02" height="3.06"/><rect class="e" x="6.7" y="31.49" width="1.02" height="1.02"/><rect class="e" x="7.72" y="2.88" width="1.02" height="1.02"/><rect class="e" x="7.72" y="9.01" width="1.02" height="1.02"/><rect class="e" x="7.72" y="11.06" width="1.02" height="3.06"/><rect class="e" x="7.72" y="20.25" width="1.02" height="2.04"/><rect class="e" x="7.72" y="25.36" width="1.02" height="1.02"/><rect class="e" x="7.72" y="31.49" width="1.02" height="1.02"/><rect class="e" x="8.75" y="2.88" width="1.02" height="2.04"/><rect class="e" x="8.75" y="4.93" width="1.02" height="2.04"/><rect class="e" x="8.75" y="6.97" width="1.02" height="3.06"/><rect class="e" x="8.75" y="11.06" width="1.02" height="1.02"/><rect class="e" x="8.75" y="13.1" width="1.02" height="1.02"/><rect class="e" x="8.75" y="15.14" width="1.02" height="1.02"/><rect class="e" x="8.75" y="17.19" width="1.02" height="1.02"/><rect class="e" x="8.75" y="19.23" width="1.02" height="1.02"/><rect class="e" x="8.75" y="21.27" width="1.02" height="1.02"/><rect class="e" x="8.75" y="23.31" width="1.02" height="1.02"/><rect class="e" x="8.75" y="25.36" width="1.02" height="7.15"/><rect class="e" x="9.77" y="12.08" width="1.02" height="1.02"/><rect class="e" x="9.77" y="16.16" width="1.02" height="8.17"/><rect class="e" x="10.79" y="4.93" width="1.02" height="2.04"/><rect class="e" x="10.79" y="6.97" width="1.02" height="4.09"/><rect class="e" x="10.79" y="13.1" width="1.02" height="1.02"/><rect class="e" x="10.79" y="15.14" width="1.02" height="2.04"/><rect class="e" x="10.79" y="20.25" width="1.02" height="2.04"/><rect class="e" x="10.79" y="23.31" width="1.02" height="2.04"/><rect class="e" x="10.79" y="26.38" width="1.02" height="4.09"/><rect class="e" x="10.79" y="31.49" width="1.02" height="1.02"/><rect class="e" x="11.81" y="2.88" width="1.02" height="1.02"/><rect class="e" x="11.81" y="6.97" width="1.02" height="1.02"/><rect class="e" x="11.81" y="10.03" width="1.02" height="5.11"/><rect class="e" x="11.81" y="16.16" width="1.02" height="1.02"/><rect class="e" x="11.81" y="24.34" width="1.02" height="3.06"/><rect class="e" x="12.83" y="2.88" width="1.02" height="2.04"/><rect class="e" x="12.83" y="6.97" width="1.02" height="1.02"/><rect class="e" x="12.83" y="9.01" width="1.02" height="9.19"/><rect class="e" x="12.83" y="20.25" width="1.02" height="1.02"/><rect class="e" x="12.83" y="24.34" width="1.02" height="2.04"/><rect class="e" x="12.83" y="29.44" width="1.02" height="2.04"/><rect class="e" x="13.85" y="2.88" width="1.02" height="1.02"/><rect class="e" x="13.85" y="4.93" width="1.02" height="1.02"/><rect class="e" x="13.85" y="10.03" width="1.02" height="1.02"/><rect class="e" x="13.85" y="13.1" width="1.02" height="1.02"/><rect class="e" x="13.85" y="19.23" width="1.02" height="3.06"/><rect class="e" x="13.85" y="24.34" width="1.02" height="1.02"/><rect class="e" x="13.85" y="28.42" width="1.02" height="3.06"/><rect class="e" x="14.88" y="2.88" width="1.02" height="2.04"/><rect class="e" x="14.88" y="6.97" width="1.02" height="3.06"/><rect class="e" x="14.88" y="11.06" width="1.02" height="1.02"/><rect class="e" x="14.88" y="15.14" width="1.02" height="1.02"/><rect class="e" x="14.88" y="18.21" width="1.02" height="1.02"/><rect class="e" x="14.88" y="21.27" width="1.02" height="2.04"/><rect class="e" x="14.88" y="25.36" width="1.02" height="2.04"/><rect class="e" x="14.88" y="28.42" width="1.02" height="1.02"/><rect class="e" x="15.9" y="3.9" width="1.02" height="1.02"/><rect class="e" x="15.9" y="5.95" width="1.02" height="1.02"/><rect class="e" x="15.9" y="11.06" width="1.02" height="3.06"/><rect class="e" x="15.9" y="16.16" width="1.02" height="3.06"/><rect class="e" x="15.9" y="24.34" width="1.02" height="3.06"/><rect class="e" x="15.9" y="31.49" width="1.02" height="1.02"/><rect class="e" x="16.92" y="2.88" width="1.02" height="1.02"/><rect class="e" x="16.92" y="5.95" width="1.02" height="1.02"/><rect class="e" x="16.92" y="7.99" width="1.02" height="2.04"/><rect class="e" x="16.92" y="13.1" width="1.02" height="2.04"/><rect class="e" x="16.92" y="17.19" width="1.02" height="1.02"/><rect class="e" x="16.92" y="19.23" width="1.02" height="1.02"/><rect class="e" x="16.92" y="22.29" width="1.02" height="1.02"/><rect class="e" x="16.92" y="24.34" width="1.02" height="2.04"/><rect class="e" x="16.92" y="27.4" width="1.02" height="1.02"/><rect class="e" x="17.94" y="3.9" width="1.02" height="1.02"/><rect class="e" x="17.94" y="4.93" width="1.02" height="2.04"/><rect class="e" x="17.94" y="7.99" width="1.02" height="1.02"/><rect class="e" x="17.94" y="13.1" width="1.02" height="1.02"/><rect class="e" x="17.94" y="15.14" width="1.02" height="3.06"/><rect class="e" x="17.94" y="21.27" width="1.02" height="1.02"/><rect class="e" x="17.94" y="23.31" width="1.02" height="1.02"/><rect class="e" x="17.94" y="25.36" width="1.02" height="3.06"/><rect class="e" x="17.94" y="29.44" width="1.02" height="3.06"/><rect class="e" x="18.96" y="2.88" width="1.02" height="2.04"/><rect class="e" x="18.96" y="6.97" width="1.02" height="4.09"/><rect class="e" x="18.96" y="12.08" width="1.02" height="1.02"/><rect class="e" x="18.96" y="16.16" width="1.02" height="3.06"/><rect class="e" x="18.96" y="21.27" width="1.02" height="1.02"/><rect class="e" x="18.96" y="23.31" width="1.02" height="4.09"/><rect class="e" x="18.96" y="28.42" width="1.02" height="3.06"/><rect class="e" x="19.98" y="3.9" width="1.02" height="1.02"/><rect class="e" x="19.98" y="5.95" width="1.02" height="1.02"/><rect class="e" x="19.98" y="6.97" width="1.02" height="2.04"/><rect class="e" x="19.98" y="11.06" width="1.02" height="2.04"/><rect class="e" x="19.98" y="15.14" width="1.02" height="2.04"/><rect class="e" x="19.98" y="19.23" width="1.02" height="2.04"/><rect class="e" x="19.98" y="23.31" width="1.02" height="1.02"/><rect class="e" x="19.98" y="27.4" width="1.02" height="1.02"/><rect class="e" x="19.98" y="31.49" width="1.02" height="1.02"/><rect class="e" x="21.01" y="2.88" width="1.02" height="2.04"/><rect class="e" x="21.01" y="6.97" width="1.02" height="1.02"/><rect class="e" x="21.01" y="9.01" width="1.02" height="1.02"/><rect class="e" x="21.01" y="12.08" width="1.02" height="1.02"/><rect class="e" x="21.01" y="16.16" width="1.02" height="1.02"/><rect class="e" x="21.01" y="20.25" width="1.02" height="2.04"/><rect class="e" x="21.01" y="26.38" width="1.02" height="1.02"/><rect class="e" x="21.01" y="30.47" width="1.02" height="1.02"/><rect class="e" x="22.03" y="4.93" width="1.02" height="2.04"/><rect class="e" x="22.03" y="6.97" width="1.02" height="1.02"/><rect class="e" x="22.03" y="10.03" width="1.02" height="1.02"/><rect class="e" x="22.03" y="12.08" width="1.02" height="1.02"/><rect class="e" x="22.03" y="14.12" width="1.02" height="1.02"/><rect class="e" x="22.03" y="16.16" width="1.02" height="1.02"/><rect class="e" x="22.03" y="18.21" width="1.02" height="3.06"/><rect class="e" x="22.03" y="22.29" width="1.02" height="2.04"/><rect class="e" x="22.03" y="25.36" width="1.02" height="1.02"/><rect class="e" x="22.03" y="28.42" width="1.02" height="1.02"/><rect class="e" x="22.03" y="31.49" width="1.02" height="1.02"/><rect class="e" x="23.05" y="2.88" width="1.02" height="2.04"/><rect class="e" x="23.05" y="4.93" width="1.02" height="1.02"/><rect class="e" x="23.05" y="7.99" width="1.02" height="3.06"/><rect class="e" x="23.05" y="12.08" width="1.02" height="1.02"/><rect class="e" x="23.05" y="15.14" width="1.02" height="4.09"/><rect class="e" x="23.05" y="20.25" width="1.02" height="1.02"/><rect class="e" x="23.05" y="22.29" width="1.02" height="7.15"/><rect class="e" x="23.05" y="30.47" width="1.02" height="1.02"/><rect class="e" x="24.07" y="12.08" width="1.02" height="1.02"/><rect class="e" x="24.07" y="14.12" width="1.02" height="1.02"/><rect class="e" x="24.07" y="18.21" width="1.02" height="1.02"/><rect class="e" x="24.07" y="21.27" width="1.02" height="3.06"/><rect class="e" x="24.07" y="27.4" width="1.02" height="1.02"/><rect class="e" x="24.07" y="30.47" width="1.02" height="2.04"/><rect class="e" x="25.09" y="2.88" width="1.02" height="2.04"/><rect class="e" x="25.09" y="4.93" width="1.02" height="2.04"/><rect class="e" x="25.09" y="6.97" width="1.02" height="3.06"/><rect class="e" x="25.09" y="11.06" width="1.02" height="2.04"/><rect class="e" x="25.09" y="16.16" width="1.02" height="1.02"/><rect class="e" x="25.09" y="18.21" width="1.02" height="1.02"/><rect class="e" x="25.09" y="20.25" width="1.02" height="1.02"/><rect class="e" x="25.09" y="22.29" width="1.02" height="2.04"/><rect class="e" x="25.09" y="25.36" width="1.02" height="1.02"/><rect class="e" x="25.09" y="27.4" width="1.02" height="1.02"/><rect class="e" x="25.09" y="29.44" width="1.02" height="1.02"/><rect class="e" x="26.11" y="2.88" width="1.02" height="1.02"/><rect class="e" x="26.11" y="9.01" width="1.02" height="1.02"/><rect class="e" x="26.11" y="11.06" width="1.02" height="2.04"/><rect class="e" x="26.11" y="14.12" width="1.02" height="1.02"/><rect class="e" x="26.11" y="17.19" width="1.02" height="7.15"/><rect class="e" x="26.11" y="27.4" width="1.02" height="5.11"/><rect class="e" x="27.14" y="2.88" width="1.02" height="1.02"/><rect class="e" x="27.14" y="4.93" width="1.02" height="2.04"/><rect class="e" x="27.14" y="6.97" width="1.02" height="1.02"/><rect class="e" x="27.14" y="9.01" width="1.02" height="1.02"/><rect class="e" x="27.14" y="11.06" width="1.02" height="2.04"/><rect class="e" x="27.14" y="16.16" width="1.02" height="1.02"/><rect class="e" x="27.14" y="18.21" width="1.02" height="1.02"/><rect class="e" x="27.14" y="20.25" width="1.02" height="1.02"/><rect class="e" x="27.14" y="22.29" width="1.02" height="6.13"/><rect class="e" x="27.14" y="29.44" width="1.02" height="1.02"/><rect class="e" x="27.14" y="31.49" width="1.02" height="1.02"/><rect class="e" x="28.16" y="2.88" width="1.02" height="1.02"/><rect class="e" x="28.16" y="4.93" width="1.02" height="2.04"/><rect class="e" x="28.16" y="6.97" width="1.02" height="1.02"/><rect class="e" x="28.16" y="9.01" width="1.02" height="1.02"/><rect class="e" x="28.16" y="11.06" width="1.02" height="1.02"/><rect class="e" x="28.16" y="14.12" width="1.02" height="2.04"/><rect class="e" x="28.16" y="17.19" width="1.02" height="1.02"/><rect class="e" x="28.16" y="19.23" width="1.02" height="1.02"/><rect class="e" x="28.16" y="24.34" width="1.02" height="2.04"/><rect class="e" x="28.16" y="28.42" width="1.02" height="4.09"/><rect class="e" x="29.18" y="2.88" width="1.02" height="1.02"/><rect class="e" x="29.18" y="4.93" width="1.02" height="2.04"/><rect class="e" x="29.18" y="6.97" width="1.02" height="1.02"/><rect class="e" x="29.18" y="9.01" width="1.02" height="1.02"/><rect class="e" x="29.18" y="11.06" width="1.02" height="1.02"/><rect class="e" x="29.18" y="15.14" width="1.02" height="1.02"/><rect class="e" x="29.18" y="17.19" width="1.02" height="1.02"/><rect class="e" x="29.18" y="19.23" width="1.02" height="3.06"/><rect class="e" x="29.18" y="23.31" width="1.02" height="3.06"/><rect class="e" x="29.18" y="27.4" width="1.02" height="3.06"/><rect class="e" x="29.18" y="31.49" width="1.02" height="1.02"/><rect class="e" x="30.2" y="2.88" width="1.02" height="1.02"/><rect class="e" x="30.2" y="9.01" width="1.02" height="1.02"/><rect class="e" x="30.2" y="14.12" width="1.02" height="1.02"/><rect class="e" x="30.2" y="18.21" width="1.02" height="1.02"/><rect class="e" x="30.2" y="22.29" width="1.02" height="3.06"/><rect class="e" x="30.2" y="28.42" width="1.02" height="3.06"/><rect class="e" x="31.22" y="2.88" width="1.02" height="2.04"/><rect class="e" x="31.22" y="4.93" width="1.02" height="2.04"/><rect class="e" x="31.22" y="6.97" width="1.02" height="3.06"/><rect class="e" x="31.22" y="12.08" width="1.02" height="1.02"/><rect class="e" x="31.22" y="16.16" width="1.02" height="1.02"/><rect class="e" x="31.22" y="20.25" width="1.02" height="1.02"/><rect class="e" x="31.22" y="23.31" width="1.02" height="2.04"/><rect class="e" x="31.22" y="26.38" width="1.02" height="1.02"/><rect class="e" x="31.22" y="28.42" width="1.02" height="1.02"/></g></g></g></svg>