<?xml version="1.0" encoding="UTF-8"?><svg xmlns="http://www.w3.org/2000/svg" viewBox="0 0 34.86 34.86"><defs><style>.d{fill:#fff;}.e{fill:#004054;}</style></defs><g id="a"/><g id="b"><g id="c"><g><rect class="d" width="34.86" height="34.86"/><g><rect class="e" x="2.2" y="2.2" width="1.05" height="2.1"/><rect class="e" x="2.2" y="4.3" width="1.05" height="2.1"/><rect class="e" x="2.2" y="6.4" width="1.05" height="3.15"/><rect class="e" x="2.2" y="10.6" width="1.05" height="2.1"/><rect class="e" x="2.2" y="13.75" width="1.05" height="1.05"/><rect class="e" x="2.2" y="16.91" width="1.05" height="1.05"/><rect class="e" x="2.2" y="21.11" width="1.05" height="1.05"/><rect class="e" x="2.2" y="25.31" width="1.05" height="7.35"/><rect class="e" x="3.25" y="2.2" width="1.05" height="1.05"/><rect class="e" x="3.25" y="8.5" width="1.05" height="1.05"/><rect class="e" x="3.25" y="14.8" width="1.05" height="1.05"/><rect class="e" x="3.25" y="17.96" width="1.05" height="3.15"/><rect class="e" x="3.25" y="23.21" width="1.05" height="1.05"/><rect class="e" x="3.25" y="25.31" width="1.05" height="1.05"/><rect class="e" x="3.25" y="31.61" width="1.05" height="1.05"/><rect class="e" x="4.3" y="2.2" width="1.05" height="1.05"/><rect class="e" x="4.3" y="4.3" width="1.05" height="2.1"/><rect class="e" x="4.3" y="6.4" width="1.05" height="1.05"/><rect class="e" x="4.3" y="8.5" width="1.05" height="1.05"/><rect class="e" x="4.3" y="10.6" width="1.05" height="2.1"/><rect class="e" x="4.3" y="14.8" width="1.05" height="3.15"/><rect class="e" x="4.3" y="19.01" width="1.05" height="2.1"/><rect class="e" x="4.3" y="23.21" width="1.05" height="1.05"/><rect class="e" x="4.3" y="25.31" width="1.05" height="1.05"/><rect class="e" x="4.3" y="27.41" width="1.05" height="3.15"/><rect class="e" x="4.3" y="31.61" width="1.05" height="1.05"/><rect class="e" x="5.35" y="2.2" width="1.05" height="1.05"/><rect class="e" x="5.35" y="4.3" width="1.05" height="2.1"/><rect class="e" x="5.35" y="6.4" width="1.05" height="1.05"/><rect class="e" x="5.35" y="8.5" width="1.05" height="1.05"/><rect class="e" x="5.35" y="10.6" width="1.05" height="2.1"/><rect class="e" x="5.35" y="17.96" width="1.05" height="2.1"/><rect class="e" x="5.35" y="21.11" width="1.05" height="3.15"/><rect class="e" x="5.35" y="25.31" width="1.05" height="1.05"/><rect class="e" x="5.35" y="27.41" width="1.05" height="3.15"/><rect class="e" x="5.35" y="31.61" width="1.05" height="1.05"/><rect class="e" x="6.4" y="2.2" width="1.05" height="1.05"/><rect class="e" x="6.4" y="4.3" width="1.05" height="2.1"/><rect class="e" x="6.4" y="6.4" width="1.05" height="1.05"/><rect class="e" x="6.4" y="8.5" width="1.05" height="1.05"/><rect class="e" x="6.4" y="12.7" width="1.05" height="1.05"/><rect class="e" x="6.4" y="14.8" width="1.05" height="2.1"/><rect class="e" x="6.4" y="17.96" width="1.05" height="6.3"/><rect class="e" x="6.4" y="25.31" width="1.05" height="1.05"/><rect class="e" x="6.4" y="27.41" width="1.05" height="3.15"/><rect class="e" x="6.4" y="31.61" width="1.05" height="1.05"/><rect class="e" x="7.45" y="2.2" width="1.05" height="1.05"/><rect class="e" x="7.45" y="8.5" width="1.05" height="1.05"/><rect class="e" x="7.45" y="10.6" width="1.05" height="2.1"/><rect class="e" x="7.45" y="14.8" width="1.05" height="1.05"/><rect class="e" x="7.45" y="17.96" width="1.05" height="1.05"/><rect class="e" x="7.45" y="21.11" width="1.05" height="1.05"/><rect class="e" x="7.45" y="25.31" width="1.05" height="1.05"/><rect class="e" x="7.45" y="31.61" width="1.05" height="1.05"/><rect class="e" x="8.5" y="2.2" width="1.05" height="2.1"/><rect class="e" x="8.5" y="4.3" width="1.05" height="2.1"/><rect class="e" x="8.5" y="6.4" width="1.05" height="3.15"/><rect class="e" x="8.5" y="10.6" width="1.05" height="1.05"/><rect class="e" x="8.5" y="12.7" width="1.05" height="1.05"/><rect class="e" x="8.5" y="14.8" width="1.05" height="1.05"/><rect class="e" x="8.5" y="16.91" width="1.05" height="1.05"/><rect class="e" x="8.5" y="19.01" width="1.05" height="1.05"/><rect class="e" x="8.5" y="21.11" width="1.05" height="1.05"/><rect class="e" x="8.5" y="23.21" width="1.05" height="1.05"/><rect class="e" x="8.5" y="25.31" width="1.05" height="7.35"/><rect class="e" x="9.55" y="10.6" width="1.05" height="1.05"/><rect class="e" x="9.55" y="12.7" width="1.05" height="3.15"/><rect class="e" x="9.55" y="20.06" width="1.05" height="1.05"/><rect class="e" x="10.6" y="2.2" width="1.05" height="2.1"/><rect class="e" x="10.6" y="5.35" width="1.05" height="1.05"/><rect class="e" x="10.6" y="8.5" width="1.05" height="2.1"/><rect class="e" x="10.6" y="11.65" width="1.05" height="1.05"/><rect class="e" x="10.6" y="13.75" width="1.05" height="1.05"/><rect class="e" x="10.6" y="15.85" width="1.05" height="1.05"/><rect class="e" x="10.6" y="23.21" width="1.05" height="4.2"/><rect class="e" x="10.6" y="28.46" width="1.05" height="2.1"/><rect class="e" x="10.6" y="31.61" width="1.05" height="1.05"/><rect class="e" x="11.65" y="3.25" width="1.05" height="1.05"/><rect class="e" x="11.65" y="4.3" width="1.05" height="2.1"/><rect class="e" x="11.65" y="9.55" width="1.05" height="1.05"/><rect class="e" x="11.65" y="17.96" width="1.05" height="4.2"/><rect class="e" x="11.65" y="25.31" width="1.05" height="3.15"/><rect class="e" x="11.65" y="29.51" width="1.05" height="2.1"/><rect class="e" x="12.7" y="2.2" width="1.05" height="2.1"/><rect class="e" x="12.7" y="6.4" width="1.05" height="3.15"/><rect class="e" x="12.7" y="16.91" width="1.05" height="3.15"/><rect class="e" x="12.7" y="23.21" width="1.05" height="1.05"/><rect class="e" x="12.7" y="29.51" width="1.05" height="1.05"/><rect class="e" x="13.75" y="4.3" width="1.05" height="1.05"/><rect class="e" x="13.75" y="7.45" width="1.05" height="1.05"/><rect class="e" x="13.75" y="9.55" width="1.05" height="2.1"/><rect class="e" x="13.75" y="12.7" width="1.05" height="2.1"/><rect class="e" x="13.75" y="15.85" width="1.05" height="2.1"/><rect class="e" x="13.75" y="21.11" width="1.05" height="1.05"/><rect class="e" x="13.75" y="24.26" width="1.05" height="1.05"/><rect class="e" x="13.75" y="28.46" width="1.05" height="2.1"/><rect class="e" x="13.75" y="31.61" width="1.05" height="1.05"/><rect class="e" x="14.8" y="2.2" width="1.05" height="1.05"/><rect class="e" x="14.8" y="4.3" width="1.05" height="1.05"/><rect class="e" x="14.8" y="6.4" width="1.05" height="1.05"/><rect class="e" x="14.8" y="8.5" width="1.05" height="2.1"/><rect class="e" x="14.8" y="11.65" width="1.05" height="2.1"/><rect class="e" x="14.8" y="14.8" width="1.05" height="1.05"/><rect class="e" x="14.8" y="16.91" width="1.05" height="1.05"/><rect class="e" x="14.8" y="19.01" width="1.05" height="1.05"/><rect class="e" x="14.8" y="21.11" width="1.05" height="2.1"/><rect class="e" x="14.8" y="24.26" width="1.05" height="4.2"/><rect class="e" x="14.8" y="30.56" width="1.05" height="1.05"/><rect class="e" x="15.85" y="4.3" width="1.05" height="1.05"/><rect class="e" x="15.85" y="6.4" width="1.05" height="1.05"/><rect class="e" x="15.85" y="9.55" width="1.05" height="2.1"/><rect class="e" x="15.85" y="13.75" width="1.05" height="1.05"/><rect class="e" x="15.85" y="15.85" width="1.05" height="1.05"/><rect class="e" x="15.85" y="17.96" width="1.05" height="1.05"/><rect class="e" x="15.85" y="20.06" width="1.05" height="1.05"/><rect class="e" x="15.85" y="23.21" width="1.05" height="3.15"/><rect class="e" x="15.85" y="28.46" width="1.05" height="1.05"/><rect class="e" x="15.85" y="30.56" width="1.05" height="2.1"/><rect class="e" x="16.91" y="3.25" width="1.05" height="1.05"/><rect class="e" x="16.91" y="4.3" width="1.05" height="1.05"/><rect class="e" x="16.91" y="7.45" width="1.05" height="4.2"/><rect class="e" x="16.91" y="12.7" width="1.05" height="2.1"/><rect class="e" x="16.91" y="16.91" width="1.05" height="1.05"/><rect class="e" x="16.91" y="24.26" width="1.05" height="1.05"/><rect class="e" x="16.91" y="27.41" width="1.05" height="3.15"/><rect class="e" x="17.96" y="2.2" width="1.05" height="2.1"/><rect class="e" x="17.96" y="4.3" width="1.05" height="1.05"/><rect class="e" x="17.96" y="11.65" width="1.05" height="3.15"/><rect class="e" x="17.96" y="19.01" width="1.05" height="3.15"/><rect class="e" x="17.96" y="27.41" width="1.05" height="2.1"/><rect class="e" x="19.01" y="2.2" width="1.05" height="1.05"/><rect class="e" x="19.01" y="5.35" width="1.05" height="1.05"/><rect class="e" x="19.01" y="8.5" width="1.05" height="1.05"/><rect class="e" x="19.01" y="10.6" width="1.05" height="2.1"/><rect class="e" x="19.01" y="17.96" width="1.05" height="1.05"/><rect class="e" x="19.01" y="20.06" width="1.05" height="1.05"/><rect class="e" x="19.01" y="22.16" width="1.05" height="4.2"/><rect class="e" x="19.01" y="28.46" width="1.05" height="4.2"/><rect class="e" x="20.06" y="3.25" width="1.05" height="1.05"/><rect class="e" x="20.06" y="5.35" width="1.05" height="1.05"/><rect class="e" x="20.06" y="6.4" width="1.05" height="1.05"/><rect class="e" x="20.06" y="9.55" width="1.05" height="4.2"/><rect class="e" x="20.06" y="14.8" width="1.05" height="1.05"/><rect class="e" x="20.06" y="16.91" width="1.05" height="1.05"/><rect class="e" x="20.06" y="21.11" width="1.05" height="4.2"/><rect class="e" x="20.06" y="27.41" width="1.05" height="1.05"/><rect class="e" x="21.11" y="2.2" width="1.05" height="2.1"/><rect class="e" x="21.11" y="4.3" width="1.05" height="1.05"/><rect class="e" x="21.11" y="6.4" width="1.05" height="3.15"/><rect class="e" x="21.11" y="10.6" width="1.05" height="2.1"/><rect class="e" x="21.11" y="13.75" width="1.05" height="1.05"/><rect class="e" x="21.11" y="16.91" width="1.05" height="4.2"/><rect class="e" x="21.11" y="23.21" width="1.05" height="4.2"/><rect class="e" x="21.11" y="29.51" width="1.05" height="3.15"/><rect class="e" x="22.16" y="2.2" width="1.05" height="1.05"/><rect class="e" x="22.16" y="6.4" width="1.05" height="2.1"/><rect class="e" x="22.16" y="9.55" width="1.05" height="1.05"/><rect class="e" x="22.16" y="11.65" width="1.05" height="1.05"/><rect class="e" x="22.16" y="15.85" width="1.05" height="3.15"/><rect class="e" x="22.16" y="22.16" width="1.05" height="1.05"/><rect class="e" x="22.16" y="25.31" width="1.05" height="1.05"/><rect class="e" x="23.21" y="2.2" width="1.05" height="1.05"/><rect class="e" x="23.21" y="4.3" width="1.05" height="1.05"/><rect class="e" x="23.21" y="7.45" width="1.05" height="2.1"/><rect class="e" x="23.21" y="13.75" width="1.05" height="1.05"/><rect class="e" x="23.21" y="20.06" width="1.05" height="2.1"/><rect class="e" x="23.21" y="23.21" width="1.05" height="5.25"/><rect class="e" x="23.21" y="29.51" width="1.05" height="3.15"/><rect class="e" x="24.26" y="12.7" width="1.05" height="1.05"/><rect class="e" x="24.26" y="15.85" width="1.05" height="1.05"/><rect class="e" x="24.26" y="17.96" width="1.05" height="4.2"/><rect class="e" x="24.26" y="23.21" width="1.05" height="1.05"/><rect class="e" x="24.26" y="27.41" width="1.05" height="2.1"/><rect class="e" x="24.26" y="30.56" width="1.05" height="2.1"/><rect class="e" x="25.31" y="2.2" width="1.05" height="2.1"/><rect class="e" x="25.31" y="4.3" width="1.05" height="2.1"/><rect class="e" x="25.31" y="6.4" width="1.05" height="3.15"/><rect class="e" x="25.31" y="10.6" width="1.05" height="2.1"/><rect class="e" x="25.31" y="15.85" width="1.05" height="3.15"/><rect class="e" x="25.31" y="23.21" width="1.05" height="1.05"/><rect class="e" x="25.31" y="25.31" width="1.05" height="1.05"/><rect class="e" x="25.31" y="27.41" width="1.05" height="1.05"/><rect class="e" x="25.31" y="31.61" width="1.05" height="1.05"/><rect class="e" x="26.36" y="2.2" width="1.05" height="1.05"/><rect class="e" x="26.36" y="8.5" width="1.05" height="1.05"/><rect class="e" x="26.36" y="11.65" width="1.05" height="3.15"/><rect class="e" x="26.36" y="17.96" width="1.05" height="2.1"/><rect class="e" x="26.36" y="21.11" width="1.05" height="1.05"/><rect class="e" x="26.36" y="23.21" width="1.05" height="1.05"/><rect class="e" x="26.36" y="27.41" width="1.05" height="1.05"/><rect class="e" x="26.36" y="29.51" width="1.05" height="2.1"/><rect class="e" x="27.41" y="2.2" width="1.05" height="1.05"/><rect class="e" x="27.41" y="4.3" width="1.05" height="2.1"/><rect class="e" x="27.41" y="6.4" width="1.05" height="1.05"/><rect class="e" x="27.41" y="8.5" width="1.05" height="1.05"/><rect class="e" x="27.41" y="11.65" width="1.05" height="1.05"/><rect class="e" x="27.41" y="16.91" width="1.05" height="1.05"/><rect class="e" x="27.41" y="19.01" width="1.05" height="1.05"/><rect class="e" x="27.41" y="23.21" width="1.05" height="6.3"/><rect class="e" x="28.46" y="2.2" width="1.05" height="1.05"/><rect class="e" x="28.46" y="4.3" width="1.05" height="2.1"/><rect class="e" x="28.46" y="6.4" width="1.05" height="1.05"/><rect class="e" x="28.46" y="8.5" width="1.05" height="1.05"/><rect class="e" x="28.46" y="10.6" width="1.05" height="1.05"/><rect class="e" x="28.46" y="13.75" width="1.05" height="2.1"/><rect class="e" x="28.46" y="16.91" width="1.05" height="1.05"/><rect class="e" x="28.46" y="21.11" width="1.05" height="1.05"/><rect class="e" x="28.46" y="23.21" width="1.05" height="3.15"/><rect class="e" x="28.46" y="27.41" width="1.05" height="2.1"/><rect class="e" x="28.46" y="30.56" width="1.05" height="2.1"/><rect class="e" x="29.51" y="2.2" width="1.05" height="1.05"/><rect class="e" x="29.51" y="4.3" width="1.05" height="2.1"/><rect class="e" x="29.51" y="6.4" width="1.05" height="1.05"/><rect class="e" x="29.51" y="8.5" width="1.05" height="1.05"/><rect class="e" x="29.51" y="12.7" width="1.05" height="1.05"/><rect class="e" x="29.51" y="14.8" width="1.05" height="1.05"/><rect class="e" x="29.51" y="16.91" width="1.05" height="1.05"/><rect class="e" x="29.51" y="20.06" width="1.05" height="5.25"/><rect class="e" x="29.51" y="27.41" width="1.05" height="3.15"/><rect class="e" x="30.56" y="2.2" width="1.05" height="1.05"/><rect class="e" x="30.56" y="8.5" width="1.05" height="1.05"/><rect class="e" x="30.56" y="10.6" width="1.05" height="1.05"/><rect class="e" x="30.56" y="12.7" width="1.05" height="1.05"/><rect class="e" x="30.56" y="15.85" width="1.05" height="5.25"/><rect class="e" x="30.56" y="24.26" width="1.05" height="4.2"/><rect class="e" x="30.56" y="30.56" width="1.05" height="2.1"/><rect class="e" x="31.61" y="2.2" width="1.05" height="2.1"/><rect class="e" x="31.61" y="4.3" width="1.05" height="2.1"/><rect class="e" x="31.61" y="6.4" width="1.05" height="3.15"/><rect class="e" x="31.61" y="10.6" width="1.05" height="2.1"/><rect class="e" x="31.61" y="13.75" width="1.05" height="1.05"/><rect class="e" x="31.61" y="15.85" width="1.05" height="2.1"/><rect class="e" x="31.61" y="24.26" width="1.05" height="1.05"/><rect class="e" x="31.61" y="26.36" width="1.05" height="1.05"/><rect class="e" x="31.61" y="28.46" width="1.05" height="2.1"/></g></g></g></g></svg>