<?xml version="1.0" encoding="UTF-8"?><svg xmlns="http://www.w3.org/2000/svg" xmlns:xlink="http://www.w3.org/1999/xlink" viewBox="0 0 110.63 59.79"><defs><style>.bg{filter:url(#bb);}.bg,.bh,.bi,.bj,.bk,.bl,.bm,.bn,.bo,.bp,.bq,.br,.bs,.bt,.bu{fill:#8db23f;}.bv{fill:url(#be);}.bw{fill:url(#s);}.bw,.bx,.by,.c`,.ca,.cb,.cc,.cd,.ce,.cf,.cg,.ch,.ci,.cj,.ck,.cl,.cm,.cn,.co,.cp,.cq{opacity:.5;}.cr,.cd{fill:#fff;}.bi{filter:url(#ah);}.bx{fill:url(#r);}.bj{filter:url(#f);}.bk{filter:url(#al);}.cs{filter:url(#n);}.cs,.ct{fill:#f27b38;}.c`{fill:url(#l);}.cu{clip-path:url(#bf);}.ca{fill:url(#k);}.bl{filter:url(#an);}.cb{fill:url(#q);}.cc{fill:url(#h);}.bm{filter:url(#ap);}.bn{filter:url(#at);}.ce{fill:url(#m);}.cv{fill:url(#bd);}.cw{fill:#16669b;}.bo{filter:url(#aj);}.cx{opacity:.44;}.cx,.cy{fill:none;}.d`{filter:url(#d);}.d`,.da{fill:#1b75bc;}.cf{fill:url(#v);}.bp{filter:url(#ax);}.bq{filter:url(#b`);}.cg{fill:url(#u);}.ch{fill:url(#j);}.ci{fill:url(#t);}.cj{fill:url(#ab);}.ck{fill:url(#y);}.db{fill:#808285;opacity:.3;}.br{filter:url(#ad);}.dc{fill:url(#ac);}.bs{filter:url(#af);}.bt{filter:url(#ar);}.cl{fill:url(#aa);}.bu{filter:url(#av);}.cm{fill:url(#i);}.cn{fill:url(#w);}.co{fill:url(#a`);}.cp{fill:url(#x);}.cq{fill:url(#p);}.dd{fill:#ff770b;}</style><filter id="d" filterUnits="userSpaceOnUse"><feOffset dx=".22" dy=".22"/><feGaussianBlur result="e" stdDeviation=".22"/><feFlood flood-color="#848484" flood-opacity="1"/><feComposite in2="e" operator="in"/><feComposite in="SourceGraphic"/></filter><filter id="f" filterUnits="userSpaceOnUse"><feOffset dx=".22" dy=".22"/><feGaussianBlur result="g" stdDeviation=".22"/><feFlood flood-color="#848484" flood-opacity="1"/><feComposite in2="g" operator="in"/><feComposite in="SourceGraphic"/></filter><radialGradient id="h" cx="54.31" cy="11.62" fx="54.31" fy="11.62" r=".14" gradientTransform="matrix(1, 0, 0, 1, 0, 0)" gradientUnits="userSpaceOnUse"><stop offset="0" stop-color="#fff"/><stop offset="1" stop-color="#f27b38"/><stop offset="1" stop-color="#000"/></radialGradient><radialGradient id="i" cx="55.09" cy="11.59" fx="55.09" fy="11.59" r=".03" xlink:href="#h"/><radialGradient id="j" cx="56.55" cy="11.67" fx="56.55" fy="11.67" r=".14" xlink:href="#h"/><radialGradient id="k" cx="55.88" cy="11.61" fx="55.88" fy="11.61" r=".09" xlink:href="#h"/><radialGradient id="l" cx="57.19" cy="11.76" fx="57.19" fy="11.76" r=".18" xlink:href="#h"/><radialGradient id="m" cx="53.65" cy="11.68" fx="53.65" fy="11.68" r=".2" xlink:href="#h"/><filter id="n" filterUnits="userSpaceOnUse"><feOffset dx=".22" dy=".22"/><feGaussianBlur result="o" stdDeviation=".22"/><feFlood flood-color="#848484" flood-opacity="1"/><feComposite in2="o" operator="in"/><feComposite in="SourceGraphic"/></filter><radialGradient id="p" cx="45.7" cy="15.77" fx="45.7" fy="15.77" r=".06" gradientTransform="matrix(1, 0, 0, 1, 0, 0)" gradientUnits="userSpaceOnUse"><stop offset="0" stop-color="#fff"/><stop offset="1" stop-color="#1d631d"/><stop offset="1" stop-color="#000"/></radialGradient><radialGradient id="q" cx="47.73" cy="22.93" fx="47.73" fy="22.93" r=".12" xlink:href="#p"/><radialGradient id="r" cx="48.33" cy="21.08" fx="48.33" fy="21.08" r=".14" xlink:href="#p"/><radialGradient id="s" cx="48.06" cy="21.73" fx="48.06" fy="21.73" r=".2" xlink:href="#p"/><radialGradient id="t" cx="47.85" cy="22.41" fx="47.85" fy="22.41" r=".24" xlink:href="#p"/><radialGradient id="u" cx="43.47" cy="19.59" fx="43.47" fy="19.59" r="1.31" xlink:href="#p"/><radialGradient id="v" cx="42.43" cy="24.3" fx="42.43" fy="24.3" r=".03" xlink:href="#p"/><radialGradient id="w" cx="42.54" cy="23.04" fx="42.54" fy="23.04" r=".75" xlink:href="#p"/><radialGradient id="x" cx="48.65" cy="20.47" fx="48.65" fy="20.47" r=".08" xlink:href="#p"/><radialGradient id="y" cx="44.44" cy="17.44" fx="44.44" fy="17.44" r=".29" xlink:href="#p"/><radialGradient id="a`" cx="42.69" cy="21.74" fx="42.69" fy="21.74" r=".15" xlink:href="#p"/><radialGradient id="aa" cx="44.98" cy="16.65" fx="44.98" fy="16.65" r=".15" xlink:href="#p"/><radialGradient id="ab" cx="49.03" cy="19.89" fx="49.03" fy="19.89" r=".01" xlink:href="#p"/><linearGradient id="ac" x1="46.69" y1="15.36" x2="55.13" y2="15.36" gradientTransform="matrix(1, 0, 0, 1, 0, 0)" gradientUnits="userSpaceOnUse"><stop offset=".71" stop-color="#847823"/><stop offset="1" stop-color="#f27b38"/></linearGradient><filter id="ad" filterUnits="userSpaceOnUse"><feOffset dx=".22" dy=".22"/><feGaussianBlur result="ae" stdDeviation=".22"/><feFlood flood-color="#848484" flood-opacity="1"/><feComposite in2="ae" operator="in"/><feComposite in="SourceGraphic"/></filter><filter id="af" filterUnits="userSpaceOnUse"><feOffset dx=".22" dy=".22"/><feGaussianBlur result="ag" stdDeviation=".22"/><feFlood flood-color="#848484" flood-opacity="1"/><feComposite in2="ag" operator="in"/><feComposite in="SourceGraphic"/></filter><filter id="ah" filterUnits="userSpaceOnUse"><feOffset dx=".22" dy=".22"/><feGaussianBlur result="ai" stdDeviation=".22"/><feFlood flood-color="#848484" flood-opacity="1"/><feComposite in2="ai" operator="in"/><feComposite in="SourceGraphic"/></filter><filter id="aj" filterUnits="userSpaceOnUse"><feOffset dx=".22" dy=".22"/><feGaussianBlur result="ak" stdDeviation=".22"/><feFlood flood-color="#848484" flood-opacity="1"/><feComposite in2="ak" operator="in"/><feComposite in="SourceGraphic"/></filter><filter id="al" filterUnits="userSpaceOnUse"><feOffset dx=".22" dy=".22"/><feGaussianBlur result="am" stdDeviation=".22"/><feFlood flood-color="#848484" flood-opacity="1"/><feComposite in2="am" operator="in"/><feComposite in="SourceGraphic"/></filter><filter id="an" filterUnits="userSpaceOnUse"><feOffset dx=".22" dy=".22"/><feGaussianBlur result="ao" stdDeviation=".22"/><feFlood flood-color="#848484" flood-opacity="1"/><feComposite in2="ao" operator="in"/><feComposite in="SourceGraphic"/></filter><filter id="ap" filterUnits="userSpaceOnUse"><feOffset dx=".22" dy=".22"/><feGaussianBlur result="aq" stdDeviation=".22"/><feFlood flood-color="#848484" flood-opacity="1"/><feComposite in2="aq" operator="in"/><feComposite in="SourceGraphic"/></filter><filter id="ar" filterUnits="userSpaceOnUse"><feOffset dx=".22" dy=".22"/><feGaussianBlur result="as" stdDeviation=".22"/><feFlood flood-color="#848484" flood-opacity="1"/><feComposite in2="as" operator="in"/><feComposite in="SourceGraphic"/></filter><filter id="at" filterUnits="userSpaceOnUse"><feOffset dx=".22" dy=".22"/><feGaussianBlur result="au" stdDeviation=".22"/><feFlood flood-color="#848484" flood-opacity="1"/><feComposite in2="au" operator="in"/><feComposite in="SourceGraphic"/></filter><filter id="av" filterUnits="userSpaceOnUse"><feOffset dx=".22" dy=".22"/><feGaussianBlur result="aw" stdDeviation=".22"/><feFlood flood-color="#848484" flood-opacity="1"/><feComposite in2="aw" operator="in"/><feComposite in="SourceGraphic"/></filter><filter id="ax" filterUnits="userSpaceOnUse"><feOffset dx=".22" dy=".22"/><feGaussianBlur result="ay" stdDeviation=".22"/><feFlood flood-color="#848484" flood-opacity="1"/><feComposite in2="ay" operator="in"/><feComposite in="SourceGraphic"/></filter><filter id="b`" filterUnits="userSpaceOnUse"><feOffset dx=".22" dy=".22"/><feGaussianBlur result="ba" stdDeviation=".22"/><feFlood flood-color="#848484" flood-opacity="1"/><feComposite in2="ba" operator="in"/><feComposite in="SourceGraphic"/></filter><filter id="bb" filterUnits="userSpaceOnUse"><feOffset dx=".22" dy=".22"/><feGaussianBlur result="bc" stdDeviation=".22"/><feFlood flood-color="#848484" flood-opacity="1"/><feComposite in2="bc" operator="in"/><feComposite in="SourceGraphic"/></filter><linearGradient id="bd" x1="51.36" y1="35.94" x2="47.03" y2="28.44" gradientTransform="matrix(1, 0, 0, 1, 0, 0)" gradientUnits="userSpaceOnUse"><stop offset=".46" stop-color="#1d631d"/><stop offset=".99" stop-color="#8db23f"/></linearGradient><linearGradient id="be" x1="64.76" y1="28.51" x2="64.76" y2="21.51" gradientTransform="matrix(1, 0, 0, 1, 0, 0)" gradientUnits="userSpaceOnUse"><stop offset="0" stop-color="#1b75bc"/><stop offset=".49" stop-color="#193292"/></linearGradient><clipPath id="bf"><path class="cy" d="M67.83,24.27c0,7.03-5.77,12.73-12.76,12.73s-12.64-5.7-12.64-12.73,5.66-12.73,12.64-12.73,12.76,5.7,12.76,12.73Z"/></clipPath></defs><g id="a"/><g id="b"><g id="c"><g><rect class="db" x=".03" y="59.2" width="110.6" height=".59"/><g><path class="cw" d="M29.87,45.86c-.04,.4-.19,.72-.45,.95-.26,.23-.61,.34-1.04,.34-.3,0-.57-.07-.8-.22-.23-.14-.41-.35-.53-.61-.13-.26-.19-.57-.2-.92v-.35c0-.36,.06-.68,.19-.95,.13-.27,.31-.48,.55-.63,.24-.15,.51-.22,.82-.22,.42,0,.76,.11,1.01,.34,.25,.22,.4,.55,.45,.96h-.66c-.03-.28-.11-.47-.24-.59s-.32-.18-.56-.18c-.29,0-.51,.1-.66,.31-.15,.21-.23,.52-.24,.92v.34c0,.41,.07,.72,.22,.94,.15,.22,.36,.32,.65,.32,.26,0,.45-.06,.58-.18s.21-.31,.25-.58h.66Z"/><path class="cw" d="M33.75,45.4h-1.56v1.17h1.82v.53h-2.48v-3.8h2.46v.53h-1.8v1.05h1.56v.52Z"/><path class="cw" d="M38.63,47.1h-.66l-1.69-2.69v2.69h-.66v-3.8h.66l1.7,2.7v-2.7h.65v3.8Z"/><path class="cw" d="M43.15,43.84h-1.18v3.26h-.66v-3.26h-1.17v-.53h3.01v.53Z"/><path class="cw" d="M46.11,45.64h-.74v1.46h-.66v-3.8h1.34c.44,0,.78,.1,1.01,.29,.24,.2,.36,.48,.36,.86,0,.25-.06,.47-.18,.64-.12,.17-.29,.3-.51,.4l.85,1.58v.03h-.71l-.76-1.46Zm-.74-.53h.68c.22,0,.4-.06,.52-.17,.12-.11,.19-.27,.19-.46,0-.2-.06-.36-.17-.47s-.29-.17-.52-.17h-.7v1.27Z"/><path class="cw" d="M51.24,46.22h-1.47l-.31,.88h-.69l1.44-3.8h.59l1.44,3.8h-.69l-.31-.88Zm-1.29-.53h1.1l-.55-1.58-.55,1.58Z"/><path class="cw" d="M54.39,46.57h1.72v.53h-2.38v-3.8h.66v3.27Z"/><path class="cw" d="M60.57,43.3h.66v2.66c0,.36-.11,.65-.34,.87-.23,.21-.53,.32-.9,.32-.4,0-.7-.1-.92-.3s-.32-.48-.32-.84h.66c0,.2,.05,.36,.15,.46,.1,.1,.24,.15,.43,.15s.32-.06,.42-.18c.11-.12,.16-.28,.16-.48v-2.66Z"/><path class="cw" d="M65.27,45.4h-1.56v1.17h1.82v.53h-2.48v-3.8h2.47v.53h-1.81v1.05h1.56v.52Z"/><path class="cw" d="M68.53,45.64h-.74v1.46h-.66v-3.8h1.34c.44,0,.78,.1,1.02,.29,.24,.2,.36,.48,.36,.86,0,.25-.06,.47-.18,.64-.12,.17-.29,.3-.51,.4l.85,1.58v.03h-.7l-.76-1.46Zm-.74-.53h.68c.22,0,.4-.06,.52-.17,.13-.11,.19-.27,.19-.46,0-.2-.06-.36-.17-.47s-.29-.17-.52-.17h-.7v1.27Z"/><path class="cw" d="M73.52,46.12c0-.17-.06-.3-.18-.39-.12-.09-.33-.18-.64-.27-.31-.09-.55-.2-.73-.31-.34-.22-.52-.5-.52-.85,0-.3,.12-.56,.37-.76,.25-.2,.57-.3,.97-.3,.26,0,.5,.05,.71,.14,.2,.1,.37,.24,.49,.42,.12,.18,.18,.38,.18,.6h-.66c0-.2-.06-.36-.19-.47s-.3-.17-.53-.17c-.22,0-.38,.05-.5,.14s-.18,.22-.18,.38c0,.14,.06,.26,.19,.35,.13,.1,.34,.18,.64,.27s.53,.19,.71,.3,.31,.24,.39,.39c.08,.14,.13,.32,.13,.51,0,.32-.12,.57-.36,.76-.24,.19-.57,.28-.99,.28-.28,0-.53-.05-.76-.15-.23-.1-.41-.24-.54-.42-.13-.18-.19-.39-.19-.63h.66c0,.22,.07,.38,.22,.5,.14,.12,.34,.18,.61,.18,.23,0,.4-.05,.52-.14s.18-.22,.18-.37Z"/><path class="cw" d="M78.04,45.4h-1.56v1.17h1.82v.53h-2.48v-3.8h2.47v.53h-1.81v1.05h1.56v.52Z"/><path class="cw" d="M81.15,45.1l.88-1.8h.73l-1.27,2.4v1.4h-.66v-1.4l-1.27-2.4h.73l.87,1.8Z"/></g><g><path class="dd" d="M5.04,50.61H2.95v5.81h-.86v-5.81H0v-.7H5.04v.7Z"/><path class="dd" d="M8.4,53.78h-1.53v2.64h-.87v-6.51h2.16c.73,0,1.3,.17,1.7,.5,.4,.34,.59,.82,.59,1.46,0,.4-.11,.76-.33,1.06-.22,.3-.53,.52-.92,.67l1.53,2.77v.05h-.92l-1.42-2.64Zm-1.53-.7h1.32c.43,0,.77-.11,1.02-.33s.38-.52,.38-.89c0-.4-.12-.71-.36-.93s-.59-.32-1.04-.33h-1.32v2.48Z"/><path class="dd" d="M15.26,54.71h-2.73l-.61,1.7h-.89l2.49-6.51h.75l2.5,6.51h-.88l-.62-1.7Zm-2.47-.7h2.22l-1.11-3.04-1.11,3.04Z"/><path class="dd" d="M22.66,56.42h-.86l-3.29-5.02v5.02h-.86v-6.51h.86l3.29,5.04v-5.04h.86v6.51Z"/><path class="dd" d="M26.11,53.51c-.74-.21-1.27-.47-1.61-.78-.34-.31-.5-.69-.5-1.14,0-.51,.21-.94,.62-1.27,.41-.34,.95-.5,1.6-.5,.45,0,.85,.09,1.2,.26,.35,.18,.62,.41,.82,.72s.29,.64,.29,1h-.86c0-.4-.13-.71-.38-.93-.25-.23-.61-.34-1.06-.34-.43,0-.76,.09-.99,.28s-.36,.44-.36,.78c0,.27,.11,.49,.34,.68s.61,.35,1.15,.5,.97,.32,1.27,.5c.31,.18,.53,.4,.68,.64,.15,.25,.22,.53,.22,.86,0,.53-.21,.95-.62,1.27-.41,.32-.96,.48-1.65,.48-.45,0-.87-.08-1.25-.26-.39-.17-.69-.41-.9-.7-.21-.3-.32-.64-.32-1.02h.87c0,.39,.15,.7,.44,.93,.29,.23,.68,.34,1.17,.34,.45,0,.8-.09,1.04-.28,.24-.18,.36-.44,.36-.76s-.11-.56-.34-.74c-.22-.17-.63-.34-1.22-.52Z"/><path class="dd" d="M30.49,53.87v2.55h-.86v-6.51h2.41c.71,0,1.27,.18,1.68,.54,.41,.36,.61,.85,.61,1.44,0,.63-.2,1.12-.59,1.46-.4,.34-.96,.51-1.7,.51h-1.54Zm0-.7h1.55c.46,0,.81-.11,1.06-.32,.24-.22,.37-.53,.37-.94s-.12-.7-.37-.93c-.25-.23-.58-.35-1.01-.36h-1.6v2.56Z"/><path class="dd" d="M40.44,53.37c0,.64-.11,1.2-.32,1.67-.21,.48-.52,.84-.91,1.09-.39,.25-.85,.38-1.38,.38s-.97-.12-1.37-.38c-.4-.25-.71-.61-.92-1.08-.22-.46-.33-1-.34-1.62v-.47c0-.63,.11-1.18,.33-1.66s.53-.85,.93-1.1c.4-.26,.85-.38,1.37-.38s.98,.13,1.38,.38c.4,.25,.71,.62,.92,1.1,.22,.48,.32,1.04,.32,1.67v.41Zm-.86-.42c0-.77-.15-1.36-.47-1.78-.31-.41-.74-.62-1.3-.62s-.97,.21-1.28,.62-.47,.98-.48,1.72v.48c0,.75,.16,1.34,.47,1.77,.31,.43,.75,.64,1.3,.64s.99-.2,1.29-.6c.31-.4,.46-.98,.47-1.74v-.48Z"/><path class="dd" d="M44.13,53.78h-1.53v2.64h-.87v-6.51h2.16c.73,0,1.3,.17,1.7,.5,.4,.34,.59,.82,.59,1.46,0,.4-.11,.76-.33,1.06-.22,.3-.53,.52-.92,.67l1.53,2.77v.05h-.92l-1.42-2.64Zm-1.53-.7h1.32c.43,0,.77-.11,1.02-.33s.38-.52,.38-.89c0-.4-.12-.71-.36-.93s-.59-.32-1.04-.33h-1.32v2.48Z"/><path class="dd" d="M51.53,50.61h-2.1v5.81h-.86v-5.81h-2.09v-.7h5.04v.7Z"/><path class="dd" d="M55.74,54.71h-2.73l-.61,1.7h-.89l2.49-6.51h.75l2.5,6.51h-.88l-.62-1.7Zm-2.47-.7h2.22l-1.11-3.04-1.11,3.04Z"/><path class="dd" d="M62.06,50.61h-2.1v5.81h-.86v-5.81h-2.09v-.7h5.04v.7Z"/><path class="dd" d="M63.95,56.42h-.86v-6.51h.86v6.51Z"/><path class="dd" d="M70.54,53.37c0,.64-.11,1.2-.32,1.67-.22,.48-.52,.84-.92,1.09-.4,.25-.86,.38-1.38,.38s-.97-.12-1.37-.38c-.4-.25-.7-.61-.92-1.08-.22-.46-.33-1-.34-1.62v-.47c0-.63,.11-1.18,.33-1.66s.53-.85,.92-1.1c.4-.26,.86-.38,1.37-.38s.98,.13,1.38,.38c.4,.25,.71,.62,.92,1.1,.21,.48,.32,1.04,.32,1.67v.41Zm-.86-.42c0-.77-.16-1.36-.46-1.78-.31-.41-.75-.62-1.3-.62s-.97,.21-1.28,.62-.48,.98-.48,1.72v.48c0,.75,.16,1.34,.47,1.77,.32,.43,.75,.64,1.3,.64s.98-.2,1.29-.6c.3-.4,.46-.98,.47-1.74v-.48Z"/><path class="dd" d="M76.84,56.42h-.86l-3.28-5.02v5.02h-.87v-6.51h.87l3.29,5.04v-5.04h.86v6.51Z"/><path class="dd" d="M84.24,53.54h-2.74v2.88h-.86v-6.51h4.04v.7h-3.18v2.23h2.74v.7Z"/><path class="dd" d="M90.74,53.37c0,.64-.11,1.2-.32,1.67-.22,.48-.52,.84-.92,1.09-.4,.25-.86,.38-1.38,.38s-.97-.12-1.37-.38c-.4-.25-.7-.61-.92-1.08-.22-.46-.33-1-.34-1.62v-.47c0-.63,.11-1.18,.33-1.66s.53-.85,.92-1.1c.4-.26,.86-.38,1.37-.38s.98,.13,1.38,.38c.4,.25,.71,.62,.92,1.1,.21,.48,.32,1.04,.32,1.67v.41Zm-.86-.42c0-.77-.16-1.36-.46-1.78-.31-.41-.75-.62-1.3-.62s-.97,.21-1.28,.62-.48,.98-.48,1.72v.48c0,.75,.16,1.34,.47,1.77,.32,.43,.75,.64,1.3,.64s.98-.2,1.29-.6c.3-.4,.46-.98,.47-1.74v-.48Z"/><path class="dd" d="M94.42,53.78h-1.54v2.64h-.86v-6.51h2.16c.74,0,1.3,.17,1.7,.5,.4,.34,.6,.82,.6,1.46,0,.4-.11,.76-.33,1.06-.22,.3-.52,.52-.92,.67l1.54,2.77v.05h-.92l-1.42-2.64Zm-1.54-.7h1.32c.43,0,.77-.11,1.02-.33s.38-.52,.38-.89c0-.4-.12-.71-.36-.93-.24-.22-.59-.32-1.04-.33h-1.32v2.48Z"/><path class="dd" d="M102.27,49.91v4.43c0,.61-.2,1.12-.58,1.51-.38,.39-.9,.61-1.56,.66h-.23c-.71,0-1.28-.18-1.71-.57s-.64-.91-.64-1.59v-4.43h.85v4.41c0,.47,.13,.84,.39,1.1s.63,.39,1.11,.39,.86-.13,1.12-.39c.26-.26,.39-.63,.39-1.1v-4.41h.86Z"/><path class="dd" d="M104.74,49.91l2.14,5.31,2.13-5.31h1.12v6.51h-.86v-2.54l.08-2.74-2.14,5.27h-.66l-2.14-5.26,.08,2.72v2.54h-.86v-6.51h1.11Z"/></g><rect class="db" x=".03" y="40.47" width="110.6" height=".59"/><path class="d`" d="M67.53,21.51c-3.42,.26-6.55,2.04-8.25,5.09-.81,1.46-1.2,3.04-1.21,4.62-1.72,.75-4.22,.8-5.98-.05-.02,1.72-.42,3.47-1.26,5.02l-.02,.06c2.51,1.04,6.03,.93,8.51,.03,2.89-1.04,5.38-3.02,6.93-5.82,1.56-2.8,1.92-5.95,1.28-8.96Z"/><path class="bj" d="M50.93,26.59c-.79-1.46-1.91-2.63-3.23-3.5,.28-1.81,1.28-3.55,2.82-4.74-1.48-.84-2.68-1.9-3.7-3.37l-.14-.21c-1.99,1.77-3.33,4.12-3.92,6.62-.67,2.99-.33,6.15,1.19,8.96,1.52,2.81,3.98,4.82,6.85,5.9,1.61-3.02,1.78-6.61,.12-9.67Zm-7.39-5.09s-.08-.02-.12-.02c.04,0,.08,.01,.12,.02Zm.58,.11h0Z"/><circle class="cx" cx="42.11" cy="31.06" r="9.76"/><circle class="cx" cx="55.13" cy="9.76" r="9.76"/><g><circle class="da" cx="67.73" cy="31.06" r="4.64"/><path class="cr" d="M67.73,36.23c-2.85,0-5.17-2.32-5.17-5.17s2.32-5.17,5.17-5.17,5.17,2.32,5.17,5.17-2.32,5.17-5.17,5.17Zm0-9.28c-2.26,0-4.1,1.84-4.1,4.1s1.84,4.1,4.1,4.1,4.1-1.84,4.1-4.1-1.84-4.1-4.1-4.1Z"/></g><circle class="bh" cx="42.11" cy="31.06" r="4.64"/><path class="cr" d="M42.11,36.23c-2.85,0-5.17-2.32-5.17-5.17s2.32-5.17,5.17-5.17,5.17,2.32,5.17,5.17-2.32,5.17-5.17,5.17Zm0-9.28c-2.26,0-4.1,1.84-4.1,4.1s1.84,4.1,4.1,4.1,4.1-1.84,4.1-4.1-1.84-4.1-4.1-4.1Z"/><path class="cy" d="M50.53,18.35c-1.77,1.38-2.92,3.52-2.92,5.94,0,4.15,3.37,7.52,7.52,7.52,1.01,0,1.98-.2,2.86-.57,0-1.62,.39-3.25,1.22-4.74,.82-1.47,1.97-2.64,3.33-3.5-.32-1.89-1.35-3.53-2.8-4.66-1.39,.74-2.95,1.17-4.6,1.17s-3.22-.42-4.6-1.17Z"/><path class="cc" d="M54.11,11.63c.14-.01,.27-.02,.41-.03-.14,0-.27,.02-.41,.03Z"/><path class="cm" d="M55.13,11.59s-.05,0-.07,0c.02,0,.05,0,.07,0h0Z"/><path class="ch" d="M56.36,11.65c.13,.01,.26,.03,.39,.05-.13-.02-.26-.03-.39-.05Z"/><path class="ca" d="M55.76,11.6c.08,0,.17,.01,.25,.02-.08,0-.17-.01-.25-.02Z"/><path class="c`" d="M56.94,11.72c.17,.02,.34,.05,.5,.08-.17-.03-.33-.06-.5-.08Z"/><path class="ce" d="M53.37,11.71c.18-.03,.37-.05,.55-.07-.19,.02-.37,.04-.55,.07Z"/><path class="ct" d="M53.93,11.65c.06,0,.12,0,.18-.01-.06,0-.12,0-.18,.01Z"/><path class="ct" d="M53.36,11.71h0Z"/><path class="ct" d="M54.52,11.6c.18,0,.36-.01,.54-.01-.18,0-.36,0-.54,.01Z"/><path class="ct" d="M57.44,11.8h0Z"/><path class="ct" d="M56.75,11.69c.06,0,.13,.02,.19,.02-.06,0-.13-.02-.19-.02Z"/><path class="ct" d="M55.13,11.59h0c.21,0,.42,0,.62,.02-.21-.01-.41-.02-.62-.02Z"/><path class="ct" d="M56.01,11.62c.12,0,.23,.02,.35,.03-.12-.01-.23-.02-.35-.03Z"/><path class="cs" d="M63.58,14.81c-2.32-2.02-5.25-3.26-8.45-3.26s-6.14,1.21-8.45,3.24c1.89,2.87,4.97,4.74,8.45,4.74,1.66,0,3.22-.42,4.61-1.16,1.45,1.13,2.5,2.89,2.82,4.78,1.45-.91,3.02-1.47,4.78-1.6h.18c-.6-2.61-2.03-5.01-3.94-6.72Z"/><circle class="ct" cx="55.13" cy="9.76" r="4.64"/><path class="cr" d="M55.13,14.93c-2.85,0-5.17-2.32-5.17-5.17s2.32-5.17,5.17-5.17,5.17,2.32,5.17,5.17-2.32,5.17-5.17,5.17Zm0-9.28c-2.26,0-4.1,1.84-4.1,4.1s1.84,4.1,4.1,4.1,4.1-1.84,4.1-4.1-1.84-4.1-4.1-4.1Z"/><circle class="cx" cx="67.73" cy="31.06" r="9.76"/><path class="cr" d="M67.73,36.23c-2.85,0-5.17-2.32-5.17-5.17s2.32-5.17,5.17-5.17,5.17,2.32,5.17,5.17-2.32,5.17-5.17,5.17Zm0-9.28c-2.26,0-4.1,1.84-4.1,4.1s1.84,4.1,4.1,4.1,4.1-1.84,4.1-4.1-1.84-4.1-4.1-4.1Z"/><path class="cy" d="M55.13,16.75c-1.75,0-3.35,.6-4.62,1.6h.01c-.57,.45-1.07,.96-1.48,1.53l-.02,.03c-.11,.15-.21,.31-.3,.46-.04,.06-.08,.13-.12,.19-.06,.11-.12,.22-.18,.33-.06,.12-.12,.24-.18,.37-.03,.07-.06,.13-.08,.2-.07,.18-.14,.36-.2,.54,0,.03-.02,.05-.02,.08-.07,.22-.12,.44-.17,.67v.02c-.03,.11-.04,.22-.06,.33,1.31,.86,2.43,2.03,3.21,3.48,.78,1.44,1.15,3,1.16,4.56,.93,.41,1.96,.65,3.05,.65,4.15,0,7.52-3.37,7.52-7.52,0-1.67-.55-3.2-1.46-4.45h-6.06v-3.08Z"/><path class="cq" d="M45.64,15.84s.08-.09,.12-.13c-.04,.04-.08,.09-.12,.13Z"/><path class="cb" d="M47.7,23.09h.02c.02-.1,.03-.21,.05-.32-.02,.11-.05,.22-.07,.32Z"/><path class="bx" d="M48.24,21.26c.05-.12,.12-.24,.18-.37-.06,.12-.12,.24-.18,.37Z"/><path class="bw" d="M47.96,22c.06-.18,.13-.36,.2-.54-.07,.18-.14,.36-.2,.54Z"/><path class="ci" d="M47.77,22.75c.05-.23,.11-.45,.17-.67-.07,.22-.13,.44-.17,.67Z"/><path class="cg" d="M42.78,21.31c.29-1.2,.75-2.36,1.38-3.44-.62,1.06-1.09,2.21-1.38,3.44Z"/><path class="cf" d="M42.43,24.27s0,.05,0,.08c0-.03,0-.06,0-.1v.02Z"/><path class="cn" d="M42.44,24.1c.01-.71,.08-1.42,.21-2.12-.13,.69-.2,1.4-.21,2.12Z"/><path class="cp" d="M48.6,20.56c.04-.06,.08-.13,.12-.19-.04,.06-.08,.13-.12,.19Z"/><path class="ck" d="M44.22,17.78c.14-.23,.28-.46,.44-.68-.15,.22-.3,.45-.44,.68Z"/><path class="co" d="M42.65,21.95c.03-.14,.05-.28,.08-.42-.03,.14-.06,.28-.08,.42Z"/><path class="cl" d="M44.85,16.82c.08-.12,.17-.23,.26-.34-.09,.11-.18,.23-.26,.34Z"/><path class="cj" d="M49.02,19.91l.02-.03-.02,.03Z"/><path class="dc" d="M50.51,18.35c1.28-1,2.88-1.6,4.62-1.6v-1.82s-.07,0-.1,0c-1.86,0-3.49-1.04-4.32-2.57-1.5,.56-2.86,1.39-4.03,2.43l.14,.2c1.02,1.46,2.21,2.52,3.69,3.36Z"/><path class="br" d="M46.69,14.79h0c-.33,.28-.63,.59-.92,.91,.29-.32,.6-.62,.93-.91Z"/><path class="bs" d="M42.76,21.4s-.02,.09-.03,.13c.02-.07,.03-.15,.05-.22,0,.03-.02,.06-.02,.09Z"/><path class="bi" d="M44.16,17.88s.04-.06,.05-.1c-.02,.03-.04,.06-.05,.1Z"/><path class="bo" d="M42.43,24.25c0-.05,0-.1,0-.15,0,.05,0,.1,0,.15Z"/><path class="bk" d="M44.65,17.1c.06-.09,.13-.19,.2-.28-.07,.09-.13,.18-.2,.28Z"/><path class="bl" d="M42.64,21.98v0Z"/><path class="bm" d="M50.52,18.36h-.01c-.56,.43-1.05,.95-1.47,1.52,.41-.57,.91-1.08,1.48-1.52Z"/><path class="bt" d="M47.94,22.08s.02-.05,.02-.08l-.02,.08Z"/><path class="bn" d="M48.16,21.46c.03-.07,.05-.13,.08-.2-.03,.07-.06,.13-.08,.2Z"/><path class="bu" d="M48.42,20.9c.06-.11,.11-.22,.18-.33-.06,.11-.12,.22-.18,.33Z"/><path class="bp" d="M48.71,20.37c.1-.16,.2-.31,.3-.46-.11,.15-.21,.3-.3,.46Z"/><path class="bq" d="M45.11,16.47c.17-.22,.35-.43,.53-.64-.18,.21-.36,.42-.53,.64Z"/><path class="bg" d="M47.76,22.77v0Z"/><path class="cv" d="M52.09,31.17c-1.47-.67-2.79-1.87-3.59-3.42l-1.82,.89s.19,.4,.21,.43c.63,1.65,.5,3.18-.31,4.63,1.18,1.07,2.77,2,4.23,2.56l.14-.28c.89-1.63,1.13-3.12,1.14-4.81Z"/><path class="bv" d="M62.57,23.13c.24,1.6-.02,2.99-.88,4.5l1.54,.87s.05-.09,.07-.12c1.04-1.69,2.73-2.48,4.43-2.5,.23-1.6,.09-2.88-.2-4.37l-.32,.03c-1.79,.15-3.2,.7-4.64,1.59Z"/><g><path class="cr" d="M49.64,26.26h0v.02s0,0,0,0h0v.02h0v.02h0v.02h0v.02h-.01v.02h-.02v.02h-.03v.02h-.02l-.42,.05,.77,1.22,.37-.04-.16-.26s-.01-.1,.03-.12c.04-.03,.1-.01,.12,.03l.36,.58s.01,.1-.03,.12c-.04,.03-.1,.01-.12-.03l-.09-.15-.42,.05-.38,.62,.03,.02c.11,.08,.19,.18,.26,.29,.33,.53,.17,1.21-.35,1.55-.53,.33-1.21,.17-1.55-.35-.29-.49-.2-1.11,.25-1.47l.03-.02-.28-.45s-.02-.07,0-.1l.88-1.45-.56,.07v.03c-.01,.41-.18,.73-.53,.96-.53,.33-1.21,.17-1.55-.35-.33-.52-.17-1.22,.35-1.55,.53-.33,1.21-.17,1.55,.35,.06,.11,.12,.22,.14,.34v.03l1.08-.13h.06l-.35-.56c-.05-.08-.15-.1-.23-.05s-.1,.15-.05,.23l.07,.11s.01,.1-.03,.13-.1,.01-.13-.03l-.07-.11c-.1-.16-.05-.38,.11-.48s.38-.05,.48,.11l.42,.68Zm-1.66-.17h0c-.28-.44-.85-.57-1.29-.29-.44,.28-.57,.86-.3,1.29s.86,.57,1.29,.3h0c.27-.18,.43-.46,.44-.77v-.04l-.93,.11c-.05,0-.1-.03-.1-.08,0-.05,.03-.1,.08-.1l.93-.11v-.04c-.03-.09-.07-.18-.12-.26h0Zm1.75,2.79c-.06-.1-.13-.17-.2-.22l-.03-.03-.48,.8c-.04,.06-.12,.06-.16,0l-.5-.79-.03,.03c-.18,.14-.29,.34-.32,.57-.03,.22,.02,.46,.13,.64,.28,.44,.86,.57,1.29,.3s.57-.86,.3-1.29h0Zm-1.52-.82l.21,.33,.03-.02c.3-.15,.65-.15,.96,0h.03l.3-.48-1.53,.18Zm1.09,.46c-.24-.1-.52-.1-.75,0l-.04,.02,.42,.67,.41-.67-.04-.02Zm-1.07-.65l1.48-.17-.7-1.11-.78,1.29Z"/><path class="cr" d="M48.94,30.59c-.4,0-.78-.2-1.02-.56-.31-.53-.21-1.17,.24-1.56l-.24-.39c-.04-.06-.04-.13,0-.18l.79-1.31-.32,.04c-.02,.42-.21,.75-.56,.98-.57,.35-1.3,.19-1.66-.38-.17-.27-.23-.6-.16-.91,.07-.31,.26-.58,.53-.75,.57-.35,1.3-.19,1.66,.38,.07,.11,.12,.22,.14,.33l.92-.11-.28-.44s-.08-.05-.11-.03c-.04,.02-.05,.08-.03,.11l.07,.11c.05,.08,.03,.19-.06,.24-.04,.02-.09,.03-.13,.02-.05-.01-.08-.04-.11-.08l-.07-.11c-.13-.2-.07-.47,.14-.6,.1-.06,.21-.08,.33-.06,.11,.03,.21,.09,.27,.19l.45,.77-.02,.09h0l-.06,.06-.06,.02-.31,.04,.67,1.07,.18-.02-.09-.14c-.05-.08-.03-.19,.05-.24,.08-.05,.19-.03,.24,.05l.36,.58c.05,.08,.03,.19-.05,.24-.04,.02-.09,.03-.13,.02s-.08-.04-.11-.08l-.07-.11-.33,.04-.32,.52c.09,.07,.17,.16,.25,.29,.35,.57,.19,1.3-.38,1.66-.2,.13-.42,.19-.64,.19Zm.08-4.19l-.96,1.59,.32,.52-.09,.07c-.41,.33-.51,.9-.23,1.36,.31,.48,.94,.63,1.43,.32,.49-.31,.63-.94,.33-1.43-.08-.12-.16-.21-.24-.27l-.09-.06,.44-.72,.52-.06,.12,.2-.35-.59,.22,.38-.55,.06-.86-1.37Zm-1.84-.84c-.19,0-.38,.05-.55,.16-.23,.15-.4,.38-.46,.65-.06,.27-.01,.55,.13,.78,.31,.49,.94,.63,1.43,.33,.32-.21,.47-.5,.49-.89v-.1l.79-.09h0l.56-.07h0l-.42-.68c-.04-.06-.1-.1-.17-.12-.07-.02-.14,0-.2,.03-.06,.04-.1,.1-.12,.17-.02,.07,0,.14,.03,.2l.07,.11-.06-.12c-.07-.12-.04-.27,.08-.34,.12-.07,.27-.04,.34,.08l.42,.67-1.34,.16-.02-.11c-.02-.1-.07-.21-.13-.32-.2-.31-.54-.48-.88-.48Zm2.45,.72h0Zm-.69,4.14c-.08,0-.15,0-.23-.03-.27-.06-.49-.22-.64-.45-.13-.2-.18-.45-.14-.7,.04-.26,.16-.48,.35-.63l.11-.08,.55,.87,.55-.88,.11,.08c.08,.06,.15,.14,.22,.24h0c.15,.25,.19,.52,.13,.77-.06,.27-.22,.49-.45,.64-.17,.1-.35,.16-.54,.16Zm-.6-1.64c-.13,.12-.22,.29-.25,.49-.03,.2,.02,.42,.12,.59,.12,.19,.31,.33,.53,.38,.22,.05,.45,.01,.65-.11,.19-.12,.33-.31,.38-.53,.05-.22,.01-.45-.11-.64h0c-.05-.07-.09-.13-.14-.17l-.43,.72c-.03,.05-.09,.08-.15,.08h0c-.06,0-.12-.03-.15-.08l-.45-.71Zm.59,.6l-.54-.86,.12-.06c.25-.12,.56-.12,.82,0l.13,.06-.53,.87Zm-.3-.79l.3,.47,.29-.47c-.19-.07-.4-.07-.58,0Zm-.25-.08l-.32-.5,1.83-.21-.43,.71-.1-.05c-.28-.13-.61-.13-.89,0l-.1,.05Zm-.03-.37l.1,.15c.3-.13,.65-.14,.96,0l.18-.29-1.23,.14Zm-.28-.15l.94-1.55,.84,1.34-1.79,.21Zm.94-1.23l-.62,1.03,1.18-.14-.56-.89Zm-1.84,.87c-.08,0-.15,0-.23-.03-.27-.06-.49-.22-.64-.45-.3-.48-.16-1.11,.32-1.41,.49-.3,1.11-.16,1.41,.32h0c.05,.1,.09,.19,.12,.28l.04,.13-1.02,.12,1.02-.1v.14c0,.33-.18,.64-.48,.84-.17,.11-.35,.16-.55,.16Zm0-1.88c-.16,0-.31,.04-.46,.13-.4,.25-.52,.78-.27,1.18,.25,.4,.78,.52,1.18,.27,.23-.15,.38-.39,.4-.65l-.83,.1s-.09,0-.13-.04c-.04-.03-.06-.07-.07-.12,0-.05,0-.09,.04-.13s.07-.06,.12-.07l.83-.1c-.02-.06-.05-.12-.09-.18h0c-.16-.26-.44-.4-.72-.4Z"/></g><g class="cu"><path class="cd" d="M39.17,41.12c-.12,0-.24,0-.37,0-2.41-.09-4.49-1.1-5.85-2.85h0c-2.8-3.59-1.65-9.19,2.57-12.49,2.04-1.6,4.49-2.42,6.89-2.33,2.41,.09,4.49,1.1,5.85,2.85,1.36,1.74,1.84,4,1.35,6.37-.49,2.35-1.88,4.53-3.92,6.12-1.94,1.51-4.24,2.34-6.52,2.34Zm2.88-17.28c-2.19,0-4.41,.79-6.27,2.25-4.05,3.16-5.17,8.51-2.5,11.93h0c1.29,1.65,3.26,2.6,5.55,2.69,2.31,.09,4.66-.71,6.62-2.24,1.97-1.54,3.31-3.63,3.78-5.89,.47-2.25,.02-4.39-1.27-6.04-1.29-1.65-3.26-2.6-5.55-2.69-.12,0-.23,0-.35,0Z"/><g><g><path class="cd" d="M77.47,39.55c2.66-3.27,1.45-8.79-2.7-12.31-4.15-3.52-9.68-3.73-12.34-.46-2.66,3.27-1.45,8.79,2.69,12.31,4.15,3.52,9.68,3.73,12.34,.46Zm-14.61-12.41c2.48-3.04,7.67-2.81,11.58,.51,3.91,3.32,5.08,8.5,2.6,11.54s-7.67,2.81-11.58-.51c-3.91-3.32-5.08-8.5-2.6-11.54Z"/><path class="cd" d="M78.18,40.25c3.24-3.97,1.99-10.5-2.77-14.54-4.77-4.05-11.27-4.11-14.51-.14-3.23,3.97-1.99,10.5,2.78,14.54,4.77,4.05,11.27,4.11,14.51,.14Zm-16.78-14.25c3.02-3.71,9.12-3.62,13.61,.19,4.49,3.81,5.68,9.92,2.66,13.63-3.02,3.71-9.12,3.62-13.61-.19-4.49-3.81-5.68-9.92-2.66-13.63Z"/></g><g class="by"><g><path class="cr" d="M61.32,25.48c.22-.25,.34-.37,.58-.59,.56,.6,.84,.89,1.4,1.49-.2,.18-.29,.28-.47,.48-.61-.55-.91-.82-1.52-1.37Z"/><path class="cr" d="M62.4,24.47c.27-.2,.4-.3,.69-.47l1.17,1.66c-.23,.14-.34,.22-.56,.38l-1.31-1.57Z"/><path class="cr" d="M60.44,26.68c.17-.29,.26-.43,.46-.7,.64,.51,.96,.76,1.6,1.27-.16,.22-.24,.33-.37,.56-.68-.46-1.01-.68-1.69-1.14Z"/><path class="cr" d="M59.8,28.05c.12-.32,.18-.48,.33-.78,.7,.41,1.05,.62,1.75,1.03-.12,.24-.17,.37-.27,.63-.73-.35-1.09-.52-1.81-.87Z"/><path class="cr" d="M63.67,23.68c.3-.15,.46-.22,.79-.34,.36,.72,.54,1.07,.91,1.79-.26,.1-.39,.15-.63,.27-.42-.69-.64-1.03-1.06-1.72Z"/><path class="cr" d="M59.41,29.54c.06-.35,.09-.52,.18-.85,.74,.3,1.11,.45,1.85,.75-.07,.27-.1,.41-.15,.69-.76-.23-1.13-.35-1.89-.58Z"/><path class="cr" d="M59.31,31.13c0-.37,0-.55,.02-.9,.76,.18,1.14,.27,1.9,.45-.02,.29-.03,.43-.02,.73-.76-.11-1.15-.16-1.91-.27Z"/><path class="cr" d="M59.51,32.79c-.08-.38-.11-.57-.15-.94,.76,.05,1.14,.08,1.9,.13,.03,.3,.06,.45,.12,.76-.75,.02-1.12,.03-1.87,.05Z"/><path class="cr" d="M65.11,23.13c.34-.09,.51-.13,.87-.19,.24,.75,.37,1.12,.61,1.87-.29,.05-.43,.08-.7,.15-.31-.73-.47-1.1-.78-1.83Z"/><path class="cr" d="M66.68,22.86c.37-.03,.55-.03,.93-.02,.12,.75,.17,1.13,.29,1.89-.31,0-.46,0-.75,.02-.19-.75-.28-1.13-.47-1.88Z"/><path class="cr" d="M60.04,34.5c-.16-.39-.22-.58-.34-.96,.73-.08,1.1-.12,1.83-.2,.09,.31,.15,.46,.27,.77-.71,.15-1.06,.23-1.77,.38Z"/><path class="cr" d="M68.36,22.9c.39,.04,.59,.08,.99,.16-.02,.74-.03,1.11-.05,1.84-.32-.07-.48-.1-.8-.13-.06-.75-.09-1.13-.14-1.88Z"/><path class="cr" d="M70.14,23.27c.41,.12,.61,.2,1.03,.36-.16,.69-.24,1.04-.4,1.73-.33-.14-.5-.19-.83-.29,.08-.72,.12-1.08,.2-1.8Z"/><path class="cr" d="M71.99,24c.42,.21,.63,.32,1.06,.58-.31,.62-.46,.93-.77,1.55-.34-.21-.51-.3-.85-.47,.22-.66,.34-1,.56-1.66Z"/><path class="cr" d="M60.92,36.22c-.24-.39-.35-.58-.54-.97,.68-.21,1.02-.32,1.7-.53,.15,.31,.24,.47,.43,.78-.64,.29-.96,.43-1.6,.72Z"/><path class="cr" d="M62.17,37.93c-.33-.38-.48-.57-.75-.95,.6-.35,.9-.52,1.5-.87,.22,.31,.34,.46,.61,.77-.54,.42-.81,.63-1.35,1.05Z"/></g></g></g><path class="cd" d="M54.95,17.48h-.11v-.56h.11c.4,0,.79-.03,1.18-.1l.09,.55c-.42,.07-.85,.11-1.28,.11Zm-1.26-.1c-.45-.08-.91-.19-1.34-.35l.19-.52c.41,.15,.82,.26,1.25,.33l-.09,.55Zm3.66-.28l-.17-.53c.4-.13,.8-.3,1.18-.51l.26,.49c-.41,.22-.84,.4-1.27,.55Zm-6.05-.54c-.4-.22-.79-.47-1.16-.75l.34-.44c.34,.27,.71,.5,1.08,.7l-.26,.49Zm8.3-.62l-.33-.45c.34-.25,.67-.54,.98-.85l.4,.39c-.32,.33-.68,.64-1.04,.91Zm-10.32-.89c-.32-.32-.62-.68-.89-1.05l.45-.33c.25,.35,.54,.69,.84,.99l-.4,.39Zm12.12-.88l-.44-.34c.26-.34,.5-.71,.71-1.09l.49,.27c-.22,.4-.47,.79-.75,1.16Zm-13.62-1.14c-.22-.4-.41-.82-.58-1.25l.52-.2c.15,.41,.34,.8,.54,1.18l-.49,.27Zm14.86-1.05l-.51-.21c.16-.4,.3-.81,.4-1.24l.54,.13c-.11,.45-.25,.89-.43,1.31Zm-15.79-1.29c-.11-.44-.19-.9-.24-1.35l.55-.06c.05,.43,.13,.86,.23,1.28l-.54,.14Zm16.43-1.14l-.55-.07c.06-.43,.09-.86,.09-1.3l.56-.04v.04c0,.46-.03,.92-.09,1.37Zm-16.6-1.36h-.13c0-.47,.03-.92,.09-1.37l.55,.07c-.06,.42-.08,.85-.08,1.28h-.42Zm16.07-1.12c-.05-.43-.13-.86-.23-1.28l.54-.14c.11,.44,.2,.9,.25,1.35l-.55,.06Zm-15.37-1.23l-.54-.13c.11-.45,.25-.89,.42-1.31l.52,.21c-.16,.4-.29,.82-.4,1.24Zm14.81-1.08c-.15-.41-.34-.8-.55-1.18l.49-.27c.22,.4,.42,.82,.58,1.25l-.52,.2Zm-13.95-1.13l-.49-.27c.22-.4,.47-.79,.75-1.16l.44,.33c-.26,.34-.5,.71-.7,1.09Zm12.82-.96c-.26-.35-.54-.68-.84-.99l.39-.39c.32,.32,.62,.68,.89,1.05l-.45,.33Zm-11.41-.95l-.4-.39c.32-.33,.68-.64,1.04-.91l.33,.45c-.34,.25-.67,.54-.97,.85Zm9.77-.75c-.34-.26-.71-.5-1.08-.7l.26-.49c.4,.21,.79,.47,1.16,.75l-.34,.44Zm-7.88-.68l-.26-.49c.41-.22,.84-.41,1.27-.55l.17,.53c-.4,.13-.8,.31-1.18,.51Zm5.82-.46c-.41-.14-.82-.25-1.25-.32l.09-.55c.45,.07,.91,.19,1.34,.35l-.19,.52Zm-3.6-.31l-.09-.55c.42-.07,.86-.11,1.29-.11h.09V-.61h-.09c-.4,0-.81,.03-1.2,.1Z"/></g></g></g></g></svg>