<?xml version="1.0" encoding="UTF-8"?><svg xmlns="http://www.w3.org/2000/svg" viewBox="0 0 34.86 34.86"><defs><style>.d{fill:#fff;}.e{fill:#004054;}</style></defs><g id="a"/><g id="b"><g id="c"><rect class="d" width="34.86" height="34.86"/><g><rect class="e" x="2.48" y="2.84" width="1.02" height="2.04"/><rect class="e" x="2.48" y="4.88" width="1.02" height="2.04"/><rect class="e" x="2.48" y="6.93" width="1.02" height="3.06"/><rect class="e" x="2.48" y="11.01" width="1.02" height="2.04"/><rect class="e" x="2.48" y="14.08" width="1.02" height="2.04"/><rect class="e" x="2.48" y="18.16" width="1.02" height="2.04"/><rect class="e" x="2.48" y="21.23" width="1.02" height="1.02"/><rect class="e" x="2.48" y="25.32" width="1.02" height="7.15"/><rect class="e" x="3.5" y="2.84" width="1.02" height="1.02"/><rect class="e" x="3.5" y="8.97" width="1.02" height="1.02"/><rect class="e" x="3.5" y="13.06" width="1.02" height="1.02"/><rect class="e" x="3.5" y="16.12" width="1.02" height="3.06"/><rect class="e" x="3.5" y="20.21" width="1.02" height="1.02"/><rect class="e" x="3.5" y="23.27" width="1.02" height="1.02"/><rect class="e" x="3.5" y="25.32" width="1.02" height="1.02"/><rect class="e" x="3.5" y="31.45" width="1.02" height="1.02"/><rect class="e" x="4.53" y="2.84" width="1.02" height="1.02"/><rect class="e" x="4.53" y="4.88" width="1.02" height="2.04"/><rect class="e" x="4.53" y="6.93" width="1.02" height="1.02"/><rect class="e" x="4.53" y="8.97" width="1.02" height="1.02"/><rect class="e" x="4.53" y="11.01" width="1.02" height="2.04"/><rect class="e" x="4.53" y="15.1" width="1.02" height="1.02"/><rect class="e" x="4.53" y="21.23" width="1.02" height="1.02"/><rect class="e" x="4.53" y="23.27" width="1.02" height="1.02"/><rect class="e" x="4.53" y="25.32" width="1.02" height="1.02"/><rect class="e" x="4.53" y="27.36" width="1.02" height="3.06"/><rect class="e" x="4.53" y="31.45" width="1.02" height="1.02"/><rect class="e" x="5.55" y="2.84" width="1.02" height="1.02"/><rect class="e" x="5.55" y="4.88" width="1.02" height="2.04"/><rect class="e" x="5.55" y="6.93" width="1.02" height="1.02"/><rect class="e" x="5.55" y="8.97" width="1.02" height="1.02"/><rect class="e" x="5.55" y="11.01" width="1.02" height="2.04"/><rect class="e" x="5.55" y="14.08" width="1.02" height="2.04"/><rect class="e" x="5.55" y="19.19" width="1.02" height="1.02"/><rect class="e" x="5.55" y="21.23" width="1.02" height="3.06"/><rect class="e" x="5.55" y="25.32" width="1.02" height="1.02"/><rect class="e" x="5.55" y="27.36" width="1.02" height="3.06"/><rect class="e" x="5.55" y="31.45" width="1.02" height="1.02"/><rect class="e" x="6.57" y="2.84" width="1.02" height="1.02"/><rect class="e" x="6.57" y="4.88" width="1.02" height="2.04"/><rect class="e" x="6.57" y="6.93" width="1.02" height="1.02"/><rect class="e" x="6.57" y="8.97" width="1.02" height="1.02"/><rect class="e" x="6.57" y="12.04" width="1.02" height="1.02"/><rect class="e" x="6.57" y="16.12" width="1.02" height="2.04"/><rect class="e" x="6.57" y="19.19" width="1.02" height="1.02"/><rect class="e" x="6.57" y="22.25" width="1.02" height="1.02"/><rect class="e" x="6.57" y="25.32" width="1.02" height="1.02"/><rect class="e" x="6.57" y="27.36" width="1.02" height="3.06"/><rect class="e" x="6.57" y="31.45" width="1.02" height="1.02"/><rect class="e" x="7.59" y="2.84" width="1.02" height="1.02"/><rect class="e" x="7.59" y="8.97" width="1.02" height="1.02"/><rect class="e" x="7.59" y="11.01" width="1.02" height="3.06"/><rect class="e" x="7.59" y="15.1" width="1.02" height="1.02"/><rect class="e" x="7.59" y="19.19" width="1.02" height="1.02"/><rect class="e" x="7.59" y="22.25" width="1.02" height="2.04"/><rect class="e" x="7.59" y="25.32" width="1.02" height="1.02"/><rect class="e" x="7.59" y="31.45" width="1.02" height="1.02"/><rect class="e" x="8.61" y="2.84" width="1.02" height="2.04"/><rect class="e" x="8.61" y="4.88" width="1.02" height="2.04"/><rect class="e" x="8.61" y="6.93" width="1.02" height="3.06"/><rect class="e" x="8.61" y="11.01" width="1.02" height="1.02"/><rect class="e" x="8.61" y="13.06" width="1.02" height="1.02"/><rect class="e" x="8.61" y="15.1" width="1.02" height="1.02"/><rect class="e" x="8.61" y="17.14" width="1.02" height="1.02"/><rect class="e" x="8.61" y="19.19" width="1.02" height="1.02"/><rect class="e" x="8.61" y="21.23" width="1.02" height="1.02"/><rect class="e" x="8.61" y="23.27" width="1.02" height="1.02"/><rect class="e" x="8.61" y="25.32" width="1.02" height="7.15"/><rect class="e" x="9.63" y="11.01" width="1.02" height="1.02"/><rect class="e" x="9.63" y="13.06" width="1.02" height="1.02"/><rect class="e" x="9.63" y="15.1" width="1.02" height="1.02"/><rect class="e" x="9.63" y="17.14" width="1.02" height="1.02"/><rect class="e" x="9.63" y="20.21" width="1.02" height="1.02"/><rect class="e" x="9.63" y="23.27" width="1.02" height="1.02"/><rect class="e" x="10.66" y="2.84" width="1.02" height="2.04"/><rect class="e" x="10.66" y="5.91" width="1.02" height="1.02"/><rect class="e" x="10.66" y="8.97" width="1.02" height="2.04"/><rect class="e" x="10.66" y="13.06" width="1.02" height="1.02"/><rect class="e" x="10.66" y="15.1" width="1.02" height="3.06"/><rect class="e" x="10.66" y="20.21" width="1.02" height="2.04"/><rect class="e" x="10.66" y="23.27" width="1.02" height="4.09"/><rect class="e" x="10.66" y="28.38" width="1.02" height="2.04"/><rect class="e" x="10.66" y="31.45" width="1.02" height="1.02"/><rect class="e" x="11.68" y="2.84" width="1.02" height="1.02"/><rect class="e" x="11.68" y="4.88" width="1.02" height="1.02"/><rect class="e" x="11.68" y="6.93" width="1.02" height="2.04"/><rect class="e" x="11.68" y="11.01" width="1.02" height="1.02"/><rect class="e" x="11.68" y="14.08" width="1.02" height="1.02"/><rect class="e" x="11.68" y="16.12" width="1.02" height="1.02"/><rect class="e" x="11.68" y="18.16" width="1.02" height="1.02"/><rect class="e" x="11.68" y="20.21" width="1.02" height="2.04"/><rect class="e" x="11.68" y="23.27" width="1.02" height="2.04"/><rect class="e" x="11.68" y="28.38" width="1.02" height="1.02"/><rect class="e" x="11.68" y="30.42" width="1.02" height="1.02"/><rect class="e" x="12.7" y="2.84" width="1.02" height="2.04"/><rect class="e" x="12.7" y="5.91" width="1.02" height="1.02"/><rect class="e" x="12.7" y="6.93" width="1.02" height="1.02"/><rect class="e" x="12.7" y="8.97" width="1.02" height="1.02"/><rect class="e" x="12.7" y="12.04" width="1.02" height="2.04"/><rect class="e" x="12.7" y="16.12" width="1.02" height="1.02"/><rect class="e" x="12.7" y="18.16" width="1.02" height="1.02"/><rect class="e" x="12.7" y="22.25" width="1.02" height="1.02"/><rect class="e" x="12.7" y="24.29" width="1.02" height="2.04"/><rect class="e" x="12.7" y="27.36" width="1.02" height="1.02"/><rect class="e" x="12.7" y="29.4" width="1.02" height="1.02"/><rect class="e" x="13.72" y="4.88" width="1.02" height="2.04"/><rect class="e" x="13.72" y="11.01" width="1.02" height="3.06"/><rect class="e" x="13.72" y="15.1" width="1.02" height="1.02"/><rect class="e" x="13.72" y="18.16" width="1.02" height="1.02"/><rect class="e" x="13.72" y="20.21" width="1.02" height="3.06"/><rect class="e" x="13.72" y="24.29" width="1.02" height="1.02"/><rect class="e" x="13.72" y="26.34" width="1.02" height="1.02"/><rect class="e" x="13.72" y="28.38" width="1.02" height="1.02"/><rect class="e" x="13.72" y="31.45" width="1.02" height="1.02"/><rect class="e" x="14.74" y="3.86" width="1.02" height="1.02"/><rect class="e" x="14.74" y="4.88" width="1.02" height="1.02"/><rect class="e" x="14.74" y="6.93" width="1.02" height="1.02"/><rect class="e" x="14.74" y="8.97" width="1.02" height="1.02"/><rect class="e" x="14.74" y="11.01" width="1.02" height="2.04"/><rect class="e" x="14.74" y="14.08" width="1.02" height="1.02"/><rect class="e" x="14.74" y="16.12" width="1.02" height="3.06"/><rect class="e" x="14.74" y="20.21" width="1.02" height="1.02"/><rect class="e" x="14.74" y="22.25" width="1.02" height="1.02"/><rect class="e" x="14.74" y="25.32" width="1.02" height="1.02"/><rect class="e" x="14.74" y="27.36" width="1.02" height="2.04"/><rect class="e" x="14.74" y="30.42" width="1.02" height="2.04"/><rect class="e" x="15.76" y="2.84" width="1.02" height="2.04"/><rect class="e" x="15.76" y="7.95" width="1.02" height="1.02"/><rect class="e" x="15.76" y="11.01" width="1.02" height="3.06"/><rect class="e" x="15.76" y="17.14" width="1.02" height="1.02"/><rect class="e" x="15.76" y="21.23" width="1.02" height="3.06"/><rect class="e" x="15.76" y="26.34" width="1.02" height="1.02"/><rect class="e" x="15.76" y="28.38" width="1.02" height="2.04"/><rect class="e" x="15.76" y="31.45" width="1.02" height="1.02"/><rect class="e" x="16.79" y="2.84" width="1.02" height="1.02"/><rect class="e" x="16.79" y="5.91" width="1.02" height="1.02"/><rect class="e" x="16.79" y="6.93" width="1.02" height="1.02"/><rect class="e" x="16.79" y="8.97" width="1.02" height="1.02"/><rect class="e" x="16.79" y="12.04" width="1.02" height="1.02"/><rect class="e" x="16.79" y="15.1" width="1.02" height="2.04"/><rect class="e" x="16.79" y="18.16" width="1.02" height="6.13"/><rect class="e" x="16.79" y="25.32" width="1.02" height="2.04"/><rect class="e" x="16.79" y="30.42" width="1.02" height="1.02"/><rect class="e" x="17.81" y="2.84" width="1.02" height="1.02"/><rect class="e" x="17.81" y="5.91" width="1.02" height="1.02"/><rect class="e" x="17.81" y="7.95" width="1.02" height="1.02"/><rect class="e" x="17.81" y="9.99" width="1.02" height="3.06"/><rect class="e" x="17.81" y="15.1" width="1.02" height="1.02"/><rect class="e" x="17.81" y="17.14" width="1.02" height="1.02"/><rect class="e" x="17.81" y="19.19" width="1.02" height="1.02"/><rect class="e" x="17.81" y="21.23" width="1.02" height="1.02"/><rect class="e" x="17.81" y="24.29" width="1.02" height="3.06"/><rect class="e" x="17.81" y="30.42" width="1.02" height="1.02"/><rect class="e" x="18.83" y="3.86" width="1.02" height="1.02"/><rect class="e" x="18.83" y="4.88" width="1.02" height="1.02"/><rect class="e" x="18.83" y="6.93" width="1.02" height="4.09"/><rect class="e" x="18.83" y="13.06" width="1.02" height="2.04"/><rect class="e" x="18.83" y="16.12" width="1.02" height="6.13"/><rect class="e" x="18.83" y="23.27" width="1.02" height="2.04"/><rect class="e" x="18.83" y="27.36" width="1.02" height="1.02"/><rect class="e" x="19.85" y="5.91" width="1.02" height="1.02"/><rect class="e" x="19.85" y="7.95" width="1.02" height="1.02"/><rect class="e" x="19.85" y="9.99" width="1.02" height="3.06"/><rect class="e" x="19.85" y="15.1" width="1.02" height="3.06"/><rect class="e" x="19.85" y="21.23" width="1.02" height="4.09"/><rect class="e" x="19.85" y="29.4" width="1.02" height="3.06"/><rect class="e" x="20.87" y="2.84" width="1.02" height="2.04"/><rect class="e" x="20.87" y="5.91" width="1.02" height="1.02"/><rect class="e" x="20.87" y="7.95" width="1.02" height="2.04"/><rect class="e" x="20.87" y="11.01" width="1.02" height="4.09"/><rect class="e" x="20.87" y="16.12" width="1.02" height="1.02"/><rect class="e" x="20.87" y="18.16" width="1.02" height="2.04"/><rect class="e" x="20.87" y="22.25" width="1.02" height="1.02"/><rect class="e" x="20.87" y="24.29" width="1.02" height="4.09"/><rect class="e" x="20.87" y="29.4" width="1.02" height="3.06"/><rect class="e" x="21.89" y="2.84" width="1.02" height="1.02"/><rect class="e" x="21.89" y="4.88" width="1.02" height="1.02"/><rect class="e" x="21.89" y="6.93" width="1.02" height="2.04"/><rect class="e" x="21.89" y="12.04" width="1.02" height="1.02"/><rect class="e" x="21.89" y="14.08" width="1.02" height="1.02"/><rect class="e" x="21.89" y="16.12" width="1.02" height="3.06"/><rect class="e" x="21.89" y="22.25" width="1.02" height="4.09"/><rect class="e" x="21.89" y="28.38" width="1.02" height="1.02"/><rect class="e" x="21.89" y="31.45" width="1.02" height="1.02"/><rect class="e" x="22.92" y="2.84" width="1.02" height="2.04"/><rect class="e" x="22.92" y="4.88" width="1.02" height="2.04"/><rect class="e" x="22.92" y="7.95" width="1.02" height="5.11"/><rect class="e" x="22.92" y="14.08" width="1.02" height="1.02"/><rect class="e" x="22.92" y="17.14" width="1.02" height="1.02"/><rect class="e" x="22.92" y="20.21" width="1.02" height="1.02"/><rect class="e" x="22.92" y="22.25" width="1.02" height="7.15"/><rect class="e" x="22.92" y="30.42" width="1.02" height="2.04"/><rect class="e" x="23.94" y="19.19" width="1.02" height="1.02"/><rect class="e" x="23.94" y="23.27" width="1.02" height="1.02"/><rect class="e" x="23.94" y="27.36" width="1.02" height="2.04"/><rect class="e" x="23.94" y="30.42" width="1.02" height="1.02"/><rect class="e" x="24.96" y="2.84" width="1.02" height="2.04"/><rect class="e" x="24.96" y="4.88" width="1.02" height="2.04"/><rect class="e" x="24.96" y="6.93" width="1.02" height="3.06"/><rect class="e" x="24.96" y="11.01" width="1.02" height="2.04"/><rect class="e" x="24.96" y="16.12" width="1.02" height="2.04"/><rect class="e" x="24.96" y="21.23" width="1.02" height="1.02"/><rect class="e" x="24.96" y="23.27" width="1.02" height="1.02"/><rect class="e" x="24.96" y="25.32" width="1.02" height="1.02"/><rect class="e" x="24.96" y="27.36" width="1.02" height="1.02"/><rect class="e" x="24.96" y="30.42" width="1.02" height="2.04"/><rect class="e" x="25.98" y="2.84" width="1.02" height="1.02"/><rect class="e" x="25.98" y="8.97" width="1.02" height="1.02"/><rect class="e" x="25.98" y="12.04" width="1.02" height="4.09"/><rect class="e" x="25.98" y="18.16" width="1.02" height="4.09"/><rect class="e" x="25.98" y="23.27" width="1.02" height="1.02"/><rect class="e" x="25.98" y="27.36" width="1.02" height="5.11"/><rect class="e" x="27" y="2.84" width="1.02" height="1.02"/><rect class="e" x="27" y="4.88" width="1.02" height="2.04"/><rect class="e" x="27" y="6.93" width="1.02" height="1.02"/><rect class="e" x="27" y="8.97" width="1.02" height="1.02"/><rect class="e" x="27" y="12.04" width="1.02" height="1.02"/><rect class="e" x="27" y="17.14" width="1.02" height="1.02"/><rect class="e" x="27" y="19.19" width="1.02" height="1.02"/><rect class="e" x="27" y="21.23" width="1.02" height="1.02"/><rect class="e" x="27" y="23.27" width="1.02" height="6.13"/><rect class="e" x="28.02" y="2.84" width="1.02" height="1.02"/><rect class="e" x="28.02" y="4.88" width="1.02" height="2.04"/><rect class="e" x="28.02" y="6.93" width="1.02" height="1.02"/><rect class="e" x="28.02" y="8.97" width="1.02" height="1.02"/><rect class="e" x="28.02" y="11.01" width="1.02" height="1.02"/><rect class="e" x="28.02" y="15.1" width="1.02" height="1.02"/><rect class="e" x="28.02" y="19.19" width="1.02" height="2.04"/><rect class="e" x="28.02" y="23.27" width="1.02" height="4.09"/><rect class="e" x="28.02" y="28.38" width="1.02" height="1.02"/><rect class="e" x="28.02" y="30.42" width="1.02" height="1.02"/><rect class="e" x="29.05" y="2.84" width="1.02" height="1.02"/><rect class="e" x="29.05" y="4.88" width="1.02" height="2.04"/><rect class="e" x="29.05" y="6.93" width="1.02" height="1.02"/><rect class="e" x="29.05" y="8.97" width="1.02" height="1.02"/><rect class="e" x="29.05" y="13.06" width="1.02" height="1.02"/><rect class="e" x="29.05" y="15.1" width="1.02" height="3.06"/><rect class="e" x="29.05" y="20.21" width="1.02" height="5.11"/><rect class="e" x="29.05" y="27.36" width="1.02" height="1.02"/><rect class="e" x="29.05" y="29.4" width="1.02" height="1.02"/><rect class="e" x="30.07" y="2.84" width="1.02" height="1.02"/><rect class="e" x="30.07" y="8.97" width="1.02" height="1.02"/><rect class="e" x="30.07" y="11.01" width="1.02" height="1.02"/><rect class="e" x="30.07" y="13.06" width="1.02" height="1.02"/><rect class="e" x="30.07" y="16.12" width="1.02" height="5.11"/><rect class="e" x="30.07" y="24.29" width="1.02" height="2.04"/><rect class="e" x="30.07" y="28.38" width="1.02" height="1.02"/><rect class="e" x="30.07" y="30.42" width="1.02" height="2.04"/><rect class="e" x="31.09" y="2.84" width="1.02" height="2.04"/><rect class="e" x="31.09" y="4.88" width="1.02" height="2.04"/><rect class="e" x="31.09" y="6.93" width="1.02" height="3.06"/><rect class="e" x="31.09" y="11.01" width="1.02" height="2.04"/><rect class="e" x="31.09" y="14.08" width="1.02" height="1.02"/><rect class="e" x="31.09" y="16.12" width="1.02" height="2.04"/><rect class="e" x="31.09" y="24.29" width="1.02" height="1.02"/><rect class="e" x="31.09" y="26.34" width="1.02" height="2.04"/><rect class="e" x="31.09" y="29.4" width="1.02" height="1.02"/></g></g></g></svg>