<?xml version="1.0" encoding="UTF-8"?><svg xmlns="http://www.w3.org/2000/svg" viewBox="0 0 34.86 34.86"><defs><style>.d{fill:#fff;}.e{fill:#004054;}</style></defs><g id="a"/><g id="b"><g id="c"><rect class="d" width="34.86" height="34.86"/><g><rect class="e" x="2.62" y="2.68" width="1.02" height="2.04"/><rect class="e" x="2.62" y="4.73" width="1.02" height="2.04"/><rect class="e" x="2.62" y="6.77" width="1.02" height="3.06"/><rect class="e" x="2.62" y="10.86" width="1.02" height="3.06"/><rect class="e" x="2.62" y="14.94" width="1.02" height="2.04"/><rect class="e" x="2.62" y="18.01" width="1.02" height="2.04"/><rect class="e" x="2.62" y="21.07" width="1.02" height="1.02"/><rect class="e" x="2.62" y="25.16" width="1.02" height="7.15"/><rect class="e" x="3.64" y="2.68" width="1.02" height="1.02"/><rect class="e" x="3.64" y="8.81" width="1.02" height="1.02"/><rect class="e" x="3.64" y="12.9" width="1.02" height="1.02"/><rect class="e" x="3.64" y="15.97" width="1.02" height="1.02"/><rect class="e" x="3.64" y="18.01" width="1.02" height="2.04"/><rect class="e" x="3.64" y="23.12" width="1.02" height="1.02"/><rect class="e" x="3.64" y="25.16" width="1.02" height="1.02"/><rect class="e" x="3.64" y="31.29" width="1.02" height="1.02"/><rect class="e" x="4.66" y="2.68" width="1.02" height="1.02"/><rect class="e" x="4.66" y="4.73" width="1.02" height="2.04"/><rect class="e" x="4.66" y="6.77" width="1.02" height="1.02"/><rect class="e" x="4.66" y="8.81" width="1.02" height="1.02"/><rect class="e" x="4.66" y="10.86" width="1.02" height="4.09"/><rect class="e" x="4.66" y="15.97" width="1.02" height="3.06"/><rect class="e" x="4.66" y="22.1" width="1.02" height="1.02"/><rect class="e" x="4.66" y="25.16" width="1.02" height="1.02"/><rect class="e" x="4.66" y="27.2" width="1.02" height="3.06"/><rect class="e" x="4.66" y="31.29" width="1.02" height="1.02"/><rect class="e" x="5.68" y="2.68" width="1.02" height="1.02"/><rect class="e" x="5.68" y="4.73" width="1.02" height="2.04"/><rect class="e" x="5.68" y="6.77" width="1.02" height="1.02"/><rect class="e" x="5.68" y="8.81" width="1.02" height="1.02"/><rect class="e" x="5.68" y="10.86" width="1.02" height="2.04"/><rect class="e" x="5.68" y="14.94" width="1.02" height="1.02"/><rect class="e" x="5.68" y="16.99" width="1.02" height="4.09"/><rect class="e" x="5.68" y="22.1" width="1.02" height="1.02"/><rect class="e" x="5.68" y="25.16" width="1.02" height="1.02"/><rect class="e" x="5.68" y="27.2" width="1.02" height="3.06"/><rect class="e" x="5.68" y="31.29" width="1.02" height="1.02"/><rect class="e" x="6.7" y="2.68" width="1.02" height="1.02"/><rect class="e" x="6.7" y="4.73" width="1.02" height="2.04"/><rect class="e" x="6.7" y="6.77" width="1.02" height="1.02"/><rect class="e" x="6.7" y="8.81" width="1.02" height="1.02"/><rect class="e" x="6.7" y="11.88" width="1.02" height="1.02"/><rect class="e" x="6.7" y="13.92" width="1.02" height="1.02"/><rect class="e" x="6.7" y="15.97" width="1.02" height="1.02"/><rect class="e" x="6.7" y="22.1" width="1.02" height="2.04"/><rect class="e" x="6.7" y="25.16" width="1.02" height="1.02"/><rect class="e" x="6.7" y="27.2" width="1.02" height="3.06"/><rect class="e" x="6.7" y="31.29" width="1.02" height="1.02"/><rect class="e" x="7.72" y="2.68" width="1.02" height="1.02"/><rect class="e" x="7.72" y="8.81" width="1.02" height="1.02"/><rect class="e" x="7.72" y="10.86" width="1.02" height="1.02"/><rect class="e" x="7.72" y="12.9" width="1.02" height="2.04"/><rect class="e" x="7.72" y="15.97" width="1.02" height="1.02"/><rect class="e" x="7.72" y="19.03" width="1.02" height="2.04"/><rect class="e" x="7.72" y="22.1" width="1.02" height="1.02"/><rect class="e" x="7.72" y="25.16" width="1.02" height="1.02"/><rect class="e" x="7.72" y="31.29" width="1.02" height="1.02"/><rect class="e" x="8.75" y="2.68" width="1.02" height="2.04"/><rect class="e" x="8.75" y="4.73" width="1.02" height="2.04"/><rect class="e" x="8.75" y="6.77" width="1.02" height="3.06"/><rect class="e" x="8.75" y="10.86" width="1.02" height="1.02"/><rect class="e" x="8.75" y="12.9" width="1.02" height="1.02"/><rect class="e" x="8.75" y="14.94" width="1.02" height="1.02"/><rect class="e" x="8.75" y="16.99" width="1.02" height="1.02"/><rect class="e" x="8.75" y="19.03" width="1.02" height="1.02"/><rect class="e" x="8.75" y="21.07" width="1.02" height="1.02"/><rect class="e" x="8.75" y="23.12" width="1.02" height="1.02"/><rect class="e" x="8.75" y="25.16" width="1.02" height="7.15"/><rect class="e" x="9.77" y="10.86" width="1.02" height="2.04"/><rect class="e" x="9.77" y="13.92" width="1.02" height="4.09"/><rect class="e" x="9.77" y="21.07" width="1.02" height="3.06"/><rect class="e" x="10.79" y="2.68" width="1.02" height="2.04"/><rect class="e" x="10.79" y="5.75" width="1.02" height="1.02"/><rect class="e" x="10.79" y="8.81" width="1.02" height="2.04"/><rect class="e" x="10.79" y="11.88" width="1.02" height="1.02"/><rect class="e" x="10.79" y="13.92" width="1.02" height="1.02"/><rect class="e" x="10.79" y="15.97" width="1.02" height="1.02"/><rect class="e" x="10.79" y="19.03" width="1.02" height="2.04"/><rect class="e" x="10.79" y="22.1" width="1.02" height="1.02"/><rect class="e" x="10.79" y="24.14" width="1.02" height="3.06"/><rect class="e" x="10.79" y="28.23" width="1.02" height="2.04"/><rect class="e" x="10.79" y="31.29" width="1.02" height="1.02"/><rect class="e" x="11.81" y="2.68" width="1.02" height="2.04"/><rect class="e" x="11.81" y="6.77" width="1.02" height="2.04"/><rect class="e" x="11.81" y="9.84" width="1.02" height="1.02"/><rect class="e" x="11.81" y="15.97" width="1.02" height="1.02"/><rect class="e" x="11.81" y="18.01" width="1.02" height="1.02"/><rect class="e" x="11.81" y="21.07" width="1.02" height="3.06"/><rect class="e" x="11.81" y="25.16" width="1.02" height="1.02"/><rect class="e" x="11.81" y="27.2" width="1.02" height="2.04"/><rect class="e" x="11.81" y="30.27" width="1.02" height="1.02"/><rect class="e" x="12.83" y="3.71" width="1.02" height="1.02"/><rect class="e" x="12.83" y="4.73" width="1.02" height="2.04"/><rect class="e" x="12.83" y="7.79" width="1.02" height="3.06"/><rect class="e" x="12.83" y="11.88" width="1.02" height="3.06"/><rect class="e" x="12.83" y="18.01" width="1.02" height="4.09"/><rect class="e" x="12.83" y="23.12" width="1.02" height="1.02"/><rect class="e" x="12.83" y="25.16" width="1.02" height="1.02"/><rect class="e" x="12.83" y="28.23" width="1.02" height="1.02"/><rect class="e" x="13.85" y="3.71" width="1.02" height="1.02"/><rect class="e" x="13.85" y="5.75" width="1.02" height="1.02"/><rect class="e" x="13.85" y="6.77" width="1.02" height="2.04"/><rect class="e" x="13.85" y="9.84" width="1.02" height="1.02"/><rect class="e" x="13.85" y="12.9" width="1.02" height="2.04"/><rect class="e" x="13.85" y="15.97" width="1.02" height="4.09"/><rect class="e" x="13.85" y="21.07" width="1.02" height="2.04"/><rect class="e" x="13.85" y="24.14" width="1.02" height="3.06"/><rect class="e" x="13.85" y="28.23" width="1.02" height="1.02"/><rect class="e" x="13.85" y="30.27" width="1.02" height="2.04"/><rect class="e" x="14.88" y="6.77" width="1.02" height="1.02"/><rect class="e" x="14.88" y="8.81" width="1.02" height="2.04"/><rect class="e" x="14.88" y="12.9" width="1.02" height="1.02"/><rect class="e" x="14.88" y="14.94" width="1.02" height="5.11"/><rect class="e" x="14.88" y="24.14" width="1.02" height="2.04"/><rect class="e" x="14.88" y="29.25" width="1.02" height="3.06"/><rect class="e" x="15.9" y="2.68" width="1.02" height="2.04"/><rect class="e" x="15.9" y="5.75" width="1.02" height="1.02"/><rect class="e" x="15.9" y="6.77" width="1.02" height="2.04"/><rect class="e" x="15.9" y="12.9" width="1.02" height="2.04"/><rect class="e" x="15.9" y="16.99" width="1.02" height="1.02"/><rect class="e" x="15.9" y="21.07" width="1.02" height="3.06"/><rect class="e" x="15.9" y="26.18" width="1.02" height="1.02"/><rect class="e" x="16.92" y="4.73" width="1.02" height="2.04"/><rect class="e" x="16.92" y="6.77" width="1.02" height="3.06"/><rect class="e" x="16.92" y="10.86" width="1.02" height="1.02"/><rect class="e" x="16.92" y="13.92" width="1.02" height="1.02"/><rect class="e" x="16.92" y="15.97" width="1.02" height="1.02"/><rect class="e" x="16.92" y="19.03" width="1.02" height="1.02"/><rect class="e" x="16.92" y="21.07" width="1.02" height="3.06"/><rect class="e" x="16.92" y="25.16" width="1.02" height="2.04"/><rect class="e" x="16.92" y="29.25" width="1.02" height="3.06"/><rect class="e" x="17.94" y="5.75" width="1.02" height="1.02"/><rect class="e" x="17.94" y="6.77" width="1.02" height="2.04"/><rect class="e" x="17.94" y="10.86" width="1.02" height="5.11"/><rect class="e" x="17.94" y="18.01" width="1.02" height="1.02"/><rect class="e" x="17.94" y="20.05" width="1.02" height="3.06"/><rect class="e" x="17.94" y="27.2" width="1.02" height="2.04"/><rect class="e" x="17.94" y="30.27" width="1.02" height="1.02"/><rect class="e" x="18.96" y="2.68" width="1.02" height="1.02"/><rect class="e" x="18.96" y="4.73" width="1.02" height="2.04"/><rect class="e" x="18.96" y="7.79" width="1.02" height="3.06"/><rect class="e" x="18.96" y="12.9" width="1.02" height="1.02"/><rect class="e" x="18.96" y="15.97" width="1.02" height="2.04"/><rect class="e" x="18.96" y="20.05" width="1.02" height="2.04"/><rect class="e" x="18.96" y="24.14" width="1.02" height="2.04"/><rect class="e" x="18.96" y="28.23" width="1.02" height="1.02"/><rect class="e" x="18.96" y="30.27" width="1.02" height="1.02"/><rect class="e" x="19.98" y="5.75" width="1.02" height="1.02"/><rect class="e" x="19.98" y="7.79" width="1.02" height="1.02"/><rect class="e" x="19.98" y="9.84" width="1.02" height="4.09"/><rect class="e" x="19.98" y="14.94" width="1.02" height="1.02"/><rect class="e" x="19.98" y="20.05" width="1.02" height="1.02"/><rect class="e" x="19.98" y="22.1" width="1.02" height="2.04"/><rect class="e" x="19.98" y="25.16" width="1.02" height="1.02"/><rect class="e" x="19.98" y="27.2" width="1.02" height="2.04"/><rect class="e" x="21.01" y="2.68" width="1.02" height="1.02"/><rect class="e" x="21.01" y="4.73" width="1.02" height="1.02"/><rect class="e" x="21.01" y="7.79" width="1.02" height="7.15"/><rect class="e" x="21.01" y="16.99" width="1.02" height="1.02"/><rect class="e" x="21.01" y="19.03" width="1.02" height="1.02"/><rect class="e" x="21.01" y="21.07" width="1.02" height="3.06"/><rect class="e" x="21.01" y="25.16" width="1.02" height="1.02"/><rect class="e" x="21.01" y="28.23" width="1.02" height="4.09"/><rect class="e" x="22.03" y="5.75" width="1.02" height="1.02"/><rect class="e" x="22.03" y="6.77" width="1.02" height="2.04"/><rect class="e" x="22.03" y="9.84" width="1.02" height="3.06"/><rect class="e" x="22.03" y="15.97" width="1.02" height="4.09"/><rect class="e" x="22.03" y="22.1" width="1.02" height="1.02"/><rect class="e" x="22.03" y="25.16" width="1.02" height="2.04"/><rect class="e" x="22.03" y="28.23" width="1.02" height="2.04"/><rect class="e" x="22.03" y="31.29" width="1.02" height="1.02"/><rect class="e" x="23.05" y="2.68" width="1.02" height="1.02"/><rect class="e" x="23.05" y="4.73" width="1.02" height="1.02"/><rect class="e" x="23.05" y="6.77" width="1.02" height="3.06"/><rect class="e" x="23.05" y="11.88" width="1.02" height="2.04"/><rect class="e" x="23.05" y="14.94" width="1.02" height="1.02"/><rect class="e" x="23.05" y="16.99" width="1.02" height="4.09"/><rect class="e" x="23.05" y="23.12" width="1.02" height="5.11"/><rect class="e" x="23.05" y="30.27" width="1.02" height="2.04"/><rect class="e" x="24.07" y="11.88" width="1.02" height="2.04"/><rect class="e" x="24.07" y="15.97" width="1.02" height="6.13"/><rect class="e" x="24.07" y="23.12" width="1.02" height="1.02"/><rect class="e" x="24.07" y="27.2" width="1.02" height="4.09"/><rect class="e" x="25.09" y="2.68" width="1.02" height="2.04"/><rect class="e" x="25.09" y="4.73" width="1.02" height="2.04"/><rect class="e" x="25.09" y="6.77" width="1.02" height="3.06"/><rect class="e" x="25.09" y="10.86" width="1.02" height="2.04"/><rect class="e" x="25.09" y="13.92" width="1.02" height="1.02"/><rect class="e" x="25.09" y="15.97" width="1.02" height="3.06"/><rect class="e" x="25.09" y="22.1" width="1.02" height="2.04"/><rect class="e" x="25.09" y="25.16" width="1.02" height="1.02"/><rect class="e" x="25.09" y="27.2" width="1.02" height="1.02"/><rect class="e" x="26.11" y="2.68" width="1.02" height="1.02"/><rect class="e" x="26.11" y="8.81" width="1.02" height="1.02"/><rect class="e" x="26.11" y="11.88" width="1.02" height="3.06"/><rect class="e" x="26.11" y="15.97" width="1.02" height="3.06"/><rect class="e" x="26.11" y="20.05" width="1.02" height="2.04"/><rect class="e" x="26.11" y="23.12" width="1.02" height="1.02"/><rect class="e" x="26.11" y="27.2" width="1.02" height="1.02"/><rect class="e" x="26.11" y="29.25" width="1.02" height="2.04"/><rect class="e" x="27.14" y="2.68" width="1.02" height="1.02"/><rect class="e" x="27.14" y="4.73" width="1.02" height="2.04"/><rect class="e" x="27.14" y="6.77" width="1.02" height="1.02"/><rect class="e" x="27.14" y="8.81" width="1.02" height="1.02"/><rect class="e" x="27.14" y="11.88" width="1.02" height="3.06"/><rect class="e" x="27.14" y="16.99" width="1.02" height="3.06"/><rect class="e" x="27.14" y="23.12" width="1.02" height="6.13"/><rect class="e" x="28.16" y="2.68" width="1.02" height="1.02"/><rect class="e" x="28.16" y="4.73" width="1.02" height="2.04"/><rect class="e" x="28.16" y="6.77" width="1.02" height="1.02"/><rect class="e" x="28.16" y="8.81" width="1.02" height="1.02"/><rect class="e" x="28.16" y="10.86" width="1.02" height="1.02"/><rect class="e" x="28.16" y="14.94" width="1.02" height="1.02"/><rect class="e" x="28.16" y="19.03" width="1.02" height="2.04"/><rect class="e" x="28.16" y="23.12" width="1.02" height="4.09"/><rect class="e" x="28.16" y="28.23" width="1.02" height="1.02"/><rect class="e" x="28.16" y="30.27" width="1.02" height="2.04"/><rect class="e" x="29.18" y="2.68" width="1.02" height="1.02"/><rect class="e" x="29.18" y="4.73" width="1.02" height="2.04"/><rect class="e" x="29.18" y="6.77" width="1.02" height="1.02"/><rect class="e" x="29.18" y="8.81" width="1.02" height="1.02"/><rect class="e" x="29.18" y="12.9" width="1.02" height="1.02"/><rect class="e" x="29.18" y="14.94" width="1.02" height="3.06"/><rect class="e" x="29.18" y="20.05" width="1.02" height="5.11"/><rect class="e" x="29.18" y="27.2" width="1.02" height="1.02"/><rect class="e" x="29.18" y="29.25" width="1.02" height="1.02"/><rect class="e" x="30.2" y="2.68" width="1.02" height="1.02"/><rect class="e" x="30.2" y="8.81" width="1.02" height="1.02"/><rect class="e" x="30.2" y="10.86" width="1.02" height="1.02"/><rect class="e" x="30.2" y="12.9" width="1.02" height="1.02"/><rect class="e" x="30.2" y="15.97" width="1.02" height="5.11"/><rect class="e" x="30.2" y="24.14" width="1.02" height="2.04"/><rect class="e" x="30.2" y="27.2" width="1.02" height="1.02"/><rect class="e" x="30.2" y="30.27" width="1.02" height="2.04"/><rect class="e" x="31.22" y="2.68" width="1.02" height="2.04"/><rect class="e" x="31.22" y="4.73" width="1.02" height="2.04"/><rect class="e" x="31.22" y="6.77" width="1.02" height="3.06"/><rect class="e" x="31.22" y="10.86" width="1.02" height="2.04"/><rect class="e" x="31.22" y="13.92" width="1.02" height="1.02"/><rect class="e" x="31.22" y="15.97" width="1.02" height="2.04"/><rect class="e" x="31.22" y="24.14" width="1.02" height="1.02"/><rect class="e" x="31.22" y="26.18" width="1.02" height="1.02"/><rect class="e" x="31.22" y="28.23" width="1.02" height="2.04"/></g></g></g></svg>