<?xml version="1.0" encoding="UTF-8"?><svg xmlns="http://www.w3.org/2000/svg" xmlns:xlink="http://www.w3.org/1999/xlink" viewBox="0 0 100.7 45.4"><defs><style>.f{fill:#302866;}.g{fill:#e37a32;}.h{fill:#898b8d;}.i{fill:#e27932;}.j{fill:#fff;filter:url(#d);}</style><filter id="d" filterUnits="userSpaceOnUse"><feOffset dx=".62" dy=".62"/><feGaussianBlur result="e" stdDeviation=".62"/><feFlood flood-color="#686868" flood-opacity=".75"/><feComposite in2="e" operator="in"/><feComposite in="SourceGraphic"/></filter></defs><g id="a"/><g id="b"><g id="c"><g><rect class="j" x="1.28" y="1.33" width="96.82" height="41.41" rx="4.14" ry="4.14"/><g><g><path class="f" d="M12.57,10.52h-1v-.51h2.59v.51h-1v2.8h-.58v-2.8Z"/><path class="f" d="M17.08,11.87h-1.72v1.45h-.58v-3.31h.58v1.36h1.72v-1.36h.58v3.31h-.58v-1.45Z"/><path class="f" d="M18.49,10h2.27v.51h-1.69v.86h1.65v.51h-1.65v.92h1.69v.51h-2.27v-3.31Z"/><path class="f" d="M22.88,10h1.23c1.03,0,1.73,.69,1.73,1.66s-.7,1.65-1.73,1.65h-1.23v-3.31Zm1.23,2.8c.72,0,1.14-.52,1.14-1.14s-.4-1.15-1.14-1.15h-.65v2.29h.65Z"/><path class="f" d="M26.54,10h2.27v.51h-1.69v.86h1.65v.51h-1.65v.92h1.69v.51h-2.27v-3.31Z"/><path class="f" d="M29.53,10h.58v2.8h1.46v.51h-2.04v-3.31Z"/><path class="f" d="M34.32,12.68h-1.57l-.24,.64h-.64l1.3-3.31h.73l1.3,3.31h-.64l-.24-.64Zm-1.41-.51h1.24l-.62-1.67-.62,1.67Z"/><path class="f" d="M37.36,10.87l-.64,2.45h-.62l-.95-3.31h.65l.65,2.55,.69-2.55h.46l.69,2.55,.64-2.55h.65l-.94,3.31h-.62l-.65-2.45Z"/><path class="f" d="M41.96,12.68h-1.57l-.24,.64h-.64l1.3-3.31h.73l1.3,3.31h-.64l-.24-.64Zm-1.41-.51h1.24l-.62-1.67-.62,1.67Z"/><path class="f" d="M44.48,12.08h-.58v1.24h-.58v-3.31h1.46c.66,0,1.08,.43,1.08,1.04s-.39,.91-.79,.97l.81,1.3h-.67l-.74-1.24Zm.22-1.57h-.8v1.05h.8c.33,0,.57-.21,.57-.53s-.24-.53-.57-.53Z"/><path class="f" d="M46.57,10h2.27v.51h-1.69v.86h1.65v.51h-1.65v.92h1.69v.51h-2.27v-3.31Z"/><path class="f" d="M50.61,10h.66l1,2.68,1-2.68h.66l-1.3,3.31h-.73l-1.3-3.31Z"/><path class="f" d="M56.29,12.68h-1.57l-.24,.64h-.64l1.3-3.31h.73l1.3,3.31h-.64l-.24-.64Zm-1.41-.51h1.24l-.62-1.67-.62,1.67Z"/><path class="f" d="M57.65,10h.58v2.8h1.46v.51h-2.04v-3.31Z"/><path class="f" d="M60.35,10h.58v2.8h1.46v.51h-2.04v-3.31Z"/><path class="f" d="M63.04,10h2.27v.51h-1.69v.86h1.65v.51h-1.65v.92h1.69v.51h-2.27v-3.31Z"/><path class="f" d="M66.97,11.94l-1.29-1.94h.67l.91,1.42,.9-1.42h.67l-1.28,1.94v1.38h-.58v-1.38Z"/><path class="f" d="M15.66,22.29c0,1.12-.73,1.54-1.83,1.54h-.08c-1.1,0-1.83-.41-1.83-1.54v-4.37c0-1.08,.73-1.54,1.83-1.54h.08c1.1,0,1.83,.46,1.83,1.54v1.04h-1.21v-.85c0-.52-.27-.67-.67-.67s-.67,.15-.67,.67v4c0,.52,.27,.67,.67,.67s.67-.15,.67-.67v-1.08h-.71v-1.02h1.92v2.29Z"/><path class="f" d="M18.95,16.38h.08c1.1,0,1.83,.44,1.83,1.54v4.37c0,1.1-.73,1.54-1.83,1.54h-.08c-1.1,0-1.83-.44-1.83-1.54v-4.37c0-1.11,.73-1.54,1.83-1.54Zm.04,6.4c.4,0,.67-.15,.67-.67v-4c0-.52-.27-.67-.67-.67s-.67,.15-.67,.67v4c0,.52,.27,.67,.67,.67Z"/><path class="f" d="M24.18,16.38h.08c1.1,0,1.83,.44,1.83,1.54v4.37c0,1.1-.73,1.54-1.83,1.54h-.08c-1.1,0-1.83-.44-1.83-1.54v-4.37c0-1.11,.73-1.54,1.83-1.54Zm.04,6.4c.4,0,.67-.15,.67-.67v-4c0-.52-.27-.67-.67-.67s-.67,.15-.67,.67v4c0,.52,.27,.67,.67,.67Z"/><path class="f" d="M31.31,18v4.21c0,1.1-.73,1.54-1.83,1.54h-1.86v-7.29h1.86c1.1,0,1.83,.44,1.83,1.54Zm-1.87-.48h-.61v5.17h.61c.4,0,.67-.15,.67-.67v-3.83c0-.52-.27-.67-.67-.67Z"/><path class="f" d="M35.1,19.06v-1.02c0-.46-.26-.62-.61-.62s-.61,.17-.61,.62v.5c0,.38,.13,.54,.47,.74l.85,.48c.7,.4,1.11,.72,1.11,1.5v1.05c0,1.12-.7,1.52-1.8,1.52h-.02c-1.1,0-1.8-.39-1.8-1.52v-1.27h1.19v1.1c0,.45,.26,.65,.62,.65s.62-.2,.62-.65v-.57c0-.37-.11-.56-.48-.76l-.84-.48c-.71-.41-1.11-.74-1.11-1.5v-.96c0-1.08,.79-1.5,1.79-1.5h.02c1,0,1.79,.42,1.79,1.5v1.19h-1.19Z"/><path class="f" d="M42.79,22.69h-.68l-1.09-3.4v4.46h-1.12v-7.29h1.15l1.41,4.24,1.42-4.24h1.19v7.29h-1.17v-4.46l-1.09,3.4Z"/><path class="f" d="M48.41,16.38h.08c1.1,0,1.83,.44,1.83,1.54v4.37c0,1.1-.73,1.54-1.83,1.54h-.08c-1.1,0-1.83-.44-1.83-1.54v-4.37c0-1.11,.73-1.54,1.83-1.54Zm.04,6.4c.4,0,.67-.15,.67-.67v-4c0-.52-.27-.67-.67-.67s-.67,.15-.67,.67v4c0,.52,.27,.67,.67,.67Z"/><path class="f" d="M54.05,23.75h-1.33l-1.37-7.29h1.23l.84,5.41,.84-5.41h1.17l-1.37,7.29Z"/><path class="f" d="M56.55,23.75v-7.29h3.2v1.06h-1.99v2h1.67v1.06h-1.67v2.1h2.02v1.06h-3.23Z"/><path class="f" d="M64.05,22.69h-.68l-1.09-3.4v4.46h-1.12v-7.29h1.15l1.41,4.24,1.42-4.24h1.19v7.29h-1.17v-4.46l-1.09,3.4Z"/><path class="f" d="M67.87,23.75v-7.29h3.2v1.06h-1.99v2h1.67v1.06h-1.67v2.1h2.02v1.06h-3.23Z"/><path class="f" d="M72.48,23.75v-7.29h1.21l1.53,4.51v-4.51h1.1v7.29h-1.15l-1.59-4.74v4.74h-1.1Z"/><path class="f" d="M81.11,17.52h-1.22v6.23h-1.21v-6.23h-1.22v-1.06h3.65v1.06Z"/><path class="f" d="M15.18,27.95h-1.22v6.23h-1.21v-6.23h-1.22v-1.06h3.65v1.06Z"/><path class="f" d="M18.19,32.56h-1.33l-.26,1.62h-1.17l1.35-7.29h1.52l1.37,7.29h-1.23l-.26-1.62Zm-.16-1l-.51-3.24-.51,3.24h1.02Z"/><path class="f" d="M22.96,29.5v-1.02c0-.46-.26-.62-.61-.62s-.61,.17-.61,.62v.5c0,.37,.13,.54,.47,.74l.85,.48c.7,.4,1.11,.72,1.11,1.5v1.05c0,1.12-.7,1.52-1.8,1.52h-.02c-1.1,0-1.8-.39-1.8-1.52v-1.27h1.19v1.1c0,.45,.26,.65,.62,.65s.62-.2,.62-.65v-.57c0-.37-.11-.56-.48-.76l-.84-.48c-.71-.41-1.11-.74-1.11-1.5v-.96c0-1.08,.79-1.5,1.79-1.5h.02c1,0,1.79,.42,1.79,1.5v1.19h-1.19Z"/><path class="f" d="M28.31,34.18l-1-3.17-.54,1.06v2.1h-1.21v-7.29h1.21v3.28l1.37-3.28h1.27l-1.4,2.74,1.52,4.55h-1.23Z"/><path class="f" d="M32.65,26.89h3.16v1.06h-1.95v2.05h1.62v1.06h-1.62v3.11h-1.21v-7.29Z"/><path class="f" d="M38.8,26.81h.08c1.1,0,1.83,.44,1.83,1.54v4.37c0,1.1-.73,1.54-1.83,1.54h-.08c-1.1,0-1.83-.44-1.83-1.54v-4.37c0-1.11,.73-1.54,1.83-1.54Zm.04,6.4c.4,0,.67-.15,.67-.67v-4c0-.52-.27-.67-.67-.67s-.67,.15-.67,.67v4c0,.52,.27,.67,.67,.67Z"/><path class="f" d="M44.98,34.18l-.93-2.91h-.6v2.91h-1.21v-7.29h1.89c1.1,0,1.83,.44,1.83,1.54v1.3c0,.7-.29,1.14-.79,1.35l1.04,3.09h-1.23Zm-1.53-3.95h.64c.4,0,.67-.15,.67-.67v-.95c0-.52-.27-.67-.67-.67h-.64v2.28Z"/><path class="f" d="M51.04,32.72c0,1.12-.73,1.54-1.83,1.54h-.02c-1.1,0-1.83-.41-1.83-1.54v-4.37c0-1.08,.73-1.54,1.83-1.54h.02c1.1,0,1.83,.46,1.83,1.54v1.33h-1.21v-1.15c0-.51-.25-.67-.64-.67s-.64,.16-.64,.67v4c0,.51,.25,.67,.64,.67s.64-.16,.64-.67v-1.32h1.21v1.51Z"/><path class="f" d="M52.52,34.18v-7.29h3.2v1.06h-1.99v2h1.67v1.06h-1.67v2.1h2.02v1.06h-3.23Z"/></g><g><g><path class="g" d="M66.29,28.87c-.29-.13-.62-.2-.96-.2-1.31,0-2.37,1.06-2.37,2.37,0,.81,.4,1.52,1.02,1.94l2.31-4.11Zm-2.99,3.03l.2-.13c.63-.43,1.12-1.01,1.32-1.76,.09-.34,.13-.7,.13-1.05v-.14h0s.06,.09,.04,.07c.03,.04,.06,.08,.08,.13,.03,.04,.05,.09,.06,.13,.02,.05,.03,.09,.05,.14,.19,.63,.08,1.4-.35,1.91-.12,.14-.27,.29-.43,.39-.25,.16-.54,.28-.83,.31-.1,.01-.22,.02-.29,0Z"/><path class="g" d="M66.67,29.08l-2.31,4.12c.3,.14,.63,.21,.98,.21,1.31,0,2.37-1.06,2.37-2.37,0-.81-.41-1.53-1.04-1.96Zm-.83,2.95c-.11,.36-.16,.73-.17,1.1v.14h-.02s-.06-.09-.04-.07c-.03-.04-.06-.09-.08-.13-.02-.05-.04-.09-.06-.14-.02-.05-.03-.1-.04-.15-.18-.67-.03-1.48,.43-1.99,.13-.14,.29-.29,.46-.39,.27-.16,.57-.27,.88-.3,.1-.01,.23-.02,.3,0l-.21,.13c-.67,.43-1.2,1.02-1.44,1.8Z"/></g><g><path class="g" d="M72.46,32.95h-1.04v-.39h-.01c-.09,.15-.36,.51-1.09,.51-1.11,0-1.83-.86-1.83-1.95,0-1.24,.88-1.94,1.81-1.94,.65,0,.95,.32,1.07,.43v-2.59h1.09v5.94Zm-1.97-.9c.68,0,.93-.56,.93-.94,0-.44-.32-.91-.92-.91s-.93,.49-.93,.91c0,.57,.4,.94,.91,.94Z"/><path class="g" d="M75.32,32.95h-1.05l-1.31-3.65h1.13l.7,2.28h.01l.7-2.28h1.13l-1.32,3.65Z"/><path class="g" d="M77.14,29.3h1.03v.39h.01c.09-.18,.28-.51,.91-.51v1.1c-.51,.01-.86,.12-.86,.67v2.01h-1.09v-3.65Z"/><path class="g" d="M79.67,29.3h1.03v.4h.02c.22-.28,.58-.53,1.14-.53,1.3,0,1.78,1.14,1.78,1.99,0,1.05-.74,1.92-1.78,1.92-.66,0-.97-.32-1.1-.45v2.63h-1.09v-5.96Zm2.88,1.83c0-.43-.32-.93-.91-.93s-.91,.5-.91,.93c0,.46,.34,.93,.91,.93s.91-.47,.91-.93Z"/><path class="g" d="M87.95,31.56c-.2,.83-.93,1.51-1.92,1.51-1.11,0-1.95-.87-1.95-1.95s.84-1.94,1.93-1.94c.97,0,1.75,.64,1.93,1.53h-1.11c-.12-.25-.34-.51-.79-.51-.52-.03-.87,.4-.87,.93s.35,.93,.87,.93c.45,0,.67-.26,.79-.49h1.11Z"/></g></g><path class="h" d="M59.35,35.15c-.09,0-.16-.07-.16-.16v-8.54c0-.09,.07-.16,.16-.16s.16,.07,.16,.16v8.54c0,.09-.07,.16-.16,.16Z"/></g><path class="i" d="M91.22,40.7H8.16c-2.58,0-4.67-2.1-4.67-4.67V8.05c0-2.58,2.1-4.67,4.67-4.67H91.22c2.58,0,4.67,2.1,4.67,4.67v27.98c0,2.58-2.1,4.67-4.67,4.67ZM8.16,3.77c-2.36,0-4.27,1.92-4.27,4.27v27.98c0,2.36,1.92,4.27,4.27,4.27H91.22c2.36,0,4.27-1.92,4.27-4.27V8.05c0-2.36-1.92-4.27-4.27-4.27H8.16Z"/></g></g></g></svg>