<?xml version="1.0" encoding="UTF-8"?><svg xmlns="http://www.w3.org/2000/svg" viewBox="0 0 158.4 45.75"><defs><style>.d{fill:#23969b;}.e{fill:#626366;}.f{fill:#84bbbf;}.g{fill:none;stroke:#929497;stroke-miterlimit:10;stroke-width:.06px;}</style></defs><g id="a"/><g id="b"><g id="c"><g><g><path class="d" d="M69.78,39.18c-.3-.13-.63-.21-.98-.21-1.35,0-2.44,1.09-2.44,2.44,0,.83,.41,1.56,1.05,2l2.37-4.23Zm-3.07,3.11l.2-.13c.65-.44,1.15-1.04,1.36-1.81,.1-.35,.13-.72,.13-1.08v-.14h0s.06,.09,.04,.07c.03,.04,.06,.09,.08,.13,.03,.04,.05,.09,.07,.13,.02,.05,.04,.09,.05,.14,.2,.64,.09,1.44-.36,1.96-.12,.14-.28,.3-.44,.4-.26,.17-.55,.28-.86,.32-.1,.01-.22,.02-.3,0"/><path class="d" d="M70.17,39.4l-2.38,4.23c.31,.14,.65,.22,1.01,.22,1.35,0,2.44-1.09,2.44-2.44,0-.84-.42-1.58-1.07-2.01m-.85,3.04c-.11,.37-.16,.75-.18,1.13v.15h-.02s-.06-.09-.04-.07c-.03-.04-.06-.09-.08-.14-.02-.05-.04-.09-.06-.14-.02-.05-.03-.1-.05-.15-.18-.68-.03-1.52,.44-2.05,.13-.15,.3-.3,.47-.4,.27-.17,.58-.28,.9-.31,.1-.01,.23-.02,.31,0l-.22,.13c-.69,.44-1.23,1.05-1.48,1.85"/><path class="d" d="M76.12,43.38h-1.07v-.41h-.01c-.09,.16-.37,.53-1.12,.53-1.14,0-1.88-.88-1.88-2.01,0-1.27,.91-2,1.86-2,.66,0,.98,.33,1.1,.45v-2.67h1.12v6.1Zm-2.02-.93c.7,0,.96-.58,.96-.97,0-.45-.32-.94-.95-.94s-.95,.51-.95,.94c0,.58,.41,.97,.94,.97"/><polygon class="d" points="79.06 43.38 77.99 43.38 76.64 39.62 77.8 39.62 78.52 41.96 78.54 41.96 79.25 39.62 80.42 39.62 79.06 43.38"/><path class="d" d="M80.93,39.62h1.06v.4h.01c.09-.18,.29-.53,.94-.53v1.13c-.52,.01-.89,.12-.89,.69v2.06h-1.12v-3.75Z"/><path class="d" d="M83.53,39.62h1.06v.41h.02c.22-.28,.6-.54,1.17-.54,1.33,0,1.83,1.17,1.83,2.04,0,1.08-.76,1.97-1.83,1.97-.68,0-.99-.33-1.13-.47v2.71h-1.12v-6.12Zm2.96,1.88c0-.45-.32-.96-.94-.96s-.94,.51-.94,.96c0,.47,.35,.95,.94,.95s.94-.48,.94-.95"/><path class="d" d="M92.04,41.95c-.2,.85-.95,1.55-1.97,1.55-1.14,0-2.01-.89-2.01-2.01s.86-2,1.98-2c.99,0,1.8,.66,1.99,1.58h-1.14c-.12-.26-.35-.53-.81-.53-.53-.03-.89,.41-.89,.95s.36,.95,.89,.95c.47,0,.69-.27,.81-.5h1.14Z"/></g><g><g><path class="e" d="M40.08,4.41c-.14,.19-.36,.37-.66,.52-.3,.15-.69,.23-1.17,.23-.59,0-1.08-.19-1.46-.57s-.57-.88-.57-1.48v-1.05c0-.61,.18-1.1,.55-1.48,.37-.38,.84-.57,1.42-.57s1.04,.15,1.36,.44c.33,.29,.48,.68,.47,1.15v.02h-.81c0-.28-.09-.51-.26-.68s-.43-.26-.76-.26c-.35,0-.63,.13-.84,.39-.21,.26-.32,.59-.32,.99v1.05c0,.4,.11,.74,.33,1,.22,.26,.51,.39,.87,.39,.27,0,.48-.03,.64-.09,.16-.06,.27-.13,.35-.22v-1.04h-1.05v-.63h1.89v1.89Z"/><path class="e" d="M42.24,3v2.08h-.84V.07h1.72c.56,0,.99,.13,1.29,.38s.46,.61,.46,1.08c0,.26-.07,.48-.2,.67s-.33,.34-.59,.45c.28,.09,.49,.24,.61,.44,.12,.2,.19,.45,.19,.75v.42c0,.15,.02,.29,.06,.43,.04,.14,.1,.25,.18,.32v.08h-.86c-.09-.08-.15-.19-.18-.35-.03-.16-.04-.32-.04-.48v-.4c0-.26-.07-.46-.22-.61-.15-.15-.35-.23-.6-.23h-.99Zm0-.67h.84c.33,0,.58-.06,.73-.19s.23-.32,.23-.59-.08-.45-.23-.59c-.15-.14-.38-.22-.69-.22h-.89v1.59Z"/><path class="e" d="M49.01,2.83h-1.96v1.59h2.31v.67h-3.15V.07h3.12V.74h-2.29v1.41h1.96v.67Z"/><path class="e" d="M53.25,3.91h-1.78l-.39,1.17h-.86L51.98,.07h.79l1.73,5.01h-.86l-.38-1.17Zm-1.55-.7h1.32l-.64-1.98h-.02l-.65,1.98Z"/><path class="e" d="M58.48,.74h-1.55V5.08h-.84V.74h-1.52V.07h3.91V.74Z"/><path class="e" d="M62.29,2.83h-1.96v1.59h2.31v.67h-3.15V.07h3.12V.74h-2.29v1.41h1.96v.67Z"/><path class="e" d="M64.56,3v2.08h-.84V.07h1.72c.56,0,.99,.13,1.29,.38s.46,.61,.46,1.08c0,.26-.07,.48-.2,.67s-.33,.34-.59,.45c.28,.09,.49,.24,.61,.44,.12,.2,.19,.45,.19,.75v.42c0,.15,.02,.29,.06,.43,.04,.14,.1,.25,.18,.32v.08h-.86c-.09-.08-.15-.19-.18-.35-.03-.16-.04-.32-.04-.48v-.4c0-.26-.07-.46-.22-.61-.15-.15-.35-.23-.6-.23h-.99Zm0-.67h.84c.33,0,.58-.06,.73-.19s.23-.32,.23-.59-.08-.45-.23-.59c-.15-.14-.38-.22-.69-.22h-.89v1.59Z"/><path class="e" d="M71.5,3.18v1.9h-.84V.07h1.92c.55,0,.99,.14,1.3,.43,.31,.29,.47,.66,.47,1.13s-.16,.85-.47,1.13c-.31,.28-.75,.43-1.3,.43h-1.08Zm0-.67h1.08c.31,0,.54-.08,.7-.25s.23-.38,.23-.63-.08-.47-.23-.64c-.16-.17-.39-.25-.7-.25h-1.08v1.77Z"/><path class="e" d="M79.37,5.08h-.84V2.95h-2.24v2.14h-.84V.07h.84V2.27h2.24V.07h.84V5.08Z"/><path class="e" d="M81.62,5.08h-.84V.07h.84V5.08Z"/><path class="e" d="M83.87,4.42h2.35v.67h-3.18V.07h.84V4.42Z"/><path class="e" d="M90.09,3.91h-1.78l-.39,1.17h-.86L88.81,.07h.79l1.73,5.01h-.86l-.38-1.17Zm-1.55-.7h1.32l-.64-1.98h-.02l-.65,1.98Z"/><path class="e" d="M92.34,5.08V.07h1.66c.64,0,1.15,.2,1.55,.6s.6,.91,.6,1.53v.76c0,.63-.2,1.14-.6,1.53-.4,.39-.91,.59-1.55,.59h-1.66Zm.84-4.34v3.67h.82c.4,0,.72-.14,.96-.41,.24-.27,.35-.62,.35-1.05v-.77c0-.42-.12-.77-.35-1.04s-.56-.41-.96-.41h-.82Z"/><path class="e" d="M100.17,2.83h-1.96v1.59h2.31v.67h-3.15V.07h3.13V.74h-2.29v1.41h1.96v.67Z"/><path class="e" d="M102.43,4.42h2.35v.67h-3.18V.07h.84V4.42Z"/><path class="e" d="M106.67,3.18v1.9h-.84V.07h1.92c.55,0,.99,.14,1.3,.43,.31,.29,.47,.66,.47,1.13s-.16,.85-.47,1.13c-.31,.28-.75,.43-1.3,.43h-1.08Zm0-.67h1.08c.31,0,.54-.08,.7-.25,.16-.17,.23-.38,.23-.63s-.08-.47-.23-.64c-.16-.17-.39-.25-.7-.25h-1.08v1.77Z"/><path class="e" d="M114.54,5.08h-.84V2.95h-2.24v2.14h-.84V.07h.84V2.27h2.24V.07h.84V5.08Z"/><path class="e" d="M116.79,5.08h-.84V.07h.84V5.08Z"/><path class="e" d="M120.86,3.91h-1.78l-.39,1.17h-.86L119.59,.07h.79l1.73,5.01h-.86l-.38-1.17Zm-1.55-.7h1.32l-.64-1.98h-.02l-.65,1.98Z"/></g><line class="g" x1="36.76" y1="6.83" x2="121.41" y2="6.83"/><g><path class="e" d="M16.26,32.87v-3.32h1.04c.43,0,.78,.13,1.04,.4s.4,.61,.4,1.03v.45c0,.42-.13,.77-.4,1.03s-.61,.4-1.04,.4h-1.04Zm.45-2.96v2.61h.59c.31,0,.55-.1,.73-.3,.18-.2,.27-.46,.27-.78v-.46c0-.31-.09-.57-.27-.77-.18-.2-.42-.3-.73-.3h-.59Z"/><path class="e" d="M20.1,32.87h-.45v-3.32h.45v3.32Z"/><path class="e" d="M22.87,32.02h-1.25l-.3,.85h-.46l1.2-3.32h.38l1.17,3.32h-.46l-.29-.85Zm-1.12-.38h.99l-.48-1.42h-.01l-.49,1.42Z"/><path class="e" d="M24.81,32.52h1.62v.35h-2.07v-3.32h.45v2.96Z"/><path class="e" d="M29.62,31.51c0,.41-.13,.74-.38,1.01-.25,.27-.58,.4-.98,.4s-.7-.13-.94-.4-.36-.6-.36-1.01v-.59c0-.4,.12-.74,.36-1.01s.56-.4,.94-.4,.73,.13,.98,.4c.25,.27,.38,.6,.38,1.01v.59Zm-.45-.59c0-.3-.08-.55-.25-.75-.16-.19-.38-.29-.66-.29-.26,0-.47,.1-.62,.29-.16,.19-.23,.44-.23,.75v.59c0,.31,.08,.56,.23,.75,.16,.19,.36,.29,.62,.29,.28,0,.5-.1,.66-.29,.16-.19,.24-.44,.24-.75v-.59Z"/><path class="e" d="M32.88,32.43c-.08,.12-.22,.24-.41,.34s-.45,.15-.76,.15c-.38,0-.7-.13-.95-.38-.25-.25-.38-.58-.38-.98v-.68c0-.4,.12-.73,.36-.98s.55-.38,.93-.38,.66,.1,.87,.29c.21,.2,.32,.45,.31,.75h-.43c0-.19-.07-.36-.2-.49-.13-.13-.32-.2-.56-.2-.25,0-.46,.09-.61,.28s-.23,.43-.23,.72v.69c0,.29,.08,.54,.25,.73,.16,.19,.37,.29,.63,.29,.2,0,.35-.03,.47-.08,.11-.05,.2-.11,.26-.18v-.75h-.75v-.35h1.2v1.21Z"/><path class="e" d="M36.28,29.56v2.2c0,.36-.12,.65-.36,.85-.24,.21-.54,.31-.92,.31s-.65-.1-.88-.31c-.23-.21-.34-.49-.34-.85v-2.2h.45v2.2c0,.25,.07,.45,.22,.6,.15,.14,.33,.22,.56,.22,.24,0,.44-.07,.59-.22,.15-.14,.23-.34,.23-.6v-2.2h.45Z"/><path class="e" d="M39.04,31.34h-1.36v1.19h1.59v.35h-2.04v-3.32h2.02v.35h-1.57v1.07h1.36v.35Z"/><path class="e" d="M40.49,32.87h-.45v-.46h.45v.46Z"/><path class="e" d="M46.69,31.81h0c0,.32-.1,.59-.33,.79-.22,.21-.52,.31-.89,.31s-.68-.13-.92-.4c-.24-.27-.35-.6-.35-1.01v-.59c0-.41,.12-.75,.35-1.01,.24-.27,.54-.4,.92-.4s.67,.1,.89,.3,.33,.46,.32,.79h-.43c0-.22-.07-.4-.21-.54-.14-.14-.33-.2-.58-.2s-.45,.1-.6,.3c-.15,.2-.22,.45-.22,.75v.59c0,.3,.07,.55,.22,.76,.15,.2,.35,.3,.6,.3s.44-.07,.58-.2c.14-.13,.21-.32,.21-.56h.43Z"/><path class="e" d="M50.08,31.51c0,.41-.13,.74-.38,1.01-.25,.27-.58,.4-.98,.4s-.7-.13-.94-.4-.36-.6-.36-1.01v-.59c0-.4,.12-.74,.36-1.01s.56-.4,.94-.4,.73,.13,.98,.4c.25,.27,.38,.6,.38,1.01v.59Zm-.45-.59c0-.3-.08-.55-.25-.75-.16-.19-.38-.29-.66-.29-.26,0-.47,.1-.62,.29-.16,.19-.23,.44-.23,.75v.59c0,.31,.08,.56,.23,.75,.16,.19,.36,.29,.62,.29,.28,0,.5-.1,.66-.29,.16-.19,.24-.44,.24-.75v-.59Z"/><path class="e" d="M51.39,32.52h1.62v.35h-2.07v-3.32h.45v2.96Z"/><path class="e" d="M54.21,32.52h1.62v.35h-2.07v-3.32h.45v2.96Z"/><path class="e" d="M58.43,32.02h-1.25l-.3,.85h-.46l1.2-3.32h.38l1.17,3.32h-.46l-.29-.85Zm-1.12-.38h.99l-.48-1.42h-.01l-.49,1.42Z"/><path class="e" d="M59.92,32.87v-3.32h1.08c.35,0,.62,.07,.81,.22s.29,.37,.29,.67c0,.14-.04,.27-.13,.38-.09,.11-.21,.2-.35,.26,.22,.03,.39,.12,.52,.28,.13,.16,.19,.34,.19,.56,0,.3-.1,.54-.3,.7-.2,.16-.46,.24-.8,.24h-1.31Zm.45-1.91h.73c.17,0,.3-.05,.41-.14,.1-.09,.16-.22,.16-.38,0-.18-.06-.31-.17-.4-.11-.09-.28-.13-.49-.13h-.63v1.06Zm0,.35v1.2h.87c.2,0,.36-.05,.48-.15,.11-.1,.17-.24,.17-.43s-.06-.33-.17-.44c-.12-.11-.27-.17-.47-.18h-.87Z"/><path class="e" d="M65.7,31.51c0,.41-.13,.74-.38,1.01-.25,.27-.58,.4-.98,.4s-.7-.13-.94-.4-.36-.6-.36-1.01v-.59c0-.4,.12-.74,.36-1.01s.56-.4,.94-.4,.73,.13,.98,.4c.25,.27,.38,.6,.38,1.01v.59Zm-.45-.59c0-.3-.08-.55-.25-.75-.16-.19-.38-.29-.66-.29-.26,0-.47,.1-.62,.29-.16,.19-.23,.44-.23,.75v.59c0,.31,.08,.56,.23,.75,.16,.19,.36,.29,.62,.29,.28,0,.5-.1,.66-.29,.16-.19,.24-.44,.24-.75v-.59Z"/><path class="e" d="M67.02,31.44v1.44h-.45v-3.31h1.13c.36,0,.64,.08,.83,.24,.19,.16,.29,.39,.29,.7,0,.17-.04,.32-.13,.44-.09,.13-.22,.23-.39,.3,.18,.06,.31,.16,.39,.29s.12,.3,.12,.49v.31c0,.1,.01,.2,.03,.28,.02,.08,.06,.15,.12,.2v.05h-.46c-.06-.05-.1-.13-.11-.23-.02-.1-.03-.2-.03-.31v-.3c0-.18-.05-.32-.16-.43-.1-.11-.25-.16-.42-.16h-.77Zm0-.35h.64c.25,0,.44-.05,.55-.14,.11-.1,.17-.24,.17-.44,0-.19-.05-.33-.16-.43s-.28-.15-.51-.15h-.69v1.17Z"/><path class="e" d="M71.61,32.02h-1.25l-.3,.85h-.46l1.2-3.32h.38l1.17,3.32h-.46l-.29-.85Zm-1.12-.38h.99l-.48-1.42h-.01l-.49,1.42Z"/><path class="e" d="M75.06,29.91h-1.09v2.96h-.45v-2.96h-1.08v-.35h2.62v.35Z"/><path class="e" d="M76.27,32.87h-.45v-3.32h.45v3.32Z"/><path class="e" d="M79.83,31.51c0,.41-.13,.74-.38,1.01-.25,.27-.58,.4-.98,.4s-.7-.13-.94-.4c-.24-.27-.36-.6-.36-1.01v-.59c0-.4,.12-.74,.36-1.01,.24-.27,.56-.4,.94-.4s.73,.13,.98,.4c.25,.27,.38,.6,.38,1.01v.59Zm-.45-.59c0-.3-.08-.55-.25-.75-.16-.19-.38-.29-.66-.29-.26,0-.47,.1-.62,.29-.16,.19-.23,.44-.23,.75v.59c0,.31,.08,.56,.23,.75,.16,.19,.36,.29,.62,.29,.28,0,.5-.1,.66-.29,.16-.19,.24-.44,.24-.75v-.59Z"/><path class="e" d="M83.21,32.87h-.45l-1.6-2.53h-.01v2.53h-.45v-3.32h.45l1.6,2.53h.01v-2.53h.45v3.32Z"/><path class="e" d="M84.63,32.87h-.45v-.46h.45v.46Z"/><path class="e" d="M89.2,31.37h-.29v1.5h-.45v-3.32h.45v1.47h.25l1.23-1.47h.51l-1.34,1.58,1.44,1.72h-.55l-1.24-1.49Z"/><path class="e" d="M94.22,32.87h-.45l-1.6-2.53h-.01v2.53h-.45v-3.32h.45l1.6,2.53h.01v-2.53h.45v3.32Z"/><path class="e" d="M97.75,31.51c0,.41-.13,.74-.38,1.01s-.58,.4-.98,.4-.7-.13-.94-.4c-.24-.27-.36-.6-.36-1.01v-.59c0-.4,.12-.74,.36-1.01,.24-.27,.56-.4,.94-.4s.73,.13,.98,.4,.38,.6,.38,1.01v.59Zm-.45-.59c0-.3-.08-.55-.25-.75-.16-.19-.38-.29-.66-.29-.26,0-.47,.1-.62,.29-.16,.19-.23,.44-.23,.75v.59c0,.31,.08,.56,.23,.75,.16,.19,.36,.29,.62,.29,.28,0,.5-.1,.66-.29,.16-.19,.24-.44,.24-.75v-.59Z"/><path class="e" d="M99.26,31.72l.06,.43h.01l.08-.43,.59-2.17h.44l.59,2.17,.08,.44h.01l.06-.44,.47-2.17h.49l-.8,3.32h-.4l-.66-2.3-.05-.3h-.01l-.05,.3-.67,2.3h-.4l-.8-3.32h.48l.48,2.17Z"/><path class="e" d="M103.33,32.52h1.62v.35h-2.07v-3.32h.45v2.96Z"/><path class="e" d="M107.5,31.34h-1.36v1.19h1.59v.35h-2.04v-3.32h2.02v.35h-1.57v1.07h1.36v.35Z"/><path class="e" d="M108.5,32.87v-3.32h1.04c.43,0,.78,.13,1.04,.4s.4,.61,.4,1.03v.45c0,.42-.13,.77-.4,1.03s-.61,.4-1.04,.4h-1.04Zm.45-2.96v2.61h.59c.31,0,.55-.1,.73-.3s.27-.46,.27-.78v-.46c0-.31-.09-.57-.27-.77s-.42-.3-.73-.3h-.59Z"/><path class="e" d="M114.26,32.43c-.08,.12-.22,.24-.41,.34-.2,.1-.45,.15-.76,.15-.38,0-.7-.13-.95-.38-.25-.25-.38-.58-.38-.98v-.68c0-.4,.12-.73,.36-.98s.55-.38,.93-.38,.66,.1,.87,.29c.21,.2,.32,.45,.31,.75h-.44c0-.19-.07-.36-.2-.49s-.32-.2-.56-.2c-.25,0-.46,.09-.61,.28-.15,.19-.23,.43-.23,.72v.69c0,.29,.08,.54,.25,.73,.16,.19,.37,.29,.63,.29,.2,0,.35-.03,.47-.08,.11-.05,.2-.11,.26-.18v-.75h-.75v-.35h1.2v1.21Z"/><path class="e" d="M117.02,31.34h-1.36v1.19h1.59v.35h-2.04v-3.32h2.02v.35h-1.57v1.07h1.36v.35Z"/><path class="e" d="M119.24,31.65h-1.34v-.35h1.34v.35Z"/><path class="e" d="M121.9,32.04c0-.15-.05-.28-.16-.38-.11-.1-.3-.19-.57-.26-.34-.08-.6-.21-.79-.37-.19-.16-.28-.37-.28-.61,0-.26,.1-.48,.31-.65s.47-.26,.79-.26c.35,0,.63,.1,.83,.3,.21,.2,.31,.43,.3,.69h-.44c0-.17-.07-.33-.2-.45-.13-.12-.3-.18-.5-.18s-.37,.05-.48,.15c-.11,.1-.17,.23-.17,.4,0,.14,.06,.26,.18,.36,.12,.1,.32,.18,.6,.25,.33,.09,.59,.21,.76,.38,.17,.17,.26,.38,.26,.62,0,.27-.11,.48-.32,.64s-.48,.24-.82,.24c-.32,0-.6-.09-.85-.27-.25-.18-.36-.42-.36-.72h.43c0,.19,.08,.36,.24,.47,.16,.11,.34,.17,.54,.17,.21,0,.38-.05,.5-.14,.12-.1,.19-.23,.19-.39Z"/><path class="e" d="M125.7,32.87h-.45v-1.46h-1.61v1.46h-.45v-3.32h.45v1.5h1.61v-1.5h.45v3.32Z"/><path class="e" d="M128.44,32.02h-1.25l-.3,.85h-.46l1.2-3.32h.39l1.17,3.32h-.46l-.29-.85Zm-1.12-.38h.99l-.48-1.42h-.01l-.49,1.42Z"/><path class="e" d="M130.38,31.44v1.44h-.45v-3.31h1.13c.36,0,.64,.08,.83,.24s.29,.39,.29,.7c0,.17-.04,.32-.13,.44-.09,.13-.22,.23-.39,.3,.18,.06,.31,.16,.39,.29s.12,.3,.12,.49v.31c0,.1,.01,.2,.03,.28,.02,.08,.06,.15,.12,.2v.05h-.46c-.06-.05-.1-.13-.11-.23-.02-.1-.03-.2-.03-.31v-.3c0-.18-.05-.32-.16-.43s-.25-.16-.42-.16h-.77Zm0-.35h.64c.25,0,.44-.05,.55-.14,.11-.1,.17-.24,.17-.44,0-.19-.05-.33-.16-.43-.11-.1-.28-.15-.51-.15h-.69v1.17Z"/><path class="e" d="M133.59,32.87h-.45v-3.32h.45v3.32Z"/><path class="e" d="M137.1,32.87h-.45l-1.6-2.53h-.01v2.53h-.45v-3.32h.45l1.6,2.53h.01v-2.53h.45v3.32Z"/><path class="e" d="M140.48,32.43c-.08,.12-.22,.24-.41,.34-.2,.1-.45,.15-.76,.15-.38,0-.7-.13-.95-.38-.25-.25-.38-.58-.38-.98v-.68c0-.4,.12-.73,.36-.98s.55-.38,.93-.38,.66,.1,.87,.29c.21,.2,.32,.45,.31,.75h-.44c0-.19-.07-.36-.2-.49s-.32-.2-.56-.2c-.25,0-.46,.09-.61,.28-.15,.19-.23,.43-.23,.72v.69c0,.29,.08,.54,.25,.73,.16,.19,.37,.29,.63,.29,.2,0,.35-.03,.47-.08,.11-.05,.2-.11,.26-.18v-.75h-.75v-.35h1.2v1.21Z"/><path class="e" d="M141.86,32.87h-.45v-.46h.45v.46Z"/></g><g><g><path class="f" d="M105.04,15.6h-1.18l-2.34-.03c-.8,0-1.21,.41-1.21,1.21s.41,1.18,1.21,1.18l2.34,.03v4.5l-5.95-.03,.03-9.3h4.71c.77,0,1.15-.41,1.21-1.18-.09-.8-.44-1.18-1.15-1.18h-5.98c-.8,0-1.18,.38-1.18,1.18v11.99c0,.77,.38,1.15,1.18,1.15h8.32c.8,0,1.18-.38,1.18-1.18v-7.2c0-.77-.38-1.15-1.18-1.15Z"/><path class="f" d="M119.23,18.02l.03-5.98c0-.8-.38-1.21-1.15-1.21l-8.32,.03c-.8,0-1.18,.38-1.18,1.18v11.9c0,.77,.38,1.18,1.18,1.18h.59c.77,0,1.18-.41,1.18-1.24l-.06-4.68h2.66l2.75,5.33c.36,.71,.89,.86,1.6,.5,.71-.36,.89-.92,.59-1.66l-2.16-4.17,1.1,.03c.8,0,1.18-.41,1.18-1.21Zm-2.58-1.21h-5.69v-3.64h5.71l-.03,3.64Z"/><path class="f" d="M131.13,10.8h-8.32c-.8,0-1.18,.38-1.18,1.18v11.96c0,.8,.38,1.18,1.18,1.18h8.32c.8,0,1.18-.38,1.18-1.18V11.98c0-.8-.38-1.18-1.18-1.18Zm-1.18,11.96h-5.86V13.46l5.86,.03v9.27Z"/><path class="f" d="M144.16,10.8c-.77,0-1.18,.38-1.18,1.18v10.22h-5.83V11.98c-.06-.8-.5-1.18-1.27-1.18s-1.21,.38-1.21,1.18l.03,11.96c0,.8,.38,1.18,1.15,1.18h8.32c.8,0,1.21-.38,1.21-1.18V11.98c0-.8-.41-1.18-1.21-1.18Z"/><path class="f" d="M157.22,10.83l-8.32,.03c-.77,0-1.18,.38-1.18,1.18v11.9c0,.77,.41,1.18,1.18,1.18h.59c.8,0,1.18-.41,1.18-1.24l-.03-4.68,6.54,.03c.77,0,1.18-.41,1.18-1.21l.03-5.98c0-.8-.38-1.21-1.18-1.21Zm-1.42,5.98h-5.71v-3.64h5.74l-.03,3.64Z"/></g><g><g><path class="d" d="M9.5,10.83l-8.32,.03c-.77,0-1.18,.38-1.18,1.18v11.9c0,.77,.41,1.18,1.18,1.18h.3c.77,0,1.18-.41,1.18-1.24l-.03-4.68,6.84,.03c.77,0,1.18-.41,1.18-1.24s-.41-1.18-1.18-1.18H2.37v-3.64h7.11c.8,0,1.21-.36,1.21-1.13v-.06c0-.77-.41-1.15-1.18-1.15Z"/><path class="d" d="M22.53,10.8c-.77,0-1.18,.38-1.18,1.18v10.51h-5.83V11.98c-.06-.8-.5-1.18-1.3-1.18s-1.18,.38-1.18,1.18l.03,11.96c-.03,.8,.38,1.18,1.15,1.18h8.32c.8,0,1.18-.38,1.18-1.18V11.98c0-.8-.38-1.18-1.18-1.18Z"/><path class="d" d="M35,10.8h-8.35c-.77,0-1.15,.36-1.15,1.13v.68c0,.74,.41,1.1,1.21,1.1h2.9v10.24c0,.77,.38,1.18,1.18,1.18s1.21-.41,1.27-1.18V13.2h2.9c.8,0,1.21-.36,1.21-1.07v-.18c0-.77-.38-1.15-1.18-1.15Z"/><path class="d" d="M47.43,10.8c-.77,0-1.18,.38-1.18,1.18v10.51h-5.83V11.98c-.09-.8-.5-1.18-1.3-1.18s-1.18,.38-1.18,1.18l.03,11.96c-.03,.8,.36,1.18,1.15,1.18h8.32c.8,0,1.18-.38,1.18-1.18V11.98c0-.8-.38-1.18-1.18-1.18Z"/><path class="d" d="M60.49,10.83l-8.32,.03c-.8,0-1.18,.38-1.18,1.18v11.9c0,.77,.38,1.18,1.18,1.18h.89c.8,0,1.18-.41,1.18-1.24l-.03-4.68h2.34l2.75,5.33c.38,.71,.92,.86,1.6,.5,.71-.36,.89-.92,.59-1.66l-2.16-4.17,1.13,.03c.77,0,1.18-.41,1.18-1.21v-5.98c0-.8-.38-1.21-1.15-1.21Zm-1.42,5.98h-5.71v-3.64h5.71v3.64Z"/><path class="d" d="M86.58,16.81l-7.05,.03-.03-3.61h6.99c.8,0,1.18-.41,1.18-1.18-.03-.74-.41-1.13-1.18-1.18l-8.23-.03c-.8,0-1.18,.38-1.18,1.18v6.28c.03,.77,.41,.86,1.15,.86l7.17-.03v3.67h-7.08c-.8,0-1.18,.38-1.18,1.18-.03,.8,.38,1.18,1.21,1.18h8.23c.77,0,1.18-.38,1.18-1.18v-5.98c0-.8-.41-1.18-1.18-1.18Z"/></g><path class="d" d="M73.49,22.82l-7.08-.03v-3.64h7.08c.8,0,1.18-.41,1.18-1.18,0-.83-.38-1.24-1.18-1.24h-7.03v-3.52h7.06c.8,0,1.18-.36,1.18-1.13,0-.83-.38-1.24-1.18-1.24l-7.77,.03c-.8,0-1.7,.38-1.7,1.18v4.71h-.01v1.01c0,.05,.01,.11,.01,.17v6.01c0,.77,.38,1.18,1.18,1.18h8.32c.77,0,1.15-.41,1.15-1.18s-.38-1.15-1.21-1.13Z"/></g></g></g></g></g></g></svg>