<?xml version="1.0" encoding="UTF-8"?><svg xmlns="http://www.w3.org/2000/svg" viewBox="0 0 53.37 23.88"><defs><style>.d,.e,.f{fill:#abf3ff;}.g{font-size:6.8px;}.g,.h{font-family:Roboto-Bold, Roboto;}.e,.i{opacity:.4;}.j{font-family:Roboto-Regular, Roboto;}.h{letter-spacing:0em;}.k{letter-spacing:-.06em;}.f{fill-rule:evenodd;}.l{font-size:5.1px;}</style></defs><g id="a"/><g id="b"><g id="c"><g class="i"><path class="d" d="M4.73,17.99H.83c-.33,0-.59,.26-.59,.58v3.89c0,.32,.26,.58,.59,.58H3.04v-1.9c-.21,0-.43,0-.63,0,0-.24,0-.49,0-.72h.63c0-.5-.03-.91,.18-1.18,.14-.18,.36-.31,.65-.33,.23-.02,.46,0,.67,.01v.65c-.3,0-.56-.03-.68,.13-.12,.15-.06,.58-.07,.72,.24,0,.5,0,.72,0-.03,.24-.07,.49-.1,.72h-.62v1.9h.94c.32,0,.59-.26,.59-.58v-3.89c0-.32-.26-.58-.59-.58"/><path class="d" d="M34.68,18.03h-3.84c-.32,0-.58,.26-.58,.57v3.84c0,.32,.26,.57,.58,.57h3.84c.32,0,.58-.26,.58-.57v-3.84c0-.32-.26-.57-.58-.57m-2.8,4.11h-.71v-2.26s0-.02,0-.02h.71v2.27Zm-.14-2.64c-.27,.17-.63-.03-.63-.35,0-.22,.17-.39,.39-.41,.22-.01,.41,.15,.43,.36,.02,.18-.08,.33-.19,.4m2.78,2.64h-.72v-.76c0-.37,.05-.78-.18-.9-.2-.11-.46,0-.53,.14-.1,.17-.07,.44-.07,.73v.79h-.71v-2.27h.68v.31c.13-.19,.32-.34,.63-.36,.29-.02,.53,.07,.66,.21,.39,.4,.17,1.39,.23,2.12"/><path class="d" d="M15.89,18.73c-.21,.09-.44,.16-.68,.19,.24-.15,.43-.38,.52-.65-.23,.13-.48,.23-.75,.29-.21-.23-.52-.37-.86-.37-.65,0-1.18,.53-1.18,1.18,0,.09,.01,.18,.03,.27-.98-.05-1.85-.52-2.44-1.23-.1,.17-.16,.38-.16,.59,0,.41,.21,.77,.53,.98-.19,0-.38-.06-.54-.15h0c0,.59,.41,1.06,.95,1.17-.1,.03-.2,.04-.31,.04-.08,0-.15,0-.22-.02,.15,.47,.59,.81,1.1,.82-.4,.32-.91,.5-1.47,.5-.1,0-.19,0-.28-.02,.52,.34,1.14,.53,1.81,.53,2.17,0,3.36-1.8,3.36-3.36,0-.05,0-.1,0-.15,.23-.17,.43-.38,.59-.61"/><rect class="d" x="7.76" y="17.16" width=".26" height="6.72"/><rect class="d" x="17.63" y="17.16" width=".26" height="6.72"/><rect class="d" x="27.86" y="17.16" width=".26" height="6.72"/><rect class="d" x="37.34" y="17.16" width=".26" height="6.72"/><path class="f" d="M25.46,20.53c0,.38,.02,.76,0,1.15-.04,.57-.26,1.05-.82,1.29-.21,.09-.45,.15-.68,.16-.72,.02-1.44,.02-2.16,0-.88-.01-1.48-.59-1.51-1.47-.02-.76-.02-1.53,0-2.29,.03-.86,.62-1.44,1.48-1.46,.74-.02,1.48-.02,2.21,0,.85,.02,1.44,.62,1.47,1.47,.01,.38,0,.76,0,1.15h0Zm-4.69,0h0c0,.39-.02,.78,0,1.16,.03,.58,.35,.92,.94,.94,.78,.02,1.56,.02,2.35,0,.55-.02,.89-.36,.91-.91,.02-.8,.02-1.6,0-2.4-.02-.54-.37-.89-.9-.9-.79-.02-1.59-.02-2.38,0-.55,.02-.88,.36-.91,.91-.02,.4,0,.8,0,1.2"/><path class="f" d="M24.21,20.52c0,.74-.59,1.34-1.33,1.35-.74,0-1.34-.6-1.34-1.35,0-.74,.6-1.34,1.34-1.34,.73,0,1.33,.6,1.33,1.34m-1.34-.87c-.47,0-.87,.41-.87,.89,0,.47,.41,.86,.87,.86,.48,0,.87-.41,.87-.89,0-.47-.41-.86-.87-.86"/><path class="f" d="M24.26,19.43c-.17,0-.31-.15-.31-.32,0-.17,.16-.31,.33-.3,.16,0,.3,.16,.3,.31,0,.17-.15,.31-.32,.31"/><path class="d" d="M46.03,19.14c-.12-.47-.34-.65-.74-.71-.23-.03-1.35-.08-2.23-.08h0c-.88,0-2,.04-2.23,.08-.4,.06-.62,.24-.74,.71-.04,.16-.09,1.02-.09,1.34v.07c0,.33,.05,1.19,.09,1.34,.12,.47,.34,.65,.74,.71,.23,.03,1.35,.08,2.23,.08s2-.04,2.23-.08c.4-.06,.62-.24,.74-.71,.04-.16,.09-1.02,.09-1.34v-.07c0-.33-.05-1.19-.09-1.34m-3.6,2.24v-1.74l1.63,.85-1.63,.89Z"/></g><text class="e" transform="translate(0 4.36)"><tspan class="l"><tspan class="j" x="0" y="0">Connect with </tspan><tspan class="h" x="30.96" y="0">@DVRPC</tspan><tspan class="j" x="52.06" y="0">!</tspan></tspan><tspan class="g"><tspan x="0" y="8.4">ww</tspan><tspan class="k" x="9.99" y="8.4">w</tspan><tspan x="14.58" y="8.4">.dvrpc.org</tspan></tspan></text></g></g></svg>