<?xml version="1.0" encoding="UTF-8"?><svg xmlns="http://www.w3.org/2000/svg" viewBox="0 0 34.86 34.86"><defs><style>.d{fill:#fff;}.e{fill:#004054;}</style></defs><g id="a"/><g id="b"><g id="c"><rect class="d" width="34.86" height="34.86"/><g><rect class="e" x="2.91" y="2.63" width="1.02" height="2.04"/><rect class="e" x="2.91" y="4.67" width="1.02" height="2.04"/><rect class="e" x="2.91" y="6.72" width="1.02" height="3.06"/><rect class="e" x="2.91" y="10.8" width="1.02" height="1.02"/><rect class="e" x="2.91" y="17.95" width="1.02" height="6.13"/><rect class="e" x="2.91" y="25.1" width="1.02" height="7.15"/><rect class="e" x="3.94" y="2.63" width="1.02" height="1.02"/><rect class="e" x="3.94" y="8.76" width="1.02" height="1.02"/><rect class="e" x="3.94" y="12.85" width="1.02" height="1.02"/><rect class="e" x="3.94" y="17.95" width="1.02" height="1.02"/><rect class="e" x="3.94" y="25.1" width="1.02" height="1.02"/><rect class="e" x="3.94" y="31.23" width="1.02" height="1.02"/><rect class="e" x="4.96" y="2.63" width="1.02" height="1.02"/><rect class="e" x="4.96" y="4.67" width="1.02" height="2.04"/><rect class="e" x="4.96" y="6.72" width="1.02" height="1.02"/><rect class="e" x="4.96" y="8.76" width="1.02" height="1.02"/><rect class="e" x="4.96" y="10.8" width="1.02" height="1.02"/><rect class="e" x="4.96" y="12.85" width="1.02" height="3.06"/><rect class="e" x="4.96" y="16.93" width="1.02" height="1.02"/><rect class="e" x="4.96" y="18.98" width="1.02" height="1.02"/><rect class="e" x="4.96" y="21.02" width="1.02" height="1.02"/><rect class="e" x="4.96" y="23.06" width="1.02" height="1.02"/><rect class="e" x="4.96" y="25.1" width="1.02" height="1.02"/><rect class="e" x="4.96" y="27.15" width="1.02" height="3.06"/><rect class="e" x="4.96" y="31.23" width="1.02" height="1.02"/><rect class="e" x="5.98" y="2.63" width="1.02" height="1.02"/><rect class="e" x="5.98" y="4.67" width="1.02" height="2.04"/><rect class="e" x="5.98" y="6.72" width="1.02" height="1.02"/><rect class="e" x="5.98" y="8.76" width="1.02" height="1.02"/><rect class="e" x="5.98" y="10.8" width="1.02" height="1.02"/><rect class="e" x="5.98" y="13.87" width="1.02" height="1.02"/><rect class="e" x="5.98" y="15.91" width="1.02" height="1.02"/><rect class="e" x="5.98" y="18.98" width="1.02" height="1.02"/><rect class="e" x="5.98" y="22.04" width="1.02" height="1.02"/><rect class="e" x="5.98" y="25.1" width="1.02" height="1.02"/><rect class="e" x="5.98" y="27.15" width="1.02" height="3.06"/><rect class="e" x="5.98" y="31.23" width="1.02" height="1.02"/><rect class="e" x="7" y="2.63" width="1.02" height="1.02"/><rect class="e" x="7" y="4.67" width="1.02" height="2.04"/><rect class="e" x="7" y="6.72" width="1.02" height="1.02"/><rect class="e" x="7" y="8.76" width="1.02" height="1.02"/><rect class="e" x="7" y="10.8" width="1.02" height="2.04"/><rect class="e" x="7" y="13.87" width="1.02" height="1.02"/><rect class="e" x="7" y="16.93" width="1.02" height="1.02"/><rect class="e" x="7" y="18.98" width="1.02" height="1.02"/><rect class="e" x="7" y="21.02" width="1.02" height="1.02"/><rect class="e" x="7" y="23.06" width="1.02" height="1.02"/><rect class="e" x="7" y="25.1" width="1.02" height="1.02"/><rect class="e" x="7" y="27.15" width="1.02" height="3.06"/><rect class="e" x="7" y="31.23" width="1.02" height="1.02"/><rect class="e" x="8.02" y="2.63" width="1.02" height="1.02"/><rect class="e" x="8.02" y="8.76" width="1.02" height="1.02"/><rect class="e" x="8.02" y="10.8" width="1.02" height="1.02"/><rect class="e" x="8.02" y="15.91" width="1.02" height="1.02"/><rect class="e" x="8.02" y="17.95" width="1.02" height="1.02"/><rect class="e" x="8.02" y="20" width="1.02" height="3.06"/><rect class="e" x="8.02" y="25.1" width="1.02" height="1.02"/><rect class="e" x="8.02" y="31.23" width="1.02" height="1.02"/><rect class="e" x="9.04" y="2.63" width="1.02" height="2.04"/><rect class="e" x="9.04" y="4.67" width="1.02" height="2.04"/><rect class="e" x="9.04" y="6.72" width="1.02" height="3.06"/><rect class="e" x="9.04" y="10.8" width="1.02" height="1.02"/><rect class="e" x="9.04" y="12.85" width="1.02" height="1.02"/><rect class="e" x="9.04" y="14.89" width="1.02" height="1.02"/><rect class="e" x="9.04" y="16.93" width="1.02" height="1.02"/><rect class="e" x="9.04" y="18.98" width="1.02" height="1.02"/><rect class="e" x="9.04" y="21.02" width="1.02" height="1.02"/><rect class="e" x="9.04" y="23.06" width="1.02" height="1.02"/><rect class="e" x="9.04" y="25.1" width="1.02" height="7.15"/><rect class="e" x="10.07" y="12.85" width="1.02" height="1.02"/><rect class="e" x="10.07" y="14.89" width="1.02" height="3.06"/><rect class="e" x="10.07" y="18.98" width="1.02" height="1.02"/><rect class="e" x="10.07" y="23.06" width="1.02" height="1.02"/><rect class="e" x="11.09" y="4.67" width="1.02" height="2.04"/><rect class="e" x="11.09" y="6.72" width="1.02" height="4.09"/><rect class="e" x="11.09" y="11.82" width="1.02" height="3.06"/><rect class="e" x="11.09" y="15.91" width="1.02" height="1.02"/><rect class="e" x="11.09" y="21.02" width="1.02" height="4.09"/><rect class="e" x="11.09" y="26.13" width="1.02" height="4.09"/><rect class="e" x="11.09" y="31.23" width="1.02" height="1.02"/><rect class="e" x="12.11" y="3.65" width="1.02" height="1.02"/><rect class="e" x="12.11" y="4.67" width="1.02" height="2.04"/><rect class="e" x="12.11" y="6.72" width="1.02" height="1.02"/><rect class="e" x="12.11" y="10.8" width="1.02" height="3.06"/><rect class="e" x="12.11" y="15.91" width="1.02" height="3.06"/><rect class="e" x="12.11" y="20" width="1.02" height="1.02"/><rect class="e" x="12.11" y="22.04" width="1.02" height="1.02"/><rect class="e" x="12.11" y="30.21" width="1.02" height="1.02"/><rect class="e" x="13.13" y="3.65" width="1.02" height="1.02"/><rect class="e" x="13.13" y="4.67" width="1.02" height="1.02"/><rect class="e" x="13.13" y="7.74" width="1.02" height="2.04"/><rect class="e" x="13.13" y="11.82" width="1.02" height="1.02"/><rect class="e" x="13.13" y="13.87" width="1.02" height="1.02"/><rect class="e" x="13.13" y="16.93" width="1.02" height="1.02"/><rect class="e" x="13.13" y="22.04" width="1.02" height="1.02"/><rect class="e" x="13.13" y="25.1" width="1.02" height="3.06"/><rect class="e" x="13.13" y="29.19" width="1.02" height="1.02"/><rect class="e" x="14.15" y="2.63" width="1.02" height="1.02"/><rect class="e" x="14.15" y="4.67" width="1.02" height="1.02"/><rect class="e" x="14.15" y="6.72" width="1.02" height="1.02"/><rect class="e" x="14.15" y="11.82" width="1.02" height="1.02"/><rect class="e" x="14.15" y="13.87" width="1.02" height="1.02"/><rect class="e" x="14.15" y="20" width="1.02" height="2.04"/><rect class="e" x="14.15" y="25.1" width="1.02" height="1.02"/><rect class="e" x="14.15" y="27.15" width="1.02" height="1.02"/><rect class="e" x="14.15" y="29.19" width="1.02" height="2.04"/><rect class="e" x="15.17" y="2.63" width="1.02" height="2.04"/><rect class="e" x="15.17" y="4.67" width="1.02" height="2.04"/><rect class="e" x="15.17" y="6.72" width="1.02" height="1.02"/><rect class="e" x="15.17" y="8.76" width="1.02" height="2.04"/><rect class="e" x="15.17" y="11.82" width="1.02" height="3.06"/><rect class="e" x="15.17" y="15.91" width="1.02" height="2.04"/><rect class="e" x="15.17" y="18.98" width="1.02" height="1.02"/><rect class="e" x="15.17" y="22.04" width="1.02" height="1.02"/><rect class="e" x="15.17" y="24.08" width="1.02" height="2.04"/><rect class="e" x="15.17" y="27.15" width="1.02" height="1.02"/><rect class="e" x="15.17" y="29.19" width="1.02" height="3.06"/><rect class="e" x="16.2" y="2.63" width="1.02" height="2.04"/><rect class="e" x="16.2" y="5.69" width="1.02" height="1.02"/><rect class="e" x="16.2" y="6.72" width="1.02" height="1.02"/><rect class="e" x="16.2" y="11.82" width="1.02" height="3.06"/><rect class="e" x="16.2" y="20" width="1.02" height="3.06"/><rect class="e" x="16.2" y="28.17" width="1.02" height="1.02"/><rect class="e" x="17.22" y="4.67" width="1.02" height="1.02"/><rect class="e" x="17.22" y="6.72" width="1.02" height="1.02"/><rect class="e" x="17.22" y="8.76" width="1.02" height="1.02"/><rect class="e" x="17.22" y="12.85" width="1.02" height="1.02"/><rect class="e" x="17.22" y="14.89" width="1.02" height="1.02"/><rect class="e" x="17.22" y="17.95" width="1.02" height="1.02"/><rect class="e" x="17.22" y="20" width="1.02" height="2.04"/><rect class="e" x="17.22" y="23.06" width="1.02" height="1.02"/><rect class="e" x="17.22" y="26.13" width="1.02" height="1.02"/><rect class="e" x="17.22" y="28.17" width="1.02" height="1.02"/><rect class="e" x="17.22" y="30.21" width="1.02" height="1.02"/><rect class="e" x="18.24" y="3.65" width="1.02" height="1.02"/><rect class="e" x="18.24" y="5.69" width="1.02" height="1.02"/><rect class="e" x="18.24" y="6.72" width="1.02" height="2.04"/><rect class="e" x="18.24" y="9.78" width="1.02" height="2.04"/><rect class="e" x="18.24" y="14.89" width="1.02" height="1.02"/><rect class="e" x="18.24" y="16.93" width="1.02" height="3.06"/><rect class="e" x="18.24" y="21.02" width="1.02" height="1.02"/><rect class="e" x="18.24" y="23.06" width="1.02" height="1.02"/><rect class="e" x="18.24" y="25.1" width="1.02" height="3.06"/><rect class="e" x="18.24" y="29.19" width="1.02" height="3.06"/><rect class="e" x="19.26" y="3.65" width="1.02" height="1.02"/><rect class="e" x="19.26" y="4.67" width="1.02" height="1.02"/><rect class="e" x="19.26" y="6.72" width="1.02" height="1.02"/><rect class="e" x="19.26" y="8.76" width="1.02" height="1.02"/><rect class="e" x="19.26" y="12.85" width="1.02" height="3.06"/><rect class="e" x="19.26" y="21.02" width="1.02" height="1.02"/><rect class="e" x="19.26" y="23.06" width="1.02" height="4.09"/><rect class="e" x="19.26" y="28.17" width="1.02" height="3.06"/><rect class="e" x="20.28" y="3.65" width="1.02" height="1.02"/><rect class="e" x="20.28" y="5.69" width="1.02" height="1.02"/><rect class="e" x="20.28" y="6.72" width="1.02" height="2.04"/><rect class="e" x="20.28" y="10.8" width="1.02" height="2.04"/><rect class="e" x="20.28" y="14.89" width="1.02" height="2.04"/><rect class="e" x="20.28" y="18.98" width="1.02" height="2.04"/><rect class="e" x="20.28" y="23.06" width="1.02" height="1.02"/><rect class="e" x="20.28" y="27.15" width="1.02" height="1.02"/><rect class="e" x="20.28" y="31.23" width="1.02" height="1.02"/><rect class="e" x="21.3" y="2.63" width="1.02" height="2.04"/><rect class="e" x="21.3" y="6.72" width="1.02" height="1.02"/><rect class="e" x="21.3" y="8.76" width="1.02" height="1.02"/><rect class="e" x="21.3" y="11.82" width="1.02" height="1.02"/><rect class="e" x="21.3" y="15.91" width="1.02" height="1.02"/><rect class="e" x="21.3" y="20" width="1.02" height="2.04"/><rect class="e" x="21.3" y="26.13" width="1.02" height="1.02"/><rect class="e" x="21.3" y="30.21" width="1.02" height="1.02"/><rect class="e" x="22.33" y="4.67" width="1.02" height="2.04"/><rect class="e" x="22.33" y="6.72" width="1.02" height="1.02"/><rect class="e" x="22.33" y="9.78" width="1.02" height="1.02"/><rect class="e" x="22.33" y="11.82" width="1.02" height="1.02"/><rect class="e" x="22.33" y="13.87" width="1.02" height="1.02"/><rect class="e" x="22.33" y="15.91" width="1.02" height="1.02"/><rect class="e" x="22.33" y="17.95" width="1.02" height="3.06"/><rect class="e" x="22.33" y="22.04" width="1.02" height="2.04"/><rect class="e" x="22.33" y="25.1" width="1.02" height="1.02"/><rect class="e" x="22.33" y="28.17" width="1.02" height="1.02"/><rect class="e" x="22.33" y="31.23" width="1.02" height="1.02"/><rect class="e" x="23.35" y="2.63" width="1.02" height="2.04"/><rect class="e" x="23.35" y="4.67" width="1.02" height="1.02"/><rect class="e" x="23.35" y="7.74" width="1.02" height="3.06"/><rect class="e" x="23.35" y="11.82" width="1.02" height="1.02"/><rect class="e" x="23.35" y="14.89" width="1.02" height="4.09"/><rect class="e" x="23.35" y="20" width="1.02" height="1.02"/><rect class="e" x="23.35" y="22.04" width="1.02" height="7.15"/><rect class="e" x="23.35" y="30.21" width="1.02" height="1.02"/><rect class="e" x="24.37" y="11.82" width="1.02" height="1.02"/><rect class="e" x="24.37" y="13.87" width="1.02" height="1.02"/><rect class="e" x="24.37" y="17.95" width="1.02" height="1.02"/><rect class="e" x="24.37" y="21.02" width="1.02" height="3.06"/><rect class="e" x="24.37" y="27.15" width="1.02" height="1.02"/><rect class="e" x="24.37" y="30.21" width="1.02" height="2.04"/><rect class="e" x="25.39" y="2.63" width="1.02" height="2.04"/><rect class="e" x="25.39" y="4.67" width="1.02" height="2.04"/><rect class="e" x="25.39" y="6.72" width="1.02" height="3.06"/><rect class="e" x="25.39" y="10.8" width="1.02" height="2.04"/><rect class="e" x="25.39" y="15.91" width="1.02" height="1.02"/><rect class="e" x="25.39" y="17.95" width="1.02" height="1.02"/><rect class="e" x="25.39" y="20" width="1.02" height="1.02"/><rect class="e" x="25.39" y="22.04" width="1.02" height="2.04"/><rect class="e" x="25.39" y="25.1" width="1.02" height="1.02"/><rect class="e" x="25.39" y="27.15" width="1.02" height="1.02"/><rect class="e" x="25.39" y="29.19" width="1.02" height="1.02"/><rect class="e" x="26.41" y="2.63" width="1.02" height="1.02"/><rect class="e" x="26.41" y="8.76" width="1.02" height="1.02"/><rect class="e" x="26.41" y="10.8" width="1.02" height="2.04"/><rect class="e" x="26.41" y="13.87" width="1.02" height="1.02"/><rect class="e" x="26.41" y="16.93" width="1.02" height="7.15"/><rect class="e" x="26.41" y="27.15" width="1.02" height="5.11"/><rect class="e" x="27.43" y="2.63" width="1.02" height="1.02"/><rect class="e" x="27.43" y="4.67" width="1.02" height="2.04"/><rect class="e" x="27.43" y="6.72" width="1.02" height="1.02"/><rect class="e" x="27.43" y="8.76" width="1.02" height="1.02"/><rect class="e" x="27.43" y="10.8" width="1.02" height="2.04"/><rect class="e" x="27.43" y="15.91" width="1.02" height="1.02"/><rect class="e" x="27.43" y="17.95" width="1.02" height="1.02"/><rect class="e" x="27.43" y="20" width="1.02" height="1.02"/><rect class="e" x="27.43" y="22.04" width="1.02" height="6.13"/><rect class="e" x="27.43" y="29.19" width="1.02" height="1.02"/><rect class="e" x="27.43" y="31.23" width="1.02" height="1.02"/><rect class="e" x="28.45" y="2.63" width="1.02" height="1.02"/><rect class="e" x="28.45" y="4.67" width="1.02" height="2.04"/><rect class="e" x="28.45" y="6.72" width="1.02" height="1.02"/><rect class="e" x="28.45" y="8.76" width="1.02" height="1.02"/><rect class="e" x="28.45" y="10.8" width="1.02" height="1.02"/><rect class="e" x="28.45" y="13.87" width="1.02" height="2.04"/><rect class="e" x="28.45" y="16.93" width="1.02" height="1.02"/><rect class="e" x="28.45" y="18.98" width="1.02" height="1.02"/><rect class="e" x="28.45" y="24.08" width="1.02" height="2.04"/><rect class="e" x="28.45" y="28.17" width="1.02" height="4.09"/><rect class="e" x="29.48" y="2.63" width="1.02" height="1.02"/><rect class="e" x="29.48" y="4.67" width="1.02" height="2.04"/><rect class="e" x="29.48" y="6.72" width="1.02" height="1.02"/><rect class="e" x="29.48" y="8.76" width="1.02" height="1.02"/><rect class="e" x="29.48" y="10.8" width="1.02" height="1.02"/><rect class="e" x="29.48" y="14.89" width="1.02" height="1.02"/><rect class="e" x="29.48" y="16.93" width="1.02" height="1.02"/><rect class="e" x="29.48" y="18.98" width="1.02" height="3.06"/><rect class="e" x="29.48" y="23.06" width="1.02" height="3.06"/><rect class="e" x="29.48" y="27.15" width="1.02" height="3.06"/><rect class="e" x="29.48" y="31.23" width="1.02" height="1.02"/><rect class="e" x="30.5" y="2.63" width="1.02" height="1.02"/><rect class="e" x="30.5" y="8.76" width="1.02" height="1.02"/><rect class="e" x="30.5" y="13.87" width="1.02" height="1.02"/><rect class="e" x="30.5" y="17.95" width="1.02" height="1.02"/><rect class="e" x="30.5" y="22.04" width="1.02" height="3.06"/><rect class="e" x="30.5" y="26.13" width="1.02" height="5.11"/><rect class="e" x="31.52" y="2.63" width="1.02" height="2.04"/><rect class="e" x="31.52" y="4.67" width="1.02" height="2.04"/><rect class="e" x="31.52" y="6.72" width="1.02" height="3.06"/><rect class="e" x="31.52" y="11.82" width="1.02" height="1.02"/><rect class="e" x="31.52" y="15.91" width="1.02" height="1.02"/><rect class="e" x="31.52" y="20" width="1.02" height="1.02"/><rect class="e" x="31.52" y="23.06" width="1.02" height="2.04"/><rect class="e" x="31.52" y="28.17" width="1.02" height="1.02"/></g></g></g></svg>