<?xml version="1.0" encoding="UTF-8"?><svg xmlns="http://www.w3.org/2000/svg" viewBox="0 0 84.69 57.86"><defs><style>.d{fill:#636464;}.e{fill:#707171;}.f{fill:#0078ae;}.g{fill:#67abd1;}.h{fill:#b4b4b5;}</style></defs><g id="a"/><g id="b"><g id="c"><g><g><g><path class="e" d="M.62,34.03H0v-5.48H.62v5.48Z"/><path class="e" d="M2.58,30.67h.01c.18-.46,.75-.51,1.18-.51,.98,0,1.46,.26,1.45,1.33v2.55h-.58v-2.59c0-.7-.27-.82-.92-.82-.94,0-1.15,.29-1.15,1.18v2.23h-.58v-3.83h.58v.47Z"/><path class="e" d="M8.33,30.2v.47h-1.01v3.37h-.58v-3.37h-.58v-.47h.58v-.46c0-.93,.29-1.23,1.23-1.23,.12,0,.24,0,.36,.01v.47c-.12,0-.24-.01-.36-.01-.58,0-.66,.19-.66,.7v.52h1.01Z"/><path class="e" d="M10.75,30.16c1.42,0,1.7,.34,1.7,1.96s-.28,1.96-1.7,1.96-1.7-.34-1.7-1.96,.28-1.96,1.7-1.96Zm0,3.45c1.03,0,1.1-.16,1.1-1.49s-.07-1.5-1.1-1.5-1.1,.16-1.1,1.5,.07,1.49,1.1,1.49Z"/><path class="e" d="M14.17,30.2l-.03,.47h.01c.2-.41,.66-.52,1.09-.52,.74,0,1.07,.37,1.07,1.08v.28h-.55v-.26c0-.47-.16-.64-.64-.64-.71,0-.95,.34-.93,1.02v2.39h-.58v-3.83h.56Z"/><path class="e" d="M17.84,30.79h.02c.2-.5,.79-.64,1.28-.64,.46,0,1.05,.13,1.18,.64,.26-.51,.85-.64,1.37-.64,.98,0,1.33,.4,1.33,1.35v2.53h-.58v-2.47c0-.65-.09-.94-.84-.94-.82,0-1.17,.23-1.17,1.06v2.35h-.58v-2.57c-.02-.51-.02-.84-.85-.84-.76,0-1.15,.32-1.15,1.1v2.31h-.58v-3.83h.58v.59Z"/><path class="e" d="M26.94,34.03v-.4h-.01c-.22,.42-.78,.44-1.26,.44-.86,0-1.46-.16-1.46-1.16,0-1.06,.55-1.2,1.5-1.2,.38,0,1.12,.04,1.2,.39h.04v-.71c0-.7-.37-.77-1.02-.77-.45,0-1.01,0-1,.53v.13h-.6v-.08c0-.99,.68-1.05,1.53-1.04,.96,0,1.67,.09,1.66,1.26v2.61h-.58Zm-.01-1.14c0-.72-.43-.72-1.16-.72-.69,0-.96,.04-.96,.66,0,.73,.3,.77,.96,.77,.58,0,1.16-.01,1.16-.72Z"/><path class="e" d="M30.89,30.67h-1.48v2.43c0,.42,.12,.51,.54,.51,.54,0,.54-.28,.54-.65v-.28h.55v.28c0,.76-.31,1.12-1.1,1.12-.9,0-1.1-.26-1.1-1.15v-2.26h-.51v-.47h.51v-.93h.58v.93h1.48v.47Z"/><path class="e" d="M32.48,29.19h-.58v-.63h.58v.63Zm0,4.84h-.58v-3.83h.58v3.83Z"/><path class="e" d="M35.42,30.16c1.42,0,1.7,.34,1.7,1.96s-.28,1.96-1.7,1.96-1.7-.34-1.7-1.96,.28-1.96,1.7-1.96Zm0,3.45c1.03,0,1.1-.16,1.1-1.49s-.07-1.5-1.1-1.5-1.1,.16-1.1,1.5,.07,1.49,1.1,1.49Z"/><path class="e" d="M38.94,30.67h.01c.18-.46,.75-.51,1.18-.51,.98,0,1.46,.26,1.45,1.33v2.55h-.58v-2.59c0-.7-.27-.82-.92-.82-.94,0-1.15,.29-1.15,1.18v2.23h-.58v-3.83h.58v.47Z"/><path class="e" d="M46.46,34.03h-.62v-5.48h2.53c1.18,0,1.7,.33,1.7,1.58,0,.77-.09,1.34-.96,1.45h0c.61,.06,.88,.41,.88,1v1.45h-.62v-1.16c0-.69-.17-1.03-.92-1.03h-1.99v2.19Zm1.91-2.74c.96-.03,1.07-.32,1.07-1.23,0-.7-.1-.96-1.07-.96h-1.91v2.19h1.91Z"/><path class="e" d="M54.55,32.87v.14c0,1.01-.78,1.07-1.64,1.07-1.5,0-1.72-.5-1.72-1.96,0-1.59,.35-1.96,1.72-1.96,1.24,0,1.64,.28,1.64,1.7v.39h-2.76c0,1.21,.09,1.36,1.12,1.36,.79,0,1.04-.05,1.04-.59v-.15h.59Zm-.6-1.1c-.03-1.09-.16-1.15-1.04-1.15-1.04,0-1.08,.27-1.12,1.15h2.16Z"/><path class="e" d="M58.84,31.2h-.6v-.15c0-.39-.29-.39-.9-.39-.72,0-1.07,0-1.07,.47,0,.69,.19,.64,.79,.67,.99,.06,1.88-.1,1.88,1.15,0,1.08-.74,1.12-1.6,1.12s-1.7-.04-1.7-.9v-.36h.6v.3c0,.37,.23,.45,1.1,.45,.39,0,1,.09,1-.59,0-.72-.3-.58-1-.63-.83-.06-1.67,.03-1.67-1.06s.64-1.13,1.67-1.13c.67,0,1.5,.03,1.5,.9v.15Z"/><path class="e" d="M61.66,30.16c1.42,0,1.7,.34,1.7,1.96s-.28,1.96-1.7,1.96-1.7-.34-1.7-1.96,.28-1.96,1.7-1.96Zm0,3.45c1.03,0,1.1-.16,1.1-1.49s-.07-1.5-1.1-1.5-1.1,.16-1.1,1.5,.07,1.49,1.1,1.49Z"/><path class="e" d="M67.17,33.52h-.01c-.2,.47-.69,.55-1.2,.55-1.01,0-1.37-.41-1.37-1.42v-2.46h.58v2.46c0,.62,.04,.95,.79,.95,.81,0,1.23-.13,1.23-1.04v-2.37h.58v3.83h-.58v-.51Z"/><path class="e" d="M69.62,30.2l-.03,.47h.01c.2-.41,.66-.52,1.09-.52,.74,0,1.07,.37,1.07,1.08v.28h-.55v-.26c0-.47-.16-.64-.64-.64-.71,0-.95,.34-.93,1.02v2.39h-.58v-3.83h.56Z"/><path class="e" d="M75.91,32.64v.21c0,1.08-.72,1.22-1.63,1.22-1.59,0-1.7-.61-1.7-2.04,0-1.25,.22-1.88,1.61-1.88,.93,0,1.66,.1,1.66,1.19v.1h-.58v-.12c0-.69-.38-.71-1.04-.71-1.02,0-1.04,.35-1.04,1.58,0,1.08,.04,1.41,1.17,1.41,.72,0,.99-.08,.99-.77v-.19h.58Z"/><path class="e" d="M80.3,32.87v.14c0,1.01-.78,1.07-1.64,1.07-1.5,0-1.72-.5-1.72-1.96,0-1.59,.35-1.96,1.72-1.96,1.24,0,1.64,.28,1.64,1.7v.39h-2.76c0,1.21,.09,1.36,1.12,1.36,.79,0,1.04-.05,1.04-.59v-.15h.59Zm-.6-1.1c-.03-1.09-.16-1.15-1.04-1.15-1.04,0-1.08,.27-1.12,1.15h2.16Z"/><path class="e" d="M84.59,31.2h-.6v-.15c0-.39-.29-.39-.9-.39-.72,0-1.07,0-1.07,.47,0,.69,.19,.64,.79,.67,.99,.06,1.88-.1,1.88,1.15,0,1.08-.74,1.12-1.6,1.12s-1.7-.04-1.7-.9v-.36h.6v.3c0,.37,.23,.45,1.1,.45,.39,0,1,.09,1-.59,0-.72-.3-.58-1-.63-.83-.06-1.67,.03-1.67-1.06s.64-1.13,1.67-1.13c.67,0,1.5,.03,1.5,.9v.15Z"/></g><g><path class="e" d="M13.12,39.86h2.77v.51h-2.77v2.01h2.9v.55h-3.52v-5.47h3.52v.55h-2.9v1.86Z"/><path class="e" d="M18.63,40.93l1.36,2h-.69l-.99-1.55-.99,1.55h-.69l1.39-2-1.24-1.83h.65l.89,1.4,.87-1.4h.67l-1.22,1.83Z"/><path class="e" d="M24.02,41.54v.21c0,1.08-.72,1.22-1.63,1.22-1.59,0-1.7-.61-1.7-2.04,0-1.25,.22-1.88,1.61-1.88,.93,0,1.66,.1,1.66,1.19v.1h-.58v-.12c0-.69-.38-.71-1.04-.71-1.02,0-1.04,.35-1.04,1.58,0,1.08,.04,1.41,1.17,1.41,.72,0,.99-.08,.99-.77v-.19h.58Z"/><path class="e" d="M25.76,39.56h.01c.18-.46,.75-.51,1.18-.51,.99,0,1.46,.26,1.45,1.33v2.55h-.58v-2.59c0-.7-.27-.82-.92-.82-.94,0-1.15,.29-1.15,1.18v2.23h-.58v-5.47h.58v2.11Z"/><path class="e" d="M32.37,42.93v-.41c-.23,.44-.8,.45-1.28,.45-.86,0-1.46-.16-1.46-1.16,0-1.06,.55-1.2,1.5-1.2,.38,0,1.12,.04,1.2,.39h.04v-.71c0-.7-.37-.77-1.02-.77-.45,0-1.01,0-1,.53v.13h-.6v-.08c0-.98,.68-1.05,1.53-1.04,.96,0,1.67,.1,1.66,1.26v2.61h-.58Zm-.01-1.14c0-.72-.43-.72-1.16-.72-.69,0-.96,.04-.96,.66,0,.73,.3,.77,.96,.77,.58,0,1.16-.01,1.16-.71Z"/><path class="e" d="M34.88,39.56h.01c.18-.46,.75-.51,1.18-.51,.98,0,1.46,.26,1.45,1.33v2.55h-.58v-2.59c0-.7-.27-.82-.92-.82-.94,0-1.15,.29-1.15,1.18v2.23h-.58v-3.83h.58v.47Z"/><path class="e" d="M42.1,43.38c0,1.02-.76,1.25-1.69,1.25s-1.59-.14-1.53-1.25h.58c0,.74,.35,.78,.96,.78,.69,0,1.1-.07,1.11-.82v-.88h-.01c-.16,.47-.78,.52-1.23,.52-1.24,0-1.51-.64-1.51-1.96s.2-1.96,1.51-1.96c.53,0,1.01,.07,1.23,.53h.01v-.49h.58v4.28Zm-.58-2.36c0-1.07-.07-1.5-1.11-1.5s-1.05,.49-1.05,1.5c0,.92-.07,1.49,1.05,1.49s1.11-.64,1.11-1.49Z"/><path class="e" d="M46.67,41.77v.14c0,1.01-.78,1.07-1.64,1.07-1.5,0-1.72-.5-1.72-1.96,0-1.59,.35-1.96,1.72-1.96,1.24,0,1.64,.28,1.64,1.7v.39h-2.76c0,1.21,.09,1.37,1.12,1.37,.79,0,1.04-.05,1.04-.59v-.15h.59Zm-.6-1.09c-.03-1.09-.16-1.15-1.04-1.15-1.04,0-1.08,.27-1.12,1.15h2.16Z"/><path class="e" d="M55.14,40.19v1.19c0,1.28-.58,1.59-1.82,1.59h-.6c-1.46,0-2.1-.27-2.1-1.96v-1.69c0-1.48,.67-1.91,1.61-1.91h1.44c.83,0,1.46,.34,1.46,1.22v.42h-.62v-.31c0-.63-.25-.78-1.14-.78h-.77c-1.18,0-1.36,.23-1.36,1.43v1.76c0,1.04,.35,1.28,1.37,1.28h.58c1.09,0,1.32-.13,1.32-1.01v-.68h-1.74v-.55h2.36Z"/><path class="e" d="M56.73,39.1l-.03,.47v.02c.21-.42,.67-.53,1.1-.53,.74,0,1.07,.36,1.07,1.08v.28h-.55v-.26c0-.47-.16-.64-.64-.64-.71,0-.95,.34-.93,1.02v2.39h-.58v-3.83h.56Z"/><path class="e" d="M61.42,39.05c1.42,0,1.7,.34,1.7,1.96s-.28,1.96-1.7,1.96-1.7-.34-1.7-1.96,.28-1.96,1.7-1.96Zm0,3.45c1.03,0,1.1-.16,1.1-1.49s-.07-1.5-1.1-1.5-1.1,.16-1.1,1.5,.07,1.49,1.1,1.49Z"/><path class="e" d="M66.93,42.42h-.01c-.2,.47-.69,.55-1.2,.55-1.01,0-1.37-.41-1.37-1.42v-2.46h.58v2.46c0,.62,.04,.95,.79,.95,.81,0,1.23-.13,1.23-1.04v-2.36h.58v3.83h-.58v-.51Z"/><path class="e" d="M69.44,39.56l.02,.02c.23-.44,.75-.53,1.23-.53,1.39,0,1.5,.82,1.5,1.96,0,1.52-.37,1.96-1.5,1.96-.44,0-1.01-.05-1.23-.5h-.02v2.11h-.58v-5.49h.58v.47Zm0,1.45c0,.9,.06,1.49,1.09,1.49,.89,0,1.06-.25,1.06-1.49,0-1.15-.08-1.5-1.06-1.5-1.09,0-1.09,.48-1.09,1.5Z"/></g></g><g><g><path class="h" d="M10.32,21.94H4.52V.17h5.8V21.94Z"/><path class="h" d="M15.22,.17h11.2c5.02,.09,7.49,1.16,7.49,6.59,0,3.63,0,5.75-4.12,6.7v.23c2.38,.09,3.92,1.39,3.92,3.86v4.38h-5.81v-3.05c.06-1.63-.64-2.73-2.38-2.73h-4.5v5.78h-5.8V.17Zm10.3,10.94c2.5,0,2.41-.93,2.41-3.4,0-1.94-.49-2.5-2.41-2.5h-4.5v5.89h4.5Z"/><path class="h" d="M44.21,8.91h9.29v4.03h-9.29v4.24h10.1v4.76h-15.91V.17h15.7V4.93h-9.9v3.98Z"/><path class="h" d="M72.68,6.94c-.12-2.21-2-2.18-3.74-2.18-4.18,0-4.3,1.28-4.35,4.79v3.54c0,3.86,1.34,4.27,4.35,4.27s3.74-.67,3.74-3.69h-4.01v-4.03h9.9v3.8c0,7.34-1.86,8.68-9.64,8.68-6.85,0-10.33-1.16-10.33-8.21v-5.63c0-7.2,3.95-8.27,10.33-8.27,5.63,0,9.64,.03,9.64,6.94h-5.89Z"/></g><g><path class="d" d="M12.03,23.66H5.99V1.65h6.04V23.66Zm-5.8-.24h5.56V1.89H6.23V23.42Z"/><path class="d" d="M35.43,23.66h-6.05v-3.16c.04-.9-.17-1.58-.59-2.02-.38-.39-.94-.59-1.67-.59h-4.38v5.77h-6.05V1.65h11.32c5.05,.09,7.61,1.15,7.61,6.71,0,3.62,0,5.81-4.12,6.8v.03c2.49,.13,3.92,1.58,3.92,3.97v4.5Zm-5.81-.24h5.57v-4.27c0-2.29-1.38-3.65-3.8-3.74h-.12v-.44l.09-.02c4.03-.94,4.03-2.94,4.03-6.59,0-5.36-2.48-6.38-7.37-6.47h-11.08V23.42h5.57v-5.77h4.62c.8,0,1.41,.22,1.84,.66,.47,.49,.69,1.23,.66,2.19v2.92Zm-2.5-10.59h-4.62V6.7h4.62c1.96,0,2.53,.59,2.53,2.61v.24c0,1.34,0,2.23-.51,2.74-.37,.37-.97,.53-2.02,.53Zm-4.38-.24h4.38c.96,0,1.53-.14,1.85-.46,.44-.44,.44-1.29,.44-2.58v-.24c0-1.91-.45-2.38-2.29-2.38h-4.38v5.66Z"/><path class="d" d="M56.03,23.66h-16.15V1.65h15.95V6.65h-9.9v3.74h9.29v4.27h-9.29v4h10.1v4.99Zm-15.91-.24h15.67v-4.52h-10.1v-4.47h9.29v-3.8h-9.29V6.41h9.9V1.89h-15.47V23.42Z"/><path class="d" d="M70.54,23.83c-6.94,0-10.46-1.29-10.46-8.33v-5.63c0-7.05,3.68-8.39,10.46-8.39,5.66,0,9.76,0,9.76,7.06v.12h-6.12v-.11c-.12-2.07-1.87-2.06-3.57-2.07h-.06c-4.16,0-4.18,1.27-4.24,4.68v3.54c0,3.77,1.23,4.15,4.24,4.15s3.6-.65,3.62-3.45h-4v-4.27h10.14v3.92c0,7.23-1.73,8.8-9.76,8.8Zm0-22.12c-6.63,0-10.22,1.3-10.22,8.15v5.63c0,6.88,3.3,8.1,10.22,8.1,7.92,0,9.52-1.44,9.52-8.56v-3.68h-9.66v3.8h4v.12c0,3.02-.8,3.8-3.86,3.8s-4.47-.43-4.47-4.38v-3.54c.06-3.65,.29-4.91,4.47-4.91h.12c1.68,0,3.55,.03,3.73,2.18h5.66c-.05-6.7-4.02-6.7-9.52-6.7Z"/></g></g><g><g><path class="g" d="M31.1,50.03c-.36-.16-.76-.25-1.17-.25-1.6,0-2.91,1.3-2.91,2.91,0,.99,.49,1.86,1.25,2.38l2.83-5.04Zm-3.66,3.71l.24-.15c.77-.53,1.38-1.24,1.62-2.16,.11-.42,.16-.86,.16-1.29v-.17h.01s.07,.1,.05,.08c.04,.05,.07,.1,.1,.15,.03,.05,.06,.1,.08,.16,.02,.06,.04,.11,.06,.17,.24,.77,.1,1.72-.42,2.34-.15,.17-.33,.35-.52,.48-.31,.2-.66,.34-1.02,.39-.12,.02-.27,.03-.35,0Z"/><path class="g" d="M31.56,50.29l-2.84,5.05c.37,.17,.77,.26,1.2,.26,1.61,0,2.91-1.3,2.91-2.91,0-1-.5-1.88-1.27-2.4Zm-1.02,3.62c-.13,.44-.19,.89-.21,1.35,0,.06,0,.12,0,.18h-.01s-.07-.11-.05-.09c-.04-.05-.07-.11-.1-.17-.03-.06-.05-.11-.07-.17-.02-.06-.04-.12-.06-.18-.22-.82-.04-1.81,.53-2.44,.16-.18,.36-.36,.56-.48,.33-.2,.69-.33,1.07-.37,.13-.01,.28-.02,.37,0l-.26,.15c-.82,.52-1.47,1.25-1.76,2.21Z"/></g><path class="f" d="M38.67,55.03h-1.28v-.48h-.02c-.11,.19-.44,.63-1.34,.63-1.36,0-2.24-1.05-2.24-2.4,0-1.52,1.08-2.38,2.22-2.38,.79,0,1.17,.39,1.32,.53v-3.18h1.34v7.28Zm-2.41-1.11c.84,0,1.15-.69,1.15-1.15,0-.54-.39-1.12-1.13-1.12s-1.14,.61-1.14,1.12c0,.69,.49,1.15,1.12,1.15Z"/><path class="f" d="M42.18,55.03h-1.28l-1.61-4.48h1.39l.86,2.79h.02l.86-2.79h1.39l-1.61,4.48Z"/><path class="f" d="M44.41,50.55h1.26v.48h.02c.11-.22,.35-.63,1.12-.63v1.35c-.62,.02-1.06,.15-1.06,.82v2.46h-1.34v-4.48Z"/><path class="f" d="M47.51,50.55h1.26v.49h.02c.27-.34,.71-.65,1.4-.65,1.59,0,2.19,1.4,2.19,2.44,0,1.29-.9,2.35-2.18,2.35-.81,0-1.19-.39-1.35-.56v3.23h-1.34v-7.31Zm3.53,2.24c0-.53-.39-1.15-1.12-1.15s-1.12,.61-1.12,1.15c0,.56,.42,1.14,1.12,1.14s1.12-.57,1.12-1.14Z"/><path class="f" d="M57.66,53.33c-.24,1.02-1.14,1.85-2.35,1.85-1.36,0-2.4-1.07-2.4-2.4s1.03-2.38,2.37-2.38c1.19,0,2.15,.78,2.37,1.88h-1.36c-.15-.31-.41-.63-.97-.63-.64-.03-1.07,.49-1.07,1.14s.43,1.14,1.07,1.14c.56,0,.82-.32,.97-.6h1.36Z"/></g></g></g></g></svg>