<?xml version="1.0" encoding="UTF-8"?><svg xmlns="http://www.w3.org/2000/svg" xmlns:xlink="http://www.w3.org/1999/xlink" viewBox="0 0 55.21 71.63"><defs><style>.l{filter:url(#j);}.l,.m{fill:#80c420;}.n{fill:#fff;}.o{filter:url(#h);}.o,.p{fill:#036288;}.q{filter:url(#f);}.q,.r{fill:#ff8001;}.s{fill:#6ba017;}.t{fill:#00657c;}.u{fill:url(#d);}.v{fill:url(#e);}</style><linearGradient id="d" x1=".36" y1="67.94" x2="54.61" y2="67.94" gradientTransform="matrix(1, 0, 0, 1, 0, 0)" gradientUnits="userSpaceOnUse"><stop offset="0" stop-color="#fff"/><stop offset="0" stop-color="#ff8001"/><stop offset=".49" stop-color="#80c420"/><stop offset="1" stop-color="#077ca0"/></linearGradient><linearGradient id="e" x1="0" y1="20.99" x2="54.25" y2="20.99" xlink:href="#d"/><filter id="f" filterUnits="userSpaceOnUse"><feOffset dx=".04" dy=".04"/><feGaussianBlur result="g" stdDeviation=".06"/><feFlood flood-color="#5b5351" flood-opacity=".75"/><feComposite in2="g" operator="in"/><feComposite in="SourceGraphic"/></filter><filter id="h" filterUnits="userSpaceOnUse"><feOffset dx=".05" dy=".05"/><feGaussianBlur result="i" stdDeviation=".05"/><feFlood flood-color="#3d3536" flood-opacity=".75"/><feComposite in2="i" operator="in"/><feComposite in="SourceGraphic"/></filter><filter id="j" filterUnits="userSpaceOnUse"><feOffset dx=".05" dy=".05"/><feGaussianBlur result="k" stdDeviation=".05"/><feFlood flood-color="#3d3536" flood-opacity=".75"/><feComposite in2="k" operator="in"/><feComposite in="SourceGraphic"/></filter></defs><g id="a"/><g id="b"><g id="c"><g><rect class="u" x=".36" y="67.26" width="54.25" height="1.34"/><rect class="n" x="13.82" y="64.81" width="29.83" height="5.62"/><rect class="v" y="20.32" width="54.25" height="1.34"/><rect class="n" x="15.97" y="18.25" width="23.47" height="4.69"/><g><g><path class="p" d="M2.55,43.32c1.5,0,2.1,.64,2.1,2.02s-.6,2.02-2.1,2.02h-.4c-.16,0-.25,.09-.25,.25v1.34c0,.17-.09,.25-.25,.25H.7c-.16,0-.25-.09-.25-.25v-5.37c0-.17,.08-.25,.25-.26h1.85Zm.05,2.59c.4,0,.6-.05,.6-.57s-.2-.57-.6-.57h-.46c-.16,0-.25,.08-.25,.25v.63c0,.16,.09,.25,.25,.25h.46Z"/><path class="p" d="M9.25,48.92c0,.18-.09,.28-.25,.28h-.94c-.16,0-.25-.08-.25-.25v-.73c0-.17-.09-.25-.25-.25h-.72c-.16,0-.25,.09-.25,.25v.73c0,.17-.08,.25-.25,.25h-.94c-.16,0-.25-.1-.25-.28v-3.56c0-1.06,.17-2.19,2.06-2.19s2.06,1.13,2.06,2.19v3.56Zm-1.44-3.56c0-.4-.06-.6-.61-.6s-.62,.2-.62,.6v.91c0,.16,.09,.25,.25,.25h.72c.17,0,.25-.09,.25-.26v-.9Z"/><path class="p" d="M14.48,48.74c.12,.22-.02,.46-.28,.46h-.96c-.08,0-.16-.04-.19-.12l-.87-1.69s-.04-.04-.07-.04h-.34c-.15,0-.26,.11-.26,.26v1.33c0,.15-.11,.26-.26,.26h-.94c-.15,0-.26-.11-.26-.26v-5.36c0-.15,.11-.26,.26-.26h1.84c1.49,0,2.1,.64,2.1,2.02,0,.78-.19,1.33-.64,1.65-.03,.03-.04,.07-.03,.11l.89,1.65Zm-2.71-3.98c-.15,0-.26,.11-.26,.26v.62c0,.15,.11,.26,.26,.26h.43c.4,0,.6-.05,.6-.57s-.2-.57-.6-.57h-.43Z"/><path class="p" d="M16.22,45.02c0-.17-.08-.25-.25-.25h-1.18c-.16,0-.25-.09-.25-.25v-.94c0-.16,.09-.25,.25-.25h4.3c.17,0,.25,.09,.25,.25v.94c0,.16-.08,.25-.25,.25h-1.18c-.16,0-.25,.08-.25,.25v3.93c0,.16-.08,.25-.25,.25h-.94c-.16,0-.25-.09-.25-.25v-3.93Z"/><path class="p" d="M21.03,43.32c.17,0,.25,.09,.25,.25v5.38c0,.16-.08,.25-.25,.25h-.93c-.16,0-.25-.09-.25-.25v-5.38c0-.16,.09-.25,.25-.25h.93Z"/><path class="p" d="M22.04,45.21c0-.55,.12-2.04,2.11-2.04,1.79,0,2.07,1.2,2.1,1.85,0,.12-.07,.21-.19,.23l-.93,.21c-.18,.03-.31-.09-.34-.26-.04-.37-.19-.59-.65-.59-.62,0-.66,.39-.66,1.04v1.21c0,.65,.04,1.05,.66,1.05,.46,0,.59-.22,.64-.6,.03-.18,.16-.29,.33-.25l.95,.21c.12,.03,.19,.12,.19,.25-.03,.64-.31,1.84-2.1,1.84-1.99,0-2.11-1.49-2.11-2.04v-2.1Z"/><path class="p" d="M28.01,43.32c.17,0,.25,.09,.25,.25v5.38c0,.16-.08,.25-.25,.25h-.93c-.16,0-.25-.09-.25-.25v-5.38c0-.16,.09-.25,.25-.25h.93Z"/><path class="p" d="M31.2,43.32c1.5,0,2.1,.64,2.1,2.02s-.6,2.02-2.1,2.02h-.4c-.16,0-.25,.09-.25,.25v1.34c0,.17-.09,.25-.25,.25h-.94c-.16,0-.25-.09-.25-.25v-5.37c0-.17,.08-.25,.25-.26h1.85Zm.05,2.59c.4,0,.6-.05,.6-.57s-.2-.57-.6-.57h-.46c-.16,0-.25,.08-.25,.25v.63c0,.16,.09,.25,.25,.25h.46Z"/><path class="p" d="M37.9,48.92c0,.18-.09,.28-.25,.28h-.94c-.16,0-.25-.08-.25-.25v-.73c0-.17-.09-.25-.25-.25h-.72c-.16,0-.25,.09-.25,.25v.73c0,.17-.08,.25-.25,.25h-.94c-.16,0-.25-.1-.25-.28v-3.56c0-1.06,.17-2.19,2.06-2.19s2.06,1.13,2.06,2.19v3.56Zm-1.44-3.56c0-.4-.06-.6-.62-.6s-.61,.2-.61,.6v.91c0,.16,.09,.25,.25,.25h.72c.17,0,.25-.09,.25-.26v-.9Z"/><path class="p" d="M39.88,45.02c0-.17-.08-.25-.25-.25h-1.18c-.16,0-.25-.09-.25-.25v-.94c0-.16,.09-.25,.25-.25h4.3c.17,0,.25,.09,.25,.25v.94c0,.16-.09,.25-.25,.25h-1.18c-.16,0-.25,.08-.25,.25v3.93c0,.16-.09,.25-.25,.25h-.94c-.16,0-.25-.09-.25-.25v-3.93Z"/><path class="p" d="M44.69,43.32c.17,0,.25,.09,.25,.25v5.38c0,.16-.08,.25-.25,.25h-.92c-.16,0-.25-.09-.25-.25v-5.38c0-.16,.09-.25,.25-.25h.92Z"/><path class="p" d="M49.93,47.31c0,.55-.12,2.04-2.11,2.04s-2.11-1.49-2.11-2.04v-2.1c0-.55,.12-2.04,2.11-2.04s2.11,1.49,2.11,2.04v2.1Zm-1.45-1.66c0-.65-.04-1.04-.66-1.04s-.66,.39-.66,1.04v1.21c0,.65,.04,1.05,.66,1.05s.66-.4,.66-1.05v-1.21Z"/><path class="p" d="M52.17,43.32c.14,0,.24,.06,.29,.19l1.14,2.8c.04,.07,.1,.06,.1-.03v-2.71c0-.16,.09-.25,.25-.25h.94c.17,0,.25,.09,.25,.25v5.38c0,.16-.08,.25-.25,.25h-1.24c-.14,0-.24-.06-.29-.19l-1.14-2.8c-.04-.07-.1-.06-.1,.03v2.71c0,.16-.08,.25-.25,.25h-.94c-.16,0-.25-.09-.25-.25v-5.38c0-.16,.09-.25,.25-.25h1.24Z"/></g><g><path class="r" d="M4.97,27.43c3.23,0,4.53,1.38,4.53,4.35s-1.3,4.36-4.53,4.36h-.87c-.34,0-.54,.18-.54,.54v2.9c0,.36-.18,.55-.55,.55H.98c-.34,0-.54-.2-.54-.55v-11.59c0-.36,.18-.55,.54-.56h3.99Zm.11,5.59c.87,0,1.31-.11,1.31-1.24s-.44-1.23-1.31-1.23h-.98c-.34,0-.54,.18-.54,.55v1.38c0,.34,.2,.55,.54,.55h.98Z"/><path class="r" d="M13.1,27.43c.36,0,.55,.18,.55,.55v7.11c0,1.4,.09,2.25,1.43,2.25s1.43-.85,1.43-2.25v-7.11c0-.36,.2-.55,.54-.55h2.03c.36,0,.54,.18,.54,.55v8.07c0,1.2-.25,4.41-4.55,4.41s-4.55-3.21-4.55-4.41v-8.07c0-.36,.2-.55,.55-.55h2.03Z"/><path class="r" d="M25.7,27.43c3.41,0,4.72,1.38,4.72,4.35,0,.62-.18,1.81-.93,2.63,.74,.34,1.29,1.25,1.29,2.38,0,2.25-1,3.34-4.41,3.34h-4.48c-.34,0-.55-.2-.55-.55v-11.59c0-.36,.18-.55,.55-.56h3.81Zm.44,10.13c.87,0,1.31-.09,1.31-.94s-.4-.98-1.27-.98h-1.18c-.34,0-.55,.18-.55,.54v.84c0,.36,.2,.55,.55,.55h1.14Zm-.15-4.54c.87,0,1.31-.11,1.31-1.24s-.44-1.23-1.31-1.23h-.98c-.35,0-.55,.18-.55,.55v1.38c0,.36,.2,.55,.55,.55h.98Z"/><path class="r" d="M34.56,27.43c.36,0,.55,.18,.55,.55v8.49c0,.34,.2,.55,.54,.55h4.05c.36,0,.54,.18,.54,.55v2.03c0,.36-.18,.55-.54,.55h-7.17c-.34,0-.54-.2-.54-.55v-11.61c0-.36,.2-.55,.54-.55h2.03Z"/><path class="r" d="M43.91,27.43c.36,0,.55,.18,.55,.55v11.61c0,.35-.18,.55-.55,.55h-1.99c-.35,0-.55-.2-.55-.55v-11.61c0-.36,.2-.55,.55-.55h1.99Z"/><path class="r" d="M46.09,31.51c0-1.2,.25-4.41,4.55-4.41,3.86,0,4.46,2.59,4.54,3.99,.02,.25-.15,.45-.4,.51l-2.01,.45c-.38,.07-.67-.18-.73-.56-.09-.8-.42-1.27-1.4-1.27-1.34,0-1.43,.85-1.43,2.25v2.61c0,1.4,.09,2.25,1.43,2.25,1,0,1.27-.47,1.38-1.3,.06-.38,.35-.62,.71-.53l2.05,.45c.25,.06,.42,.25,.4,.53-.07,1.38-.67,3.97-4.54,3.97-4.3,0-4.55-3.21-4.55-4.41v-4.53Z"/></g></g><g><g><path class="t" d="M19.21,65.04c-.3-.13-.64-.21-.99-.21-1.35,0-2.45,1.1-2.45,2.45,0,.83,.42,1.57,1.05,2.01l2.39-4.25Zm-3.08,3.13l.2-.13c.65-.44,1.16-1.05,1.37-1.82,.1-.35,.13-.72,.13-1.09v-.14h0s.06,.09,.04,.07c.03,.04,.06,.09,.08,.13,.03,.04,.05,.09,.07,.14,.02,.05,.03,.09,.05,.14,.2,.65,.09,1.45-.36,1.97-.12,.14-.28,.3-.44,.4-.26,.17-.55,.29-.86,.33-.1,.01-.22,.02-.3,0Z"/><path class="t" d="M19.6,65.25l-2.39,4.25c.31,.14,.65,.22,1.01,.22,1.35,0,2.45-1.1,2.45-2.45,0-.84-.42-1.58-1.07-2.02Zm-.86,3.05c-.11,.37-.16,.75-.18,1.14v.15h-.02s-.06-.1-.04-.07c-.03-.04-.06-.09-.08-.14-.02-.05-.05-.09-.06-.14-.02-.05-.03-.1-.05-.15-.18-.69-.04-1.52,.44-2.06,.13-.15,.3-.3,.47-.41,.28-.17,.58-.28,.9-.31,.11-.01,.23-.02,.31,0l-.22,.13c-.69,.44-1.24,1.05-1.49,1.86Z"/></g><g><path class="t" d="M25.58,69.25h-1.07v-.41h-.01c-.09,.16-.37,.53-1.13,.53-1.14,0-1.89-.88-1.89-2.02,0-1.28,.91-2,1.87-2,.67,0,.99,.33,1.11,.45v-2.68h1.13v6.13Zm-2.03-.93c.71,0,.96-.58,.96-.97,0-.46-.33-.95-.95-.95s-.96,.51-.96,.95c0,.58,.41,.97,.94,.97Z"/><path class="t" d="M28.54,69.25h-1.08l-1.35-3.77h1.17l.72,2.35h.01l.72-2.35h1.17l-1.36,3.77Z"/><path class="t" d="M30.41,65.48h1.06v.4h.01c.1-.18,.29-.53,.94-.53v1.14c-.52,.01-.89,.12-.89,.69v2.07h-1.13v-3.77Z"/><path class="t" d="M33.02,65.48h1.06v.41h.02c.22-.28,.6-.54,1.18-.54,1.34,0,1.84,1.18,1.84,2.05,0,1.09-.76,1.98-1.83,1.98-.68,0-1-.33-1.14-.47v2.72h-1.13v-6.15Zm2.97,1.89c0-.45-.33-.96-.94-.96s-.94,.52-.94,.96c0,.48,.35,.96,.94,.96s.94-.48,.94-.96Z"/><path class="t" d="M41.57,67.82c-.2,.86-.96,1.56-1.98,1.56-1.14,0-2.02-.9-2.02-2.02s.86-2,1.99-2c1,0,1.81,.66,2,1.58h-1.14c-.12-.26-.35-.53-.82-.53-.54-.03-.9,.41-.9,.96s.36,.96,.9,.96c.47,0,.69-.27,.82-.5h1.15Z"/></g></g><g><path class="s" d="M2.15,54.17c0-.21-.1-.31-.31-.31H.4c-.2,0-.31-.11-.31-.31v-1.15c0-.2,.11-.31,.31-.31H5.66c.21,0,.31,.1,.31,.31v1.15c0,.2-.1,.31-.31,.31h-1.44c-.2,0-.31,.1-.31,.31v4.8c0,.2-.1,.31-.31,.31h-1.15c-.2,0-.31-.11-.31-.31v-4.8Z"/><path class="s" d="M11.45,58.94c0,.22-.1,.35-.31,.35h-1.15c-.19,0-.31-.1-.31-.31v-.89c0-.21-.1-.31-.31-.31h-.88c-.19,0-.31,.1-.31,.31v.89c0,.21-.1,.31-.31,.31h-1.15c-.19,0-.31-.12-.31-.35v-4.35c0-1.3,.21-2.67,2.52-2.67s2.51,1.38,2.51,2.67v4.35Zm-1.77-4.35c0-.49-.07-.74-.75-.74s-.75,.25-.75,.74v1.12c0,.2,.11,.31,.31,.31h.88c.21-.01,.31-.11,.31-.32v-1.11Z"/><path class="s" d="M16,54.64c-.21,.04-.31-.05-.34-.26-.07-.42-.41-.69-.89-.69-.4,0-.65,.24-.6,.47,.14,.8,3.39,.78,3.39,3.14,0,.31-.35,2.12-2.78,2.12-2.16,0-2.62-1.42-2.67-2.22-.01-.18,.08-.3,.27-.34l1.16-.26c.21-.04,.32,.05,.34,.27,.04,.49,.42,.78,.9,.78s.87-.29,.81-.57c-.19-.87-3.29-.68-3.29-3.04-.01-.31,.18-2.12,2.48-2.12,2.11,0,2.61,1.37,2.67,2.11,.01,.19-.08,.3-.27,.34l-1.17,.26Z"/><path class="s" d="M24.05,58.91c.14,.21,.05,.37-.2,.37h-1.54c-.16,0-.28-.06-.37-.21l-1.27-1.95c-.04-.06-.1-.06-.15,0l-.42,.57s-.04,.08-.04,.13v1.14c0,.2-.1,.31-.31,.31h-1.17c-.2,0-.31-.11-.31-.31v-6.57c0-.2,.11-.31,.31-.31h1.17c.21,0,.31,.1,.31,.31v2.06c0,.1,.07,.12,.12,.04l1.61-2.22c.09-.13,.21-.19,.37-.19h1.52c.26,0,.34,.16,.2,.38l-2.08,2.85c-.03,.05-.04,.09,0,.15l2.24,3.44Z"/><path class="s" d="M31.69,52.1c.21,0,.31,.1,.31,.31v1.15c0,.2-.1,.31-.31,.31h-2.59c-.19,0-.31,.1-.31,.31v.33c0,.19,.11,.31,.31,.31h1.7c.21,0,.31,.1,.31,.31v1.15c0,.2-.1,.31-.31,.31h-1.7c-.19,0-.31,.1-.31,.31v2.09c0,.2-.1,.31-.31,.31h-1.21c-.2,0-.31-.11-.31-.31v-6.57c0-.2,.11-.31,.31-.31h4.41Z"/><path class="s" d="M37.55,56.97c0,.68-.14,2.49-2.58,2.49s-2.58-1.81-2.58-2.49v-2.56c0-.68,.15-2.5,2.58-2.5s2.58,1.82,2.58,2.5v2.56Zm-1.76-2.02c0-.79-.05-1.27-.81-1.27s-.81,.48-.81,1.27v1.48c0,.79,.05,1.28,.81,1.28s.81-.49,.81-1.28v-1.48Z"/><path class="s" d="M43.88,58.73c.14,.27-.02,.56-.34,.56h-1.17c-.1,0-.2-.05-.24-.15l-1.07-2.06s-.05-.05-.08-.05h-.41c-.18,0-.32,.13-.32,.32v1.62c0,.18-.13,.32-.32,.32h-1.15c-.19,0-.32-.13-.32-.32v-6.55c0-.18,.13-.32,.32-.32h2.25c1.83,0,2.57,.78,2.57,2.46,0,.96-.24,1.62-.78,2.01-.04,.03-.05,.08-.03,.13l1.09,2.02Zm-3.31-4.86c-.18,0-.32,.13-.32,.32v.76c0,.18,.13,.32,.32,.32h.52c.49,0,.74-.06,.74-.7s-.25-.7-.74-.7h-.52Z"/><path class="s" d="M44.44,54.41c0-.68,.15-2.5,2.58-2.5,2.19,0,2.53,1.47,2.57,2.26,.01,.14-.08,.25-.23,.28l-1.14,.26c-.22,.04-.38-.1-.41-.32-.05-.45-.24-.72-.79-.72-.76,0-.81,.48-.81,1.27v1.48c0,.79,.05,1.28,.81,1.28,.56,0,.72-.27,.78-.74,.03-.22,.19-.35,.4-.3l1.16,.25c.15,.03,.24,.15,.23,.3-.04,.78-.38,2.25-2.57,2.25-2.43,0-2.58-1.81-2.58-2.49v-2.56Z"/><path class="s" d="M54.91,52.1c.21,0,.31,.1,.31,.31v1.15c0,.2-.1,.31-.31,.31h-2.49c-.19,0-.31,.1-.31,.31v.33c0,.19,.11,.31,.31,.31h1.59c.21,0,.31,.1,.31,.31v1.15c0,.2-.1,.31-.31,.31h-1.59c-.19,0-.31,.1-.31,.31v.33c0,.19,.11,.31,.31,.31h2.49c.21,0,.31,.1,.31,.31v1.15c0,.21-.1,.31-.31,.31h-4.31c-.19,0-.31-.11-.31-.31v-6.57c0-.2,.12-.31,.31-.31h4.31Z"/></g><rect class="n" x="20.46" y="14.63" width=".65" height="2.09"/><rect class="n" x="34.1" y="14.63" width=".65" height="2.09"/><path class="q" d="M20.66,10.77l-2.66-1.77h-2.98c-.36,0-.65-.29-.65-.65v-2.08c0-.36,.29-.65,.65-.65h7.33c.36,0,.65,.29,.65,.65v2.08c0,.36-.29,.65-.65,.65h-2.41l.72,1.77Zm-5.65-4.87c-.2,0-.37,.16-.37,.37v2.08c0,.2,.17,.37,.37,.37h3.07l1.95,1.3-.53-1.3h2.84c.2,0,.37-.17,.37-.37v-2.08c0-.2-.17-.37-.37-.37h-7.33Z"/><path class="o" d="M27.81,12.17l-2.26-4.34h-3.18c-.88,0-1.6-.72-1.6-1.61V1.79c0-.88,.72-1.6,1.6-1.6h10.36c.88,0,1.6,.72,1.6,1.6V6.22c0,.88-.72,1.61-1.6,1.61h-4.79l-.12,4.34ZM22.37,.47c-.72,0-1.32,.59-1.32,1.32V6.22c0,.73,.59,1.32,1.32,1.32h3.36l.04,.07,1.79,3.43,.1-3.51h5.07c.72,0,1.32-.59,1.32-1.32V1.79c0-.72-.59-1.32-1.32-1.32h-10.36Z"/><path class="l" d="M33.83,11.37l.5-2.34h-1.06c-.57,0-1.03-.53-1.03-1.19v-3.18c0-.66,.46-1.19,1.03-1.19h6.29c.57,0,1.03,.53,1.03,1.19v3.18c0,.66-.46,1.19-1.03,1.19h-3.3l-2.43,2.34Zm-.56-7.62c-.41,0-.74,.41-.74,.91v3.18c0,.5,.33,.91,.74,.91h1.41l-.03,.17-.34,1.6,1.84-1.77h3.41c.41,0,.75-.41,.75-.91v-3.18c0-.5-.34-.91-.75-.91h-6.29Z"/><g><path class="t" d="M28.03,15.78c-.62,0-1.12-.5-1.12-1.12s.5-1.12,1.12-1.12,1.12,.5,1.12,1.12-.5,1.12-1.12,1.12Z"/><g><path class="t" d="M22.86,22c.1-.21,.32-.27,.56-.21l.32,.08,1.18-2.48c.05-.1,.13-.18,.22-.24,.07-.05,.18-.08,.39-.08h1.37c.13,0,.23-.1,.23-.23v-1.89c0-.47,.38-.85,.85-.85h.13c.47,0,.85,.38,.85,.85v2.48c0,.53-.43,.96-.96,.96h-2.34s-1.1,2.32-1.11,2.34c-.1,.21-.35,.3-.57,.2l-.92-.4c-.21-.1-.32-.32-.22-.53Z"/><path class="t" d="M29.5,18.27v.75c0,.05,.02,.1,.07,.13,.67,.51,1.06,1.37,.89,2.31-.18,.97-.99,1.73-1.96,1.87-1.28,.18-2.41-.69-2.63-1.88,0-.05-.08-.06-.1-.02l-.4,.84s-.02,.11,0,.16c.59,1.15,1.87,1.9,3.3,1.67,1.32-.21,2.38-1.27,2.59-2.59,.23-1.43-.52-2.71-1.68-3.3-.03-.02-.08,0-.08,.05Z"/></g></g><g><path class="r" d="M20.69,14.01c-.7,0-1.26-.57-1.26-1.26s.57-1.26,1.26-1.26,1.26,.57,1.26,1.26-.57,1.26-1.26,1.26Z"/><path class="r" d="M23.2,15.84c-.07-.82-.75-1.45-1.58-1.45h-1.86c-.82,0-1.51,.63-1.58,1.45l-.24,2.97c-.02,.28,.21,.53,.51,.5,.23-.02,.41-.22,.43-.45l.22-2.76c.01-.07,.04-.23,.17-.23,.05,0,.12,.02,.12,.19v7.52c0,.31,.25,.56,.56,.56s.56-.25,.56-.56v-4.24s.36,0,.36,0v4.24c0,.31,.25,.56,.56,.56s.56-.25,.56-.56v-7.52h0c0-.18,.07-.19,.12-.19,.14,0,.16,.16,.17,.23l.22,2.76c.02,.23,.19,.43,.43,.45,.3,.02,.53-.22,.51-.5l-.24-2.97Z"/></g><g><path class="m" d="M37.24,17.58c-.41,0-.75,.46-.75,1.03v5.23c0,.17,.1,.3,.22,.3s.22-.14,.22-.3v-5.23c0-.23,.14-.42,.31-.42s.31,.19,.31,.42c0,.17,.1,.3,.22,.3s.22-.14,.22-.3c0-.57-.34-1.03-.75-1.03Z"/><g><path class="m" d="M34.25,14.43c-.69,0-1.25-.56-1.25-1.25s.56-1.25,1.25-1.25,1.25,.56,1.25,1.25-.56,1.25-1.25,1.25Z"/><path class="m" d="M36.79,15.72c-.06-.77-.66-1.36-1.4-1.45-.29,.3-.69,.5-1.14,.5s-.85-.19-1.14-.5c-.74,.09-1.34,.69-1.4,1.45l-.25,3.01c-.02,.29,.21,.53,.51,.51,.24-.02,.41-.22,.43-.46l.23-2.81c.01-.07,.04-.23,.17-.23,.05,0,.12,.02,.12,.2v7.64c0,.32,.26,.57,.57,.57s.57-.26,.57-.57v-4.31s.36,0,.37,0v4.31c0,.32,.26,.57,.57,.57s.57-.26,.57-.57v-7.64h0c0-.18,.07-.2,.12-.2,.14,0,.16,.16,.17,.23l.23,2.81c.02,.24,.2,.44,.43,.46,.3,.02,.54-.22,.51-.51l-.25-3.01Z"/></g></g></g></g></g></svg>