<?xml version="1.0" encoding="UTF-8"?><svg xmlns="http://www.w3.org/2000/svg" viewBox="0 0 34.86 34.86"><defs><style>.d{fill:#fff;}.e{fill:#004054;}</style></defs><g id="a"/><g id="b"><g id="c"><rect class="d" width="34.86" height="34.86"/><g><rect class="e" x="2.62" y="2.79" width="1.02" height="2.04"/><rect class="e" x="2.62" y="4.83" width="1.02" height="2.04"/><rect class="e" x="2.62" y="6.87" width="1.02" height="3.06"/><rect class="e" x="2.62" y="10.96" width="1.02" height="1.02"/><rect class="e" x="2.62" y="13" width="1.02" height="1.02"/><rect class="e" x="2.62" y="17.09" width="1.02" height="2.04"/><rect class="e" x="2.62" y="21.18" width="1.02" height="1.02"/><rect class="e" x="2.62" y="23.22" width="1.02" height="1.02"/><rect class="e" x="2.62" y="25.26" width="1.02" height="7.15"/><rect class="e" x="3.64" y="2.79" width="1.02" height="1.02"/><rect class="e" x="3.64" y="8.92" width="1.02" height="1.02"/><rect class="e" x="3.64" y="11.98" width="1.02" height="1.02"/><rect class="e" x="3.64" y="18.11" width="1.02" height="1.02"/><rect class="e" x="3.64" y="25.26" width="1.02" height="1.02"/><rect class="e" x="3.64" y="31.39" width="1.02" height="1.02"/><rect class="e" x="4.66" y="2.79" width="1.02" height="1.02"/><rect class="e" x="4.66" y="4.83" width="1.02" height="2.04"/><rect class="e" x="4.66" y="6.87" width="1.02" height="1.02"/><rect class="e" x="4.66" y="8.92" width="1.02" height="1.02"/><rect class="e" x="4.66" y="14.03" width="1.02" height="3.06"/><rect class="e" x="4.66" y="18.11" width="1.02" height="1.02"/><rect class="e" x="4.66" y="23.22" width="1.02" height="1.02"/><rect class="e" x="4.66" y="25.26" width="1.02" height="1.02"/><rect class="e" x="4.66" y="27.31" width="1.02" height="3.06"/><rect class="e" x="4.66" y="31.39" width="1.02" height="1.02"/><rect class="e" x="5.68" y="2.79" width="1.02" height="1.02"/><rect class="e" x="5.68" y="4.83" width="1.02" height="2.04"/><rect class="e" x="5.68" y="6.87" width="1.02" height="1.02"/><rect class="e" x="5.68" y="8.92" width="1.02" height="1.02"/><rect class="e" x="5.68" y="10.96" width="1.02" height="1.02"/><rect class="e" x="5.68" y="13" width="1.02" height="1.02"/><rect class="e" x="5.68" y="15.05" width="1.02" height="2.04"/><rect class="e" x="5.68" y="19.13" width="1.02" height="1.02"/><rect class="e" x="5.68" y="21.18" width="1.02" height="1.02"/><rect class="e" x="5.68" y="25.26" width="1.02" height="1.02"/><rect class="e" x="5.68" y="27.31" width="1.02" height="3.06"/><rect class="e" x="5.68" y="31.39" width="1.02" height="1.02"/><rect class="e" x="6.7" y="2.79" width="1.02" height="1.02"/><rect class="e" x="6.7" y="4.83" width="1.02" height="2.04"/><rect class="e" x="6.7" y="6.87" width="1.02" height="1.02"/><rect class="e" x="6.7" y="8.92" width="1.02" height="1.02"/><rect class="e" x="6.7" y="13" width="1.02" height="3.06"/><rect class="e" x="6.7" y="17.09" width="1.02" height="1.02"/><rect class="e" x="6.7" y="19.13" width="1.02" height="3.06"/><rect class="e" x="6.7" y="23.22" width="1.02" height="1.02"/><rect class="e" x="6.7" y="25.26" width="1.02" height="1.02"/><rect class="e" x="6.7" y="27.31" width="1.02" height="3.06"/><rect class="e" x="6.7" y="31.39" width="1.02" height="1.02"/><rect class="e" x="7.72" y="2.79" width="1.02" height="1.02"/><rect class="e" x="7.72" y="8.92" width="1.02" height="1.02"/><rect class="e" x="7.72" y="10.96" width="1.02" height="2.04"/><rect class="e" x="7.72" y="17.09" width="1.02" height="2.04"/><rect class="e" x="7.72" y="23.22" width="1.02" height="1.02"/><rect class="e" x="7.72" y="25.26" width="1.02" height="1.02"/><rect class="e" x="7.72" y="31.39" width="1.02" height="1.02"/><rect class="e" x="8.75" y="2.79" width="1.02" height="2.04"/><rect class="e" x="8.75" y="4.83" width="1.02" height="2.04"/><rect class="e" x="8.75" y="6.87" width="1.02" height="3.06"/><rect class="e" x="8.75" y="10.96" width="1.02" height="1.02"/><rect class="e" x="8.75" y="13" width="1.02" height="1.02"/><rect class="e" x="8.75" y="15.05" width="1.02" height="1.02"/><rect class="e" x="8.75" y="17.09" width="1.02" height="1.02"/><rect class="e" x="8.75" y="19.13" width="1.02" height="1.02"/><rect class="e" x="8.75" y="21.18" width="1.02" height="1.02"/><rect class="e" x="8.75" y="23.22" width="1.02" height="1.02"/><rect class="e" x="8.75" y="25.26" width="1.02" height="7.15"/><rect class="e" x="9.77" y="15.05" width="1.02" height="2.04"/><rect class="e" x="9.77" y="22.2" width="1.02" height="1.02"/><rect class="e" x="10.79" y="7.9" width="1.02" height="2.04"/><rect class="e" x="10.79" y="10.96" width="1.02" height="4.09"/><rect class="e" x="10.79" y="16.07" width="1.02" height="1.02"/><rect class="e" x="10.79" y="18.11" width="1.02" height="7.15"/><rect class="e" x="10.79" y="26.28" width="1.02" height="1.02"/><rect class="e" x="10.79" y="28.33" width="1.02" height="1.02"/><rect class="e" x="10.79" y="31.39" width="1.02" height="1.02"/><rect class="e" x="11.81" y="2.79" width="1.02" height="1.02"/><rect class="e" x="11.81" y="4.83" width="1.02" height="1.02"/><rect class="e" x="11.81" y="6.87" width="1.02" height="1.02"/><rect class="e" x="11.81" y="11.98" width="1.02" height="2.04"/><rect class="e" x="11.81" y="15.05" width="1.02" height="1.02"/><rect class="e" x="11.81" y="18.11" width="1.02" height="2.04"/><rect class="e" x="11.81" y="21.18" width="1.02" height="4.09"/><rect class="e" x="11.81" y="31.39" width="1.02" height="1.02"/><rect class="e" x="12.83" y="2.79" width="1.02" height="2.04"/><rect class="e" x="12.83" y="4.83" width="1.02" height="2.04"/><rect class="e" x="12.83" y="7.9" width="1.02" height="2.04"/><rect class="e" x="12.83" y="11.98" width="1.02" height="7.15"/><rect class="e" x="12.83" y="20.16" width="1.02" height="2.04"/><rect class="e" x="12.83" y="23.22" width="1.02" height="1.02"/><rect class="e" x="12.83" y="25.26" width="1.02" height="1.02"/><rect class="e" x="12.83" y="27.31" width="1.02" height="1.02"/><rect class="e" x="12.83" y="30.37" width="1.02" height="1.02"/><rect class="e" x="13.85" y="3.81" width="1.02" height="1.02"/><rect class="e" x="13.85" y="7.9" width="1.02" height="1.02"/><rect class="e" x="13.85" y="14.03" width="1.02" height="1.02"/><rect class="e" x="13.85" y="16.07" width="1.02" height="2.04"/><rect class="e" x="13.85" y="21.18" width="1.02" height="1.02"/><rect class="e" x="13.85" y="24.24" width="1.02" height="7.15"/><rect class="e" x="14.88" y="2.79" width="1.02" height="2.04"/><rect class="e" x="14.88" y="8.92" width="1.02" height="1.02"/><rect class="e" x="14.88" y="10.96" width="1.02" height="1.02"/><rect class="e" x="14.88" y="14.03" width="1.02" height="1.02"/><rect class="e" x="14.88" y="19.13" width="1.02" height="1.02"/><rect class="e" x="14.88" y="21.18" width="1.02" height="4.09"/><rect class="e" x="14.88" y="30.37" width="1.02" height="1.02"/><rect class="e" x="15.9" y="2.79" width="1.02" height="1.02"/><rect class="e" x="15.9" y="6.87" width="1.02" height="1.02"/><rect class="e" x="15.9" y="9.94" width="1.02" height="5.11"/><rect class="e" x="15.9" y="16.07" width="1.02" height="2.04"/><rect class="e" x="15.9" y="19.13" width="1.02" height="2.04"/><rect class="e" x="15.9" y="29.35" width="1.02" height="2.04"/><rect class="e" x="16.92" y="2.79" width="1.02" height="1.02"/><rect class="e" x="16.92" y="4.83" width="1.02" height="2.04"/><rect class="e" x="16.92" y="6.87" width="1.02" height="3.06"/><rect class="e" x="16.92" y="11.98" width="1.02" height="4.09"/><rect class="e" x="16.92" y="17.09" width="1.02" height="1.02"/><rect class="e" x="16.92" y="20.16" width="1.02" height="3.06"/><rect class="e" x="16.92" y="24.24" width="1.02" height="1.02"/><rect class="e" x="16.92" y="26.28" width="1.02" height="1.02"/><rect class="e" x="16.92" y="31.39" width="1.02" height="1.02"/><rect class="e" x="17.94" y="3.81" width="1.02" height="1.02"/><rect class="e" x="17.94" y="5.85" width="1.02" height="1.02"/><rect class="e" x="17.94" y="7.9" width="1.02" height="1.02"/><rect class="e" x="17.94" y="10.96" width="1.02" height="1.02"/><rect class="e" x="17.94" y="13" width="1.02" height="1.02"/><rect class="e" x="17.94" y="15.05" width="1.02" height="1.02"/><rect class="e" x="17.94" y="18.11" width="1.02" height="1.02"/><rect class="e" x="17.94" y="26.28" width="1.02" height="1.02"/><rect class="e" x="17.94" y="30.37" width="1.02" height="1.02"/><rect class="e" x="18.96" y="6.87" width="1.02" height="1.02"/><rect class="e" x="18.96" y="8.92" width="1.02" height="3.06"/><rect class="e" x="18.96" y="13" width="1.02" height="2.04"/><rect class="e" x="18.96" y="16.07" width="1.02" height="2.04"/><rect class="e" x="18.96" y="22.2" width="1.02" height="1.02"/><rect class="e" x="18.96" y="24.24" width="1.02" height="4.09"/><rect class="e" x="18.96" y="30.37" width="1.02" height="1.02"/><rect class="e" x="19.98" y="4.83" width="1.02" height="1.02"/><rect class="e" x="19.98" y="6.87" width="1.02" height="2.04"/><rect class="e" x="19.98" y="9.94" width="1.02" height="1.02"/><rect class="e" x="19.98" y="15.05" width="1.02" height="1.02"/><rect class="e" x="19.98" y="17.09" width="1.02" height="4.09"/><rect class="e" x="19.98" y="22.2" width="1.02" height="1.02"/><rect class="e" x="19.98" y="24.24" width="1.02" height="1.02"/><rect class="e" x="19.98" y="27.31" width="1.02" height="5.11"/><rect class="e" x="21.01" y="2.79" width="1.02" height="1.02"/><rect class="e" x="21.01" y="5.85" width="1.02" height="1.02"/><rect class="e" x="21.01" y="6.87" width="1.02" height="4.09"/><rect class="e" x="21.01" y="14.03" width="1.02" height="1.02"/><rect class="e" x="21.01" y="18.11" width="1.02" height="1.02"/><rect class="e" x="21.01" y="21.18" width="1.02" height="2.04"/><rect class="e" x="21.01" y="24.24" width="1.02" height="1.02"/><rect class="e" x="21.01" y="28.33" width="1.02" height="1.02"/><rect class="e" x="22.03" y="4.83" width="1.02" height="1.02"/><rect class="e" x="22.03" y="7.9" width="1.02" height="1.02"/><rect class="e" x="22.03" y="9.94" width="1.02" height="1.02"/><rect class="e" x="22.03" y="13" width="1.02" height="1.02"/><rect class="e" x="22.03" y="16.07" width="1.02" height="1.02"/><rect class="e" x="22.03" y="22.2" width="1.02" height="3.06"/><rect class="e" x="22.03" y="26.28" width="1.02" height="1.02"/><rect class="e" x="22.03" y="28.33" width="1.02" height="1.02"/><rect class="e" x="22.03" y="30.37" width="1.02" height="1.02"/><rect class="e" x="23.05" y="3.81" width="1.02" height="1.02"/><rect class="e" x="23.05" y="4.83" width="1.02" height="1.02"/><rect class="e" x="23.05" y="6.87" width="1.02" height="1.02"/><rect class="e" x="23.05" y="8.92" width="1.02" height="2.04"/><rect class="e" x="23.05" y="11.98" width="1.02" height="3.06"/><rect class="e" x="23.05" y="16.07" width="1.02" height="4.09"/><rect class="e" x="23.05" y="21.18" width="1.02" height="8.17"/><rect class="e" x="23.05" y="30.37" width="1.02" height="2.04"/><rect class="e" x="24.07" y="10.96" width="1.02" height="5.11"/><rect class="e" x="24.07" y="17.09" width="1.02" height="3.06"/><rect class="e" x="24.07" y="22.2" width="1.02" height="2.04"/><rect class="e" x="24.07" y="27.31" width="1.02" height="1.02"/><rect class="e" x="24.07" y="29.35" width="1.02" height="2.04"/><rect class="e" x="25.09" y="2.79" width="1.02" height="2.04"/><rect class="e" x="25.09" y="4.83" width="1.02" height="2.04"/><rect class="e" x="25.09" y="6.87" width="1.02" height="3.06"/><rect class="e" x="25.09" y="11.98" width="1.02" height="1.02"/><rect class="e" x="25.09" y="15.05" width="1.02" height="1.02"/><rect class="e" x="25.09" y="17.09" width="1.02" height="2.04"/><rect class="e" x="25.09" y="20.16" width="1.02" height="2.04"/><rect class="e" x="25.09" y="23.22" width="1.02" height="1.02"/><rect class="e" x="25.09" y="25.26" width="1.02" height="1.02"/><rect class="e" x="25.09" y="27.31" width="1.02" height="2.04"/><rect class="e" x="26.11" y="2.79" width="1.02" height="1.02"/><rect class="e" x="26.11" y="8.92" width="1.02" height="1.02"/><rect class="e" x="26.11" y="10.96" width="1.02" height="1.02"/><rect class="e" x="26.11" y="14.03" width="1.02" height="1.02"/><rect class="e" x="26.11" y="16.07" width="1.02" height="1.02"/><rect class="e" x="26.11" y="19.13" width="1.02" height="3.06"/><rect class="e" x="26.11" y="23.22" width="1.02" height="1.02"/><rect class="e" x="26.11" y="27.31" width="1.02" height="1.02"/><rect class="e" x="26.11" y="31.39" width="1.02" height="1.02"/><rect class="e" x="27.14" y="2.79" width="1.02" height="1.02"/><rect class="e" x="27.14" y="4.83" width="1.02" height="2.04"/><rect class="e" x="27.14" y="6.87" width="1.02" height="1.02"/><rect class="e" x="27.14" y="8.92" width="1.02" height="1.02"/><rect class="e" x="27.14" y="14.03" width="1.02" height="1.02"/><rect class="e" x="27.14" y="23.22" width="1.02" height="9.19"/><rect class="e" x="28.16" y="2.79" width="1.02" height="1.02"/><rect class="e" x="28.16" y="4.83" width="1.02" height="2.04"/><rect class="e" x="28.16" y="6.87" width="1.02" height="1.02"/><rect class="e" x="28.16" y="8.92" width="1.02" height="1.02"/><rect class="e" x="28.16" y="11.98" width="1.02" height="2.04"/><rect class="e" x="28.16" y="15.05" width="1.02" height="1.02"/><rect class="e" x="28.16" y="17.09" width="1.02" height="2.04"/><rect class="e" x="28.16" y="20.16" width="1.02" height="1.02"/><rect class="e" x="28.16" y="26.28" width="1.02" height="1.02"/><rect class="e" x="28.16" y="28.33" width="1.02" height="2.04"/><rect class="e" x="29.18" y="2.79" width="1.02" height="1.02"/><rect class="e" x="29.18" y="4.83" width="1.02" height="2.04"/><rect class="e" x="29.18" y="6.87" width="1.02" height="1.02"/><rect class="e" x="29.18" y="8.92" width="1.02" height="1.02"/><rect class="e" x="29.18" y="13" width="1.02" height="2.04"/><rect class="e" x="29.18" y="17.09" width="1.02" height="1.02"/><rect class="e" x="29.18" y="23.22" width="1.02" height="2.04"/><rect class="e" x="29.18" y="26.28" width="1.02" height="1.02"/><rect class="e" x="29.18" y="28.33" width="1.02" height="2.04"/><rect class="e" x="30.2" y="2.79" width="1.02" height="1.02"/><rect class="e" x="30.2" y="8.92" width="1.02" height="1.02"/><rect class="e" x="30.2" y="13" width="1.02" height="3.06"/><rect class="e" x="30.2" y="17.09" width="1.02" height="3.06"/><rect class="e" x="30.2" y="21.18" width="1.02" height="2.04"/><rect class="e" x="30.2" y="24.24" width="1.02" height="3.06"/><rect class="e" x="30.2" y="28.33" width="1.02" height="1.02"/><rect class="e" x="30.2" y="30.37" width="1.02" height="2.04"/><rect class="e" x="31.22" y="2.79" width="1.02" height="2.04"/><rect class="e" x="31.22" y="4.83" width="1.02" height="2.04"/><rect class="e" x="31.22" y="6.87" width="1.02" height="3.06"/><rect class="e" x="31.22" y="11.98" width="1.02" height="1.02"/><rect class="e" x="31.22" y="15.05" width="1.02" height="1.02"/><rect class="e" x="31.22" y="17.09" width="1.02" height="1.02"/><rect class="e" x="31.22" y="20.16" width="1.02" height="3.06"/><rect class="e" x="31.22" y="24.24" width="1.02" height="1.02"/><rect class="e" x="31.22" y="27.31" width="1.02" height="1.02"/><rect class="e" x="31.22" y="29.35" width="1.02" height="1.02"/></g></g></g></svg>