<?xml version="1.0" encoding="UTF-8"?><svg xmlns="http://www.w3.org/2000/svg" xmlns:xlink="http://www.w3.org/1999/xlink" viewBox="0 0 76.96 55.45"><defs><style>.v{filter:url(#j);fill:#F9A72D;}.w{fill:#fff;}.x{fill:#9c9ea1;}.y{fill:#348c96;}.a`{stroke:#F9A72D;},.aa{fill:#f9a72d;}.ab{filter:url(#r);fill:#F9A72D;}.ac{stroke:#348c96;stroke-linecap:round;stroke-width:.1px;}.ac,.aa{stroke-miterlimit:10;}.ac,.ad{fill:none;}.ae{opacity:.45;}.af{filter:url(#t);}.ag{filter:url(#h);fill:#F9A72D}.ah,.ai{filter:url(#p);fill:#F9A72D;}.aa{stroke:#fff;stroke-width:.07px;}.aj{fill:#64b3b9;}.ak{fill:#fff100;}.al{filter:url(#n);fill:#F9A72D;}.am{filter:url(#l);fill:#F9A72D;}.an</style><filter id="d" filterUnits="userSpaceOnUse"><feOffset dx=".14" dy=".14"/><feGaussianBlur result="e" stdDeviation=".22"/><feFlood flood-color="#056d72" flood-opacity="1"/><feComposite in2="e" operator="in"/><feComposite in="SourceGraphic"/></filter><filter id="f" filterUnits="userSpaceOnUse"><feOffset dx=".14" dy=".14"/><feGaussianBlur result="g" stdDeviation=".22"/><feFlood flood-color="#056d72" flood-opacity="1"/><feComposite in2="g" operator="in"/><feComposite in="SourceGraphic"/></filter><filter id="h" filterUnits="userSpaceOnUse"><feOffset dx=".12" dy=".12"/><feGaussianBlur result="i" stdDeviation=".12"/><feFlood flood-color="#056d72" flood-opacity=".5"/><feComposite in2="i" operator="in"/><feComposite in="SourceGraphic"/></filter><filter id="j" filterUnits="userSpaceOnUse"><feOffset dx=".12" dy=".12"/><feGaussianBlur result="k" stdDeviation=".12"/><feFlood flood-color="#056d72" flood-opacity=".5"/><feComposite in2="k" operator="in"/><feComposite in="SourceGraphic"/></filter><filter id="l" filterUnits="userSpaceOnUse"><feOffset dx=".12" dy=".12"/><feGaussianBlur result="m" stdDeviation=".12"/><feFlood flood-color="#056d72" flood-opacity=".5"/><feComposite in2="m" operator="in"/><feComposite in="SourceGraphic"/></filter><filter id="n" filterUnits="userSpaceOnUse"><feOffset dx=".12" dy=".12"/><feGaussianBlur result="o" stdDeviation=".12"/><feFlood flood-color="#056d72" flood-opacity=".5"/><feComposite in2="o" operator="in"/><feComposite in="SourceGraphic"/></filter><filter id="p" filterUnits="userSpaceOnUse"><feOffset dx=".12" dy=".12"/><feGaussianBlur result="q" stdDeviation=".12"/><feFlood flood-color="#056d72" flood-opacity=".5"/><feComposite in2="q" operator="in"/><feComposite in="SourceGraphic"/></filter><filter id="r" filterUnits="userSpaceOnUse"><feOffset dx=".12" dy=".12"/><feGaussianBlur result="s" stdDeviation=".12"/><feFlood flood-color="#056d72" flood-opacity=".5"/><feComposite in2="s" operator="in"/><feComposite in="SourceGraphic"/></filter><filter id="t" filterUnits="userSpaceOnUse"><feOffset dx=".14" dy=".14"/><feGaussianBlur result="u" stdDeviation=".22"/><feFlood flood-color="#056d72" flood-opacity="1"/><feComposite in2="u" operator="in"/><feComposite in="SourceGraphic"/></filter></defs><g id="a"/><g id="b"><g id="c"><g><g><g><path class="x" d="M30.99,50.24c-.24-.11-.5-.16-.78-.16-1.07,0-1.94,.87-1.94,1.94,0,.66,.33,1.24,.83,1.59l1.89-3.36Zm-2.44,2.47l.16-.1c.51-.35,.92-.83,1.08-1.44,.08-.28,.1-.57,.11-.86v-.11h0s.05,.07,.03,.05c.02,.03,.05,.07,.07,.1,.02,.03,.04,.07,.05,.11,.02,.04,.03,.07,.04,.11,.16,.51,.07,1.14-.28,1.56-.1,.11-.22,.24-.35,.32-.21,.13-.44,.23-.68,.26-.08,.01-.18,.02-.23,0Z"/><path class="x" d="M31.3,50.41l-1.89,3.36c.24,.11,.51,.17,.8,.17,1.07,0,1.94-.87,1.94-1.94,0-.67-.34-1.25-.85-1.6Zm-.68,2.41c-.09,.29-.13,.6-.14,.9v.12h-.01s-.05-.08-.03-.06c-.02-.04-.05-.07-.07-.11-.02-.04-.04-.07-.05-.11-.01-.04-.03-.08-.04-.12-.15-.54-.03-1.21,.35-1.63,.11-.12,.24-.24,.37-.32,.22-.13,.46-.22,.72-.25,.08,0,.18-.01,.24,0l-.17,.1c-.55,.35-.98,.83-1.18,1.47Z"/></g><g><path class="x" d="M36.03,53.57h-.85v-.32h-.01c-.08,.12-.29,.42-.89,.42-.9,0-1.49-.7-1.49-1.6,0-1.01,.72-1.59,1.48-1.59,.53,0,.78,.26,.88,.35v-2.12h.89v4.85Zm-1.61-.74c.56,0,.76-.46,.76-.77,0-.36-.26-.75-.75-.75s-.76,.4-.76,.75c0,.46,.33,.77,.75,.77Z"/><path class="x" d="M38.37,53.57h-.85l-1.07-2.98h.92l.57,1.86h.01l.57-1.86h.92l-1.08,2.98Z"/><path class="x" d="M39.86,50.58h.84v.32h.01c.08-.15,.23-.42,.75-.42v.9c-.41,.01-.7,.1-.7,.55v1.64h-.89v-2.98Z"/><path class="x" d="M41.92,50.58h.84v.33h.02c.18-.23,.47-.43,.93-.43,1.06,0,1.46,.93,1.46,1.62,0,.86-.6,1.56-1.45,1.56-.54,0-.79-.26-.9-.37v2.15h-.89v-4.87Zm2.35,1.49c0-.35-.26-.76-.75-.76s-.75,.41-.75,.76c0,.38,.28,.76,.75,.76s.75-.38,.75-.76Z"/><path class="x" d="M48.69,52.43c-.16,.68-.76,1.23-1.56,1.23-.9,0-1.6-.71-1.6-1.6s.68-1.59,1.58-1.59c.79,0,1.43,.52,1.58,1.25h-.9c-.1-.2-.27-.42-.65-.42-.42-.02-.71,.33-.71,.76s.28,.76,.71,.76c.37,0,.55-.22,.65-.4h.91Z"/></g></g><g><rect class="y" x=".05" y="25.24" width="76.78" height="7.8"/><g class="ae"><polygon class="ad" points="70.05 25.24 62.54 33.05 64.07 33.05 71.58 25.24 70.05 25.24"/><polygon class="ad" points=".05 25.24 .05 26.58 1.34 25.24 .05 25.24"/><polygon class="ad" points="66.53 25.24 59.02 33.05 60.56 33.05 68.07 25.24 66.53 25.24"/><polygon class="ad" points="17.36 25.24 9.85 33.05 11.39 33.05 18.9 25.24 17.36 25.24"/><polygon class="ad" points="48.97 25.24 41.46 33.05 43 33.05 50.51 25.24 48.97 25.24"/><polygon class="ad" points="63.02 25.24 55.51 33.05 57.05 33.05 64.56 25.24 63.02 25.24"/><polygon class="ad" points="59.51 25.24 52 33.05 53.53 33.05 61.04 25.24 59.51 25.24"/><polygon class="ad" points="6.83 25.24 .05 32.28 .05 33.05 .85 33.05 8.36 25.24 6.83 25.24"/><polygon class="ad" points="56 25.24 48.49 33.05 50.02 33.05 57.53 25.24 56 25.24"/><polygon class="ad" points="10.34 25.24 2.83 33.05 4.36 33.05 11.87 25.24 10.34 25.24"/><polygon class="ad" points="13.85 25.24 6.34 33.05 7.87 33.05 15.39 25.24 13.85 25.24"/><polygon class="ad" points="52.49 25.24 44.98 33.05 46.51 33.05 54.02 25.24 52.49 25.24"/><polygon class="ad" points="24.39 25.24 16.88 33.05 18.41 33.05 25.92 25.24 24.39 25.24"/><polygon class="ad" points="45.46 25.24 37.95 33.05 39.48 33.05 46.99 25.24 45.46 25.24"/><polygon class="ad" points="34.92 25.24 27.41 33.05 28.95 33.05 36.46 25.24 34.92 25.24"/><polygon class="ad" points="74.61 33.05 76.83 30.74 76.83 29.15 73.07 33.05 74.61 33.05"/><polygon class="ad" points="31.41 25.24 23.9 33.05 25.44 33.05 32.95 25.24 31.41 25.24"/><polygon class="ad" points="76.83 33.05 76.83 32.8 76.58 33.05 76.83 33.05"/><polygon class="ad" points="66.05 33.05 67.58 33.05 75.09 25.24 73.56 25.24 66.05 33.05"/><polygon class="ad" points="20.88 25.24 13.36 33.05 14.9 33.05 22.41 25.24 20.88 25.24"/><polygon class="ad" points="3.31 25.24 .05 28.64 .05 30.23 4.85 25.24 3.31 25.24"/><polygon class="ad" points="41.95 25.24 34.44 33.05 35.97 33.05 43.48 25.24 41.95 25.24"/><polygon class="ad" points="27.9 25.24 20.39 33.05 21.92 33.05 29.43 25.24 27.9 25.24"/><polygon class="ad" points="38.44 25.24 30.93 33.05 32.46 33.05 39.97 25.24 38.44 25.24"/><polygon class="ad" points="71.09 33.05 76.83 27.09 76.83 25.5 69.56 33.05 71.09 33.05"/><polygon class="aj" points="46.99 25.24 39.48 33.05 41.46 33.05 48.97 25.24 46.99 25.24"/><polygon class="aj" points="43.48 25.24 35.97 33.05 37.95 33.05 45.46 25.24 43.48 25.24"/><polygon class="aj" points="50.51 25.24 43 33.05 44.98 33.05 52.49 25.24 50.51 25.24"/><polygon class="aj" points="36.46 25.24 28.95 33.05 30.93 33.05 38.44 25.24 36.46 25.24"/><polygon class="aj" points="32.95 25.24 25.44 33.05 27.41 33.05 34.92 25.24 32.95 25.24"/><polygon class="aj" points="71.58 25.24 64.07 33.05 66.05 33.05 73.56 25.24 71.58 25.24"/><polygon class="aj" points="64.56 25.24 57.05 33.05 59.02 33.05 66.53 25.24 64.56 25.24"/><polygon class="aj" points="54.02 25.24 46.51 33.05 48.49 33.05 56 25.24 54.02 25.24"/><polygon class="aj" points="68.07 25.24 60.56 33.05 62.54 33.05 70.05 25.24 68.07 25.24"/><polygon class="aj" points="61.04 25.24 53.53 33.05 55.51 33.05 63.02 25.24 61.04 25.24"/><polygon class="aj" points="57.53 25.24 50.02 33.05 52 33.05 59.51 25.24 57.53 25.24"/><polygon class="aj" points="39.97 25.24 32.46 33.05 34.44 33.05 41.95 25.24 39.97 25.24"/><polygon class="aj" points="29.43 25.24 21.92 33.05 23.9 33.05 31.41 25.24 29.43 25.24"/><polygon class="aj" points="69.56 33.05 76.83 25.5 76.83 25.24 75.09 25.24 67.58 33.05 69.56 33.05"/><polygon class="aj" points="8.36 25.24 .85 33.05 2.83 33.05 10.34 25.24 8.36 25.24"/><polygon class="aj" points="4.85 25.24 .05 30.23 .05 32.28 6.83 25.24 4.85 25.24"/><polygon class="aj" points="73.07 33.05 76.83 29.15 76.83 27.09 71.09 33.05 73.07 33.05"/><polygon class="aj" points="76.58 33.05 76.83 32.8 76.83 30.74 74.61 33.05 76.58 33.05"/><polygon class="aj" points="1.34 25.24 .05 26.58 .05 28.64 3.31 25.24 1.34 25.24"/><polygon class="aj" points="25.92 25.24 18.41 33.05 20.39 33.05 27.9 25.24 25.92 25.24"/><polygon class="aj" points="22.41 25.24 14.9 33.05 16.88 33.05 24.39 25.24 22.41 25.24"/><polygon class="aj" points="18.9 25.24 11.39 33.05 13.36 33.05 20.88 25.24 18.9 25.24"/><polygon class="aj" points="11.87 25.24 4.36 33.05 6.34 33.05 13.85 25.24 11.87 25.24"/><polygon class="aj" points="15.39 25.24 7.87 33.05 9.85 33.05 17.36 25.24 15.39 25.24"/></g><rect class="ad" x=".05" y="25.24" width="76.86" height="7.8"/><path class="ac" d="M16.11,2.31H3.32C1.51,2.31,.05,3.77,.05,5.58v31.13c0,1.8,1.46,3.27,3.27,3.27H73.64c1.8,0,3.27-1.46,3.27-3.27V5.58c0-1.8-1.46-3.27-3.27-3.27h-13.94"/><g class="ah"><path class="y" d="M13.06,12.62c-.07-.46-.18-1.33-1.25-1.33-.61,0-1.2,.42-1.2,1.07,0,.81,.37,.98,2.82,2.08,2.54,1.14,3.19,2.32,3.19,3.9,0,1.99-1.14,4.18-4.75,4.18-3.94,0-4.92-2.58-4.92-4.33v-.44h3.46c0,1.58,.98,1.86,1.42,1.86,.83,0,1.33-.68,1.33-1.31,0-.9-.57-1.12-2.67-2.01-.96-.39-3.33-1.34-3.33-3.9s2.49-4.01,4.77-4.01c1.34,0,2.8,.5,3.68,1.55,.81,.99,.87,1.92,.9,2.69h-3.44Z"/><path class="y" d="M21.2,20.3l-.72,1.97h-3.74l5.47-13.63h2.74l5.41,13.63h-3.78l-.66-1.97h-4.73Zm.96-2.76h2.85l-1.4-4.66h-.06l-1.4,4.66Z"/><path class="y" d="M31.22,8.65h7.44v3.06h-4.11v2.32h3.96v3.06h-3.96v5.19h-3.33V8.65Z"/><path class="y" d="M40.54,8.65h7.57v3.06h-4.24v2.12h4.11v3.06h-4.11v2.34h4.24v3.06h-7.57V8.65Z"/><path class="y" d="M51.9,11.7h-2.69v-3.06h8.84v3.06h-2.67v10.57h-3.48V11.7Z"/><path class="y" d="M62.46,17.32l-4.07-8.67h3.78l2.03,5.47,2.04-5.47h3.74l-4.03,8.67v4.95h-3.48v-4.95Z"/></g><g class="an"><path class="y" d="M19.04,.09h1.53c.99,0,1.7,.36,1.7,1.37s-.71,1.44-1.7,1.44h-.9v2.05h-.62V.09Zm1.44,2.31c.76,0,1.17-.31,1.17-.94s-.42-.87-1.17-.87h-.81v1.8h.81Zm-.03,.33l.49-.32,1.48,2.55h-.71l-1.27-2.22Z"/><path class="y" d="M24.37,.09h2.81V.62h-2.18v1.52h1.84v.53h-1.84v1.76h2.26v.53h-2.88V.09Z"/><path class="y" d="M29.11,2.53c0-1.57,.94-2.53,2.23-2.53,.67,0,1.12,.31,1.4,.6l-.34,.41c-.25-.25-.56-.46-1.05-.46-.98,0-1.61,.75-1.61,1.96s.58,1.99,1.61,1.99c.35,0,.68-.1,.87-.28v-1.26h-1.03v-.52h1.6v2.05c-.31,.33-.85,.56-1.5,.56-1.28,0-2.2-.94-2.2-2.52Z"/><path class="y" d="M35.07,.09h.62V4.95h-.62V.09Z"/><path class="y" d="M37.85,2.5c0-1.56,.86-2.5,2.08-2.5s2.08,.95,2.08,2.5-.86,2.54-2.08,2.54-2.08-.98-2.08-2.54Zm3.52,0c0-1.21-.57-1.96-1.44-1.96s-1.44,.75-1.44,1.96,.57,1.99,1.44,1.99,1.44-.78,1.44-1.99Z"/><path class="y" d="M44.17,.09h.64l1.76,3.05,.52,1.01h.03c-.03-.49-.08-1.04-.08-1.55V.09h.59V4.95h-.64l-1.76-3.06-.52-1h-.03c.03,.49,.08,1.01,.08,1.52v2.54h-.59V.09Z"/><path class="y" d="M51.07,.09h.7l1.64,4.86h-.66l-.85-2.71c-.17-.54-.33-1.08-.49-1.64h-.03c-.15,.56-.31,1.1-.48,1.64l-.86,2.71h-.63L51.07,.09Zm-.78,2.89h2.24v.5h-2.24v-.5Z"/><path class="y" d="M55.18,.09h.62V4.43h2.12v.53h-2.74V.09Z"/></g><g class="ag"><circle class="aa" cx="8.06" cy="39.97" r="4.4"/><g><path class="w" d="M8.95,38.6c.29,0,.54,.18,.64,.43h.19c-.11-.35-.44-.61-.83-.61s-.72,.25-.83,.61h.19c.11-.25,.35-.43,.64-.43Z"/><path class="w" d="M10.68,39.04c.19,0,.55,0,.55-.23,0-.24-.17-.35-.43-.35-.31,0-.38,.06-.44,.26-.11-.33-.25-.75-.29-.83-.07-.16-.27-.29-.43-.29h-3.17c-.16,0-.36,.13-.43,.29-.03,.08-.18,.5-.29,.83-.05-.2-.13-.26-.44-.26-.26,0-.43,.1-.43,.35,0,.22,.36,.23,.54,.23,.15,0,.15,0,.22-.01,0,.02-.03,.09-.03,.1-.18,0-.3,.19-.36,.35-.16,.43-.35,1.1-.24,1.53,.04,.16,.13,.3,.22,.3h5.62c.09,0,.18-.14,.22-.3,.11-.43-.08-1.09-.24-1.53-.06-.16-.18-.35-.36-.35,0,0-.02-.08-.03-.1,.07,.01,.07,.01,.22,.01Zm-4.88,1.99c-.11,0-.19-.09-.19-.19s.09-.19,.19-.19,.19,.09,.19,.19-.09,.19-.19,.19Zm.28-.48c-.34,0-.62-.04-.62-.27s.04-.51,.29-.51c.34,0,.95,.28,.95,.51s-.27,.27-.62,.27Zm-.18-1.43c.08-.23,.32-.98,.4-1.17,.04-.1,.07-.09,.17-.09h3.17c.1,0,.13-.02,.17,.09,.08,.19,.32,.94,.4,1.17H5.9Zm4.42,1.91c-.11,0-.19-.09-.19-.19s.09-.19,.19-.19,.19,.09,.19,.19-.09,.19-.19,.19Zm.34-.75c0,.23-.28,.27-.62,.27s-.62-.04-.62-.27,.6-.51,.94-.51c.25,0,.29,.28,.29,.51Z"/><path class="w" d="M5.33,42.18c0,.09,.07,.16,.16,.16h.72c.09,0,.16-.07,.16-.16v-.6h-1.05v.6Z"/><path class="w" d="M9.73,42.18c0,.09,.07,.16,.16,.16h.72c.09,0,.16-.07,.16-.16v-.6h-1.05v.6Z"/></g></g><g class="v"><circle class="aa" cx="44.13" cy="39.97" r="4.4"/><g><path class="w" d="M43.5,42.1v-.19h-.33v.19s.02,.04,.04,.04h.25s.04-.02,.04-.04Z"/><path class="w" d="M45.1,42.1v-.19h-.33v.19s.02,.04,.04,.04h.25s.04-.02,.04-.04Z"/><rect class="w" x="42.48" y="40.9" width="3.31" height=".33" rx=".09" ry=".09"/><path class="w" d="M45.58,41.4h-2.89c.04,.2,.21,.35,.43,.35h2.03c.21,0,.39-.15,.43-.35Z"/><polygon class="w" points="44.86 42.24 45.69 43.23 46.08 43.23 45.07 42.24 44.86 42.24"/><polygon class="w" points="43.19 42.24 42.18 43.23 42.58 43.23 43.41 42.24 43.19 42.24"/><path class="w" d="M45.58,38.2c0-.24-.19-.43-.43-.43h-.17v-.06c0-.14-.11-.25-.25-.25h-.06c0-.13,.04-.31,.13-.47,.15,.04,.27,.09,.36,.18,.02,.02,.05,.03,.07,.03,.03,0,.05,0,.07-.03,.04-.04,.04-.1,0-.14-.25-.27-.74-.3-1.18-.3s-.92,.03-1.17,.29c-.04,.04-.04,.11,0,.14,.04,.04,.11,.04,.15,0,.08-.09,.21-.14,.35-.17,.09,.16,.12,.34,.13,.47h-.05c-.14,0-.25,.11-.25,.25v.06h-.17c-.24,0-.43,.19-.43,.43v2.53h2.9v-2.53Zm-2.01-1.25c.17-.03,.36-.03,.55-.03s.38,0,.56,.04c-.07,.14-.12,.3-.13,.49h-.84c-.01-.19-.06-.36-.13-.49Zm-.66,2.47v-1.22c0-.11,.09-.2,.2-.2h.95v1.63h-.95c-.11,0-.2-.09-.2-.2Zm2.44,0c0,.11-.09,.2-.2,.2h-.95v-1.63h.95c.11,0,.2,.09,.2,.2v1.22Z"/></g></g><g class="am"><circle class="aa" cx="32.11" cy="39.97" r="4.4"/><g><path class="w" d="M30.2,42.24v.43s.04,.09,.09,.09h.55s.09-.04,.09-.09v-.43h-.73Z"/><path class="w" d="M33.3,42.24v.43s.04,.09,.09,.09h.55s.09-.04,.09-.09v-.43h-.73Z"/><rect class="w" x="29.72" y="41.56" width="4.8" height=".49" rx=".13" ry=".13"/><path class="w" d="M33.93,40.01h-.01v-1.21c0-.26-.21-.46-.46-.46h-2.68c-.26,0-.46,.21-.46,.46v1.21h-.01c-.16,0-.29,.13-.29,.29v1.05h4.22v-1.05c0-.16-.13-.29-.29-.29Zm-3.21,1.01c-.16,0-.29-.13-.29-.29s.13-.29,.29-.29,.29,.13,.29,.29-.13,.29-.29,.29Zm2.79,0c-.16,0-.29-.13-.29-.29s.13-.29,.29-.29,.29,.13,.29,.29-.13,.29-.29,.29Zm.16-1.01h-3.11v-1.21c0-.12,.1-.22,.22-.22h2.68c.12,0,.22,.1,.22,.22v1.21Z"/><path class="w" d="M33.26,39.85h-.13c0-.28-.23-.51-.51-.51s-.51,.23-.51,.51h-.13c0-.35,.28-.64,.64-.64s.64,.28,.64,.64Z"/><path class="w" d="M30.09,39.83v-1.03c0-.38,.31-.69,.69-.69h2.68c.38,0,.69,.31,.69,.69v1.03c.1,.04,.18,.12,.23,.21,.03,.06,.07,.02,.07-.03v-2.05c0-.43-.35-.78-.78-.78h-3.09c-.43,0-.78,.35-.78,.78v2.05c0,.05,.03,.08,.07,.03,.05-.09,.14-.16,.23-.21Z"/><path class="w" d="M29.19,38.66h.27c.09,0,.17,.07,.17,.17v.88c0,.09-.08,.17-.17,.17h-.27c-.09,0-.17-.07-.17-.17v-.88c0-.09,.08-.17,.17-.17Z"/><path class="w" d="M34.75,38.66h.27c.09,0,.17,.07,.17,.17v.88c0,.09-.08,.17-.17,.17h-.27c-.09,0-.17-.08-.17-.17v-.88c0-.09,.08-.17,.17-.17Z"/></g></g><g class="al"><circle class="aa" cx="56.16" cy="39.97" r="4.4"/><g><path class="w" d="M54.1,42.98c0,.05,.04,.1,.1,.1h.59c.05,0,.1-.04,.1-.1v-.59h-.79v.59Z"/><path class="w" d="M57.43,42.98c0,.05,.04,.1,.1,.1h.59c.05,0,.1-.04,.1-.1v-.59h-.79v.59Z"/><rect class="w" x="53.67" y="41.65" width="4.97" height=".53" rx=".09" ry=".09"/><path class="w" d="M57.24,39.23c-.39,0-.7,.31-.7,.7h.14c0-.31,.25-.56,.56-.56s.56,.25,.56,.56h.14c0-.39-.31-.7-.7-.7Z"/><path class="w" d="M59.22,38.39h-.08c0-.1-.05-.24-.22-.24h-.49v-.52c0-.25-.2-.45-.45-.45h-3.63c-.25,0-.45,.2-.45,.45v.52h-.49c-.18,0-.21,.13-.22,.24h-.08c-.1,0-.18,.08-.18,.18v.97c0,.1,.08,.18,.18,.18h.3c.1,0,.18-.08,.18-.18v-.97c0-.1-.08-.18-.18-.18h-.07c0-.08,.03-.09,.08-.09h.49v3.1h4.54v-3.1h.49s.07,.02,.08,.09h-.07c-.1,0-.18,.08-.18,.18v.97c0,.1,.08,.18,.18,.18h.3c.1,0,.18-.08,.18-.18v-.97c0-.1-.08-.18-.18-.18Zm-1.44-.93c.09,0,.16,.07,.16,.16s-.07,.16-.16,.16-.16-.07-.16-.16,.07-.16,.16-.16Zm-2.5,.06c0-.11,.09-.19,.19-.19h1.38c.11,0,.19,.09,.19,.19v.2c0,.11-.09,.19-.19,.19h-1.38c-.11,0-.19-.09-.19-.19v-.2Zm-.74-.06c.09,0,.16,.07,.16,.16s-.07,.16-.16,.16-.16-.07-.16-.16,.07-.16,.16-.16Zm-.06,3.7c-.19,0-.35-.16-.35-.35s.16-.35,.35-.35,.35,.16,.35,.35-.16,.35-.35,.35Zm1.61-1.1h-1.81c-.12,0-.21-.1-.21-.21v-1.59c0-.12,.1-.21,.21-.21h1.81v2.02Zm1.75,1.1c-.19,0-.35-.16-.35-.35s.16-.35,.35-.35,.35,.16,.35,.35-.16,.35-.35,.35Zm.41-1.32c0,.12-.1,.21-.21,.21h-1.81v-2.02h1.81c.12,0,.21,.1,.21,.21v1.59Z"/></g></g><g class="ai"><circle class="aa" cx="20.08" cy="39.97" r="4.4"/><g><path class="w" d="M19.09,41.68v.55c0,.09,0,.1-.09,.1v-.02s0-.04-.02-.05c-.01-.36-.16-.43-.38-.43s-.37,.08-.38,.43c-.01,.01-.02,.03-.02,.05v.19s.03,.07,.07,.07h.67s.07-.03,.07-.07v-.02c.11,0,.24-.03,.24-.24v-.55s0-.07,.1-.07v-.15c-.15,0-.25,.08-.25,.21Zm-.78,.56c.02-.31,.15-.31,.28-.31s.26,0,.28,.31h-.56Z"/><path class="w" d="M20.08,39.3c-.46,0-.63,.18-.63,.77v1.76c0,.11,.03,.19,.09,.19s.09-.06,.09-.16v-1.14c0-.53,0-.93,.45-.93s.45,.4,.45,.93v1.14c0,.11,.04,.16,.09,.16s.09-.08,.09-.19v-1.76c0-.58-.18-.77-.63-.77Z"/><path class="w" d="M20.08,40.06c-.13,0-.24,.11-.24,.24v2.97c0,.13,.11,.24,.24,.24s.24-.11,.24-.24v-2.97c0-.13-.11-.24-.24-.24Z"/><path class="w" d="M22.3,36.95c-.13-.03-.27-.05-.43-.05-.23,0-.39,.06-.45,.06-.05,0-.08-.11-.13-.11-.04,0-.06,.04-.06,.1v.07c-.23,.03-.37,.13-.5,.23-.16,.12-.31,.23-.64,.23s-.48-.11-.64-.23c-.13-.1-.27-.2-.5-.23v-.07c0-.07-.02-.1-.06-.1-.06,0-.08,.11-.13,.11-.06,0-.22-.06-.45-.06-.16,0-.3,.02-.43,.05-.17,.04-.18,.39,0,.44,.13,.04,.27,.05,.43,.05,.23,0,.39-.06,.45-.06,.05,0,.08,.11,.13,.11,.04,0,.06-.04,.06-.1v-.05c.16,.02,.26,.1,.38,.18,.17,.13,.37,.27,.77,.27s.59-.14,.77-.27c.12-.09,.22-.16,.38-.18v.05c0,.07,.02,.1,.06,.1,.06,0,.08-.11,.13-.11,.06,0,.22,.06,.45,.06,.16,0,.3-.01,.43-.05,.18-.05,.17-.4,0-.44Z"/><path class="w" d="M20.5,38.34c0-.23-.19-.42-.42-.42s-.42,.19-.42,.42,.19,.42,.42,.42,.42-.19,.42-.42Zm-.42,.28c-.15,0-.28-.12-.28-.28s.12-.28,.28-.28,.28,.12,.28,.28-.12,.28-.28,.28Z"/><path class="w" d="M20.02,38.87c-.07,0-.13,0-.13,.07v.22h.39v-.22c0-.07-.06-.07-.13-.07h-.13Z"/><path class="w" d="M21.57,40.09c-.22,0-.37,.08-.38,.43-.01,.01-.02,.03-.02,.05v.02c-.11,0-.24,.03-.24,.24v.55s0,.07-.1,.07v.15c.15,0,.25-.08,.25-.21v-.55c0-.09,0-.1,.09-.1v.02s.03,.07,.07,.07h.67s.07-.03,.07-.07v-.19s0-.04-.02-.05c-.01-.36-.16-.43-.38-.43Zm-.28,.41c.02-.31,.15-.31,.28-.31s.26,0,.28,.31h-.56Z"/></g></g><g><g class="ab"><circle class="aa" cx="68.18" cy="39.97" r="4.4"/></g><path class="w" d="M68.54,38.35c.05,.06,.09,.18,.09,.26v1.58l.65,.64c.06,.06,.13,.16,.15,.24l.67,1.71c.06,.15-.02,.31-.17,.35l-.07,.02c-.15,.05-.32-.04-.37-.19l-.56-1.56s-.06-.11-.09-.14l-1.02-.99c-.06-.06-.1-.16-.1-.24v-1.2c0-.08-.05-.11-.12-.07l-.41,.23s-.08,.09-.08,.13l-.1,.96c-.02,.16-.15,.27-.3,.26-.15-.01-.26-.15-.24-.31l.14-1.12c0-.08,.07-.18,.14-.22l1.03-.66c.07-.04,.18-.06,.26-.03,.2,.08,.38,.2,.51,.36Zm-.91,2.01l-1.33,2.21c-.09,.13-.05,.31,.09,.4h.01c.13,.09,.31,.05,.4-.08l1.29-2.06s.02-.1-.01-.13l-.35-.35s-.08-.03-.11,.01Zm1.16-.54l.48,.41c.12,.1,.29,.1,.38,0,.09-.11,.06-.28-.06-.38l-.8-.7s-.07-.02-.07,.03v.5s.03,.11,.07,.14Zm-.43-1.96c.3,0,.54-.24,.54-.54s-.24-.54-.54-.54-.54,.24-.54,.54,.24,.54,.54,.54Z"/></g><g class="af"><path class="ak" d="M16.36,27.08h-1.51v-.42h3.51v.42h-1.51v4.46h-.49v-4.46Z"/><path class="ak" d="M21.1,26.67h.53l1.68,4.87h-.52l-.91-2.79c-.19-.56-.35-1.08-.51-1.66h-.03c-.16,.58-.32,1.1-.51,1.66l-.92,2.79h-.5l1.68-4.87Zm-.85,2.9h2.22v.4h-2.22v-.4Z"/><path class="ak" d="M24.79,30.9l.3-.34c.35,.38,.85,.63,1.38,.63,.69,0,1.11-.36,1.11-.88,0-.55-.37-.72-.84-.93l-.72-.32c-.44-.19-.99-.52-.99-1.24s.63-1.25,1.48-1.25c.58,0,1.08,.26,1.4,.59l-.27,.32c-.29-.29-.66-.48-1.13-.48-.59,0-.99,.31-.99,.79,0,.52,.45,.71,.82,.87l.71,.31c.56,.24,1.01,.56,1.01,1.3s-.63,1.35-1.61,1.35c-.7,0-1.27-.29-1.68-.73Z"/><path class="ak" d="M30.18,26.67h.49v2.57h.02l2.18-2.57h.56l-1.54,1.83,1.76,3.04h-.55l-1.53-2.66-.91,1.06v1.6h-.49v-4.87Z"/><path class="ak" d="M38.1,26.67h2.74v.42h-2.25v1.78h1.9v.42h-1.9v2.26h-.49v-4.87Z"/><path class="ak" d="M42.44,29.09c0-1.55,.85-2.51,2.05-2.51s2.05,.96,2.05,2.51-.85,2.54-2.05,2.54-2.05-.99-2.05-2.54Zm3.59,0c0-1.28-.61-2.07-1.54-2.07s-1.54,.8-1.54,2.07,.61,2.11,1.54,2.11,1.54-.83,1.54-2.11Z"/><path class="ak" d="M48.73,26.67h1.47c.98,0,1.66,.36,1.66,1.33s-.68,1.4-1.66,1.4h-.97v2.14h-.49v-4.87Zm1.38,2.33c.81,0,1.25-.32,1.25-1s-.45-.93-1.25-.93h-.88v1.92h.88Zm-.01,.27l.41-.22,1.47,2.5h-.56l-1.32-2.28Z"/><path class="ak" d="M53.68,29.1c0-1.56,.89-2.52,2.13-2.52,.58,0,1.03,.29,1.31,.59l-.28,.32c-.26-.29-.6-.48-1.02-.48-.99,0-1.62,.8-1.62,2.08s.62,2.1,1.6,2.1c.48,0,.85-.2,1.18-.57l.28,.31c-.38,.44-.84,.7-1.47,.7-1.21,0-2.08-.96-2.08-2.53Z"/><path class="ak" d="M59.29,26.67h2.74v.42h-2.25v1.67h1.9v.42h-1.9v1.95h2.33v.42h-2.82v-4.87Z"/></g><path class="a`" style="fill:#F9A72D;" d="M44.98,40.48c-.16,0-.28-.13-.28-.28s.13-.28,.28-.28,.28,.13,.28,.28-.13,.28-.28,.28Z"/><path class="a`" style="fill:#F9A72D;" d="M43.28,40.48c-.16,0-.28-.13-.28-.28s.13-.28,.28-.28,.28,.13,.28,.28-.13,.28-.28,.28Z"/></g></g></g></g></svg>