<?xml version="1.0" encoding="UTF-8"?><svg xmlns="http://www.w3.org/2000/svg" viewBox="0 0 34.86 34.86"><defs><style>.d{fill:#fff;}.e{fill:#004054;}</style></defs><g id="a"/><g id="b"><g id="c"><rect class="d" width="34.86" height="34.86"/><g><rect class="e" x="2.55" y="2.79" width="1.02" height="2.04"/><rect class="e" x="2.55" y="4.84" width="1.02" height="2.04"/><rect class="e" x="2.55" y="6.88" width="1.02" height="3.06"/><rect class="e" x="2.55" y="10.96" width="1.02" height="5.11"/><rect class="e" x="2.55" y="17.09" width="1.02" height="1.02"/><rect class="e" x="2.55" y="19.14" width="1.02" height="1.02"/><rect class="e" x="2.55" y="21.18" width="1.02" height="1.02"/><rect class="e" x="2.55" y="25.27" width="1.02" height="7.15"/><rect class="e" x="3.57" y="2.79" width="1.02" height="1.02"/><rect class="e" x="3.57" y="8.92" width="1.02" height="1.02"/><rect class="e" x="3.57" y="11.99" width="1.02" height="1.02"/><rect class="e" x="3.57" y="16.07" width="1.02" height="2.04"/><rect class="e" x="3.57" y="23.22" width="1.02" height="1.02"/><rect class="e" x="3.57" y="25.27" width="1.02" height="1.02"/><rect class="e" x="3.57" y="31.4" width="1.02" height="1.02"/><rect class="e" x="4.6" y="2.79" width="1.02" height="1.02"/><rect class="e" x="4.6" y="4.84" width="1.02" height="2.04"/><rect class="e" x="4.6" y="6.88" width="1.02" height="1.02"/><rect class="e" x="4.6" y="8.92" width="1.02" height="1.02"/><rect class="e" x="4.6" y="10.96" width="1.02" height="1.02"/><rect class="e" x="4.6" y="14.03" width="1.02" height="1.02"/><rect class="e" x="4.6" y="19.14" width="1.02" height="1.02"/><rect class="e" x="4.6" y="21.18" width="1.02" height="2.04"/><rect class="e" x="4.6" y="25.27" width="1.02" height="1.02"/><rect class="e" x="4.6" y="27.31" width="1.02" height="3.06"/><rect class="e" x="4.6" y="31.4" width="1.02" height="1.02"/><rect class="e" x="5.62" y="2.79" width="1.02" height="1.02"/><rect class="e" x="5.62" y="4.84" width="1.02" height="2.04"/><rect class="e" x="5.62" y="6.88" width="1.02" height="1.02"/><rect class="e" x="5.62" y="8.92" width="1.02" height="1.02"/><rect class="e" x="5.62" y="10.96" width="1.02" height="1.02"/><rect class="e" x="5.62" y="13.01" width="1.02" height="6.13"/><rect class="e" x="5.62" y="23.22" width="1.02" height="1.02"/><rect class="e" x="5.62" y="25.27" width="1.02" height="1.02"/><rect class="e" x="5.62" y="27.31" width="1.02" height="3.06"/><rect class="e" x="5.62" y="31.4" width="1.02" height="1.02"/><rect class="e" x="6.64" y="2.79" width="1.02" height="1.02"/><rect class="e" x="6.64" y="4.84" width="1.02" height="2.04"/><rect class="e" x="6.64" y="6.88" width="1.02" height="1.02"/><rect class="e" x="6.64" y="8.92" width="1.02" height="1.02"/><rect class="e" x="6.64" y="14.03" width="1.02" height="1.02"/><rect class="e" x="6.64" y="16.07" width="1.02" height="2.04"/><rect class="e" x="6.64" y="19.14" width="1.02" height="2.04"/><rect class="e" x="6.64" y="22.2" width="1.02" height="1.02"/><rect class="e" x="6.64" y="25.27" width="1.02" height="1.02"/><rect class="e" x="6.64" y="27.31" width="1.02" height="3.06"/><rect class="e" x="6.64" y="31.4" width="1.02" height="1.02"/><rect class="e" x="7.66" y="2.79" width="1.02" height="1.02"/><rect class="e" x="7.66" y="8.92" width="1.02" height="1.02"/><rect class="e" x="7.66" y="10.96" width="1.02" height="1.02"/><rect class="e" x="7.66" y="13.01" width="1.02" height="1.02"/><rect class="e" x="7.66" y="16.07" width="1.02" height="3.06"/><rect class="e" x="7.66" y="21.18" width="1.02" height="1.02"/><rect class="e" x="7.66" y="25.27" width="1.02" height="1.02"/><rect class="e" x="7.66" y="31.4" width="1.02" height="1.02"/><rect class="e" x="8.68" y="2.79" width="1.02" height="2.04"/><rect class="e" x="8.68" y="4.84" width="1.02" height="2.04"/><rect class="e" x="8.68" y="6.88" width="1.02" height="3.06"/><rect class="e" x="8.68" y="10.96" width="1.02" height="1.02"/><rect class="e" x="8.68" y="13.01" width="1.02" height="1.02"/><rect class="e" x="8.68" y="15.05" width="1.02" height="1.02"/><rect class="e" x="8.68" y="17.09" width="1.02" height="1.02"/><rect class="e" x="8.68" y="19.14" width="1.02" height="1.02"/><rect class="e" x="8.68" y="21.18" width="1.02" height="1.02"/><rect class="e" x="8.68" y="23.22" width="1.02" height="1.02"/><rect class="e" x="8.68" y="25.27" width="1.02" height="7.15"/><rect class="e" x="9.7" y="10.96" width="1.02" height="1.02"/><rect class="e" x="9.7" y="14.03" width="1.02" height="2.04"/><rect class="e" x="9.7" y="18.12" width="1.02" height="3.06"/><rect class="e" x="9.7" y="22.2" width="1.02" height="2.04"/><rect class="e" x="10.73" y="2.79" width="1.02" height="2.04"/><rect class="e" x="10.73" y="5.86" width="1.02" height="1.02"/><rect class="e" x="10.73" y="8.92" width="1.02" height="2.04"/><rect class="e" x="10.73" y="11.99" width="1.02" height="2.04"/><rect class="e" x="10.73" y="18.12" width="1.02" height="2.04"/><rect class="e" x="10.73" y="22.2" width="1.02" height="1.02"/><rect class="e" x="10.73" y="24.25" width="1.02" height="3.06"/><rect class="e" x="10.73" y="28.33" width="1.02" height="2.04"/><rect class="e" x="10.73" y="31.4" width="1.02" height="1.02"/><rect class="e" x="11.75" y="5.86" width="1.02" height="1.02"/><rect class="e" x="11.75" y="6.88" width="1.02" height="1.02"/><rect class="e" x="11.75" y="15.05" width="1.02" height="2.04"/><rect class="e" x="11.75" y="18.12" width="1.02" height="1.02"/><rect class="e" x="11.75" y="20.16" width="1.02" height="3.06"/><rect class="e" x="11.75" y="24.25" width="1.02" height="1.02"/><rect class="e" x="11.75" y="27.31" width="1.02" height="4.09"/><rect class="e" x="12.77" y="3.81" width="1.02" height="1.02"/><rect class="e" x="12.77" y="4.84" width="1.02" height="2.04"/><rect class="e" x="12.77" y="8.92" width="1.02" height="6.13"/><rect class="e" x="12.77" y="16.07" width="1.02" height="1.02"/><rect class="e" x="12.77" y="19.14" width="1.02" height="1.02"/><rect class="e" x="12.77" y="21.18" width="1.02" height="1.02"/><rect class="e" x="12.77" y="24.25" width="1.02" height="5.11"/><rect class="e" x="12.77" y="30.38" width="1.02" height="1.02"/><rect class="e" x="13.79" y="4.84" width="1.02" height="1.02"/><rect class="e" x="13.79" y="10.96" width="1.02" height="2.04"/><rect class="e" x="13.79" y="14.03" width="1.02" height="2.04"/><rect class="e" x="13.79" y="18.12" width="1.02" height="1.02"/><rect class="e" x="13.79" y="20.16" width="1.02" height="1.02"/><rect class="e" x="13.79" y="22.2" width="1.02" height="1.02"/><rect class="e" x="13.79" y="24.25" width="1.02" height="1.02"/><rect class="e" x="13.79" y="27.31" width="1.02" height="5.11"/><rect class="e" x="14.81" y="8.92" width="1.02" height="1.02"/><rect class="e" x="14.81" y="10.96" width="1.02" height="1.02"/><rect class="e" x="14.81" y="14.03" width="1.02" height="1.02"/><rect class="e" x="14.81" y="16.07" width="1.02" height="1.02"/><rect class="e" x="14.81" y="19.14" width="1.02" height="4.09"/><rect class="e" x="14.81" y="27.31" width="1.02" height="1.02"/><rect class="e" x="14.81" y="29.35" width="1.02" height="2.04"/><rect class="e" x="15.83" y="2.79" width="1.02" height="2.04"/><rect class="e" x="15.83" y="4.84" width="1.02" height="2.04"/><rect class="e" x="15.83" y="6.88" width="1.02" height="2.04"/><rect class="e" x="15.83" y="10.96" width="1.02" height="3.06"/><rect class="e" x="15.83" y="17.09" width="1.02" height="1.02"/><rect class="e" x="15.83" y="21.18" width="1.02" height="3.06"/><rect class="e" x="15.83" y="26.29" width="1.02" height="1.02"/><rect class="e" x="15.83" y="30.38" width="1.02" height="2.04"/><rect class="e" x="16.86" y="3.81" width="1.02" height="1.02"/><rect class="e" x="16.86" y="4.84" width="1.02" height="1.02"/><rect class="e" x="16.86" y="8.92" width="1.02" height="2.04"/><rect class="e" x="16.86" y="15.05" width="1.02" height="2.04"/><rect class="e" x="16.86" y="18.12" width="1.02" height="6.13"/><rect class="e" x="16.86" y="25.27" width="1.02" height="2.04"/><rect class="e" x="16.86" y="29.35" width="1.02" height="1.02"/><rect class="e" x="16.86" y="31.4" width="1.02" height="1.02"/><rect class="e" x="17.88" y="5.86" width="1.02" height="1.02"/><rect class="e" x="17.88" y="6.88" width="1.02" height="2.04"/><rect class="e" x="17.88" y="9.94" width="1.02" height="2.04"/><rect class="e" x="17.88" y="13.01" width="1.02" height="4.09"/><rect class="e" x="17.88" y="18.12" width="1.02" height="1.02"/><rect class="e" x="17.88" y="20.16" width="1.02" height="3.06"/><rect class="e" x="17.88" y="27.31" width="1.02" height="2.04"/><rect class="e" x="17.88" y="30.38" width="1.02" height="1.02"/><rect class="e" x="18.9" y="3.81" width="1.02" height="1.02"/><rect class="e" x="18.9" y="4.84" width="1.02" height="1.02"/><rect class="e" x="18.9" y="7.9" width="1.02" height="2.04"/><rect class="e" x="18.9" y="10.96" width="1.02" height="1.02"/><rect class="e" x="18.9" y="13.01" width="1.02" height="1.02"/><rect class="e" x="18.9" y="15.05" width="1.02" height="1.02"/><rect class="e" x="18.9" y="17.09" width="1.02" height="1.02"/><rect class="e" x="18.9" y="20.16" width="1.02" height="2.04"/><rect class="e" x="18.9" y="24.25" width="1.02" height="2.04"/><rect class="e" x="18.9" y="28.33" width="1.02" height="1.02"/><rect class="e" x="18.9" y="30.38" width="1.02" height="1.02"/><rect class="e" x="19.92" y="5.86" width="1.02" height="1.02"/><rect class="e" x="19.92" y="7.9" width="1.02" height="1.02"/><rect class="e" x="19.92" y="9.94" width="1.02" height="4.09"/><rect class="e" x="19.92" y="15.05" width="1.02" height="1.02"/><rect class="e" x="19.92" y="20.16" width="1.02" height="1.02"/><rect class="e" x="19.92" y="22.2" width="1.02" height="2.04"/><rect class="e" x="19.92" y="25.27" width="1.02" height="1.02"/><rect class="e" x="19.92" y="27.31" width="1.02" height="2.04"/><rect class="e" x="20.94" y="2.79" width="1.02" height="1.02"/><rect class="e" x="20.94" y="4.84" width="1.02" height="1.02"/><rect class="e" x="20.94" y="7.9" width="1.02" height="7.15"/><rect class="e" x="20.94" y="17.09" width="1.02" height="1.02"/><rect class="e" x="20.94" y="19.14" width="1.02" height="1.02"/><rect class="e" x="20.94" y="21.18" width="1.02" height="3.06"/><rect class="e" x="20.94" y="25.27" width="1.02" height="1.02"/><rect class="e" x="20.94" y="28.33" width="1.02" height="4.09"/><rect class="e" x="21.96" y="5.86" width="1.02" height="1.02"/><rect class="e" x="21.96" y="6.88" width="1.02" height="2.04"/><rect class="e" x="21.96" y="9.94" width="1.02" height="3.06"/><rect class="e" x="21.96" y="16.07" width="1.02" height="4.09"/><rect class="e" x="21.96" y="22.2" width="1.02" height="1.02"/><rect class="e" x="21.96" y="25.27" width="1.02" height="2.04"/><rect class="e" x="21.96" y="28.33" width="1.02" height="2.04"/><rect class="e" x="21.96" y="31.4" width="1.02" height="1.02"/><rect class="e" x="22.99" y="2.79" width="1.02" height="1.02"/><rect class="e" x="22.99" y="4.84" width="1.02" height="1.02"/><rect class="e" x="22.99" y="6.88" width="1.02" height="3.06"/><rect class="e" x="22.99" y="11.99" width="1.02" height="2.04"/><rect class="e" x="22.99" y="15.05" width="1.02" height="1.02"/><rect class="e" x="22.99" y="17.09" width="1.02" height="4.09"/><rect class="e" x="22.99" y="23.22" width="1.02" height="5.11"/><rect class="e" x="22.99" y="30.38" width="1.02" height="2.04"/><rect class="e" x="24.01" y="11.99" width="1.02" height="2.04"/><rect class="e" x="24.01" y="16.07" width="1.02" height="6.13"/><rect class="e" x="24.01" y="23.22" width="1.02" height="1.02"/><rect class="e" x="24.01" y="27.31" width="1.02" height="4.09"/><rect class="e" x="25.03" y="2.79" width="1.02" height="2.04"/><rect class="e" x="25.03" y="4.84" width="1.02" height="2.04"/><rect class="e" x="25.03" y="6.88" width="1.02" height="3.06"/><rect class="e" x="25.03" y="10.96" width="1.02" height="2.04"/><rect class="e" x="25.03" y="14.03" width="1.02" height="1.02"/><rect class="e" x="25.03" y="16.07" width="1.02" height="3.06"/><rect class="e" x="25.03" y="22.2" width="1.02" height="2.04"/><rect class="e" x="25.03" y="25.27" width="1.02" height="1.02"/><rect class="e" x="25.03" y="27.31" width="1.02" height="1.02"/><rect class="e" x="26.05" y="2.79" width="1.02" height="1.02"/><rect class="e" x="26.05" y="8.92" width="1.02" height="1.02"/><rect class="e" x="26.05" y="11.99" width="1.02" height="3.06"/><rect class="e" x="26.05" y="16.07" width="1.02" height="3.06"/><rect class="e" x="26.05" y="20.16" width="1.02" height="2.04"/><rect class="e" x="26.05" y="23.22" width="1.02" height="1.02"/><rect class="e" x="26.05" y="27.31" width="1.02" height="1.02"/><rect class="e" x="26.05" y="29.35" width="1.02" height="2.04"/><rect class="e" x="27.07" y="2.79" width="1.02" height="1.02"/><rect class="e" x="27.07" y="4.84" width="1.02" height="2.04"/><rect class="e" x="27.07" y="6.88" width="1.02" height="1.02"/><rect class="e" x="27.07" y="8.92" width="1.02" height="1.02"/><rect class="e" x="27.07" y="11.99" width="1.02" height="3.06"/><rect class="e" x="27.07" y="17.09" width="1.02" height="3.06"/><rect class="e" x="27.07" y="23.22" width="1.02" height="6.13"/><rect class="e" x="28.09" y="2.79" width="1.02" height="1.02"/><rect class="e" x="28.09" y="4.84" width="1.02" height="2.04"/><rect class="e" x="28.09" y="6.88" width="1.02" height="1.02"/><rect class="e" x="28.09" y="8.92" width="1.02" height="1.02"/><rect class="e" x="28.09" y="10.96" width="1.02" height="1.02"/><rect class="e" x="28.09" y="15.05" width="1.02" height="1.02"/><rect class="e" x="28.09" y="19.14" width="1.02" height="2.04"/><rect class="e" x="28.09" y="23.22" width="1.02" height="4.09"/><rect class="e" x="28.09" y="28.33" width="1.02" height="1.02"/><rect class="e" x="28.09" y="30.38" width="1.02" height="2.04"/><rect class="e" x="29.11" y="2.79" width="1.02" height="1.02"/><rect class="e" x="29.11" y="4.84" width="1.02" height="2.04"/><rect class="e" x="29.11" y="6.88" width="1.02" height="1.02"/><rect class="e" x="29.11" y="8.92" width="1.02" height="1.02"/><rect class="e" x="29.11" y="13.01" width="1.02" height="1.02"/><rect class="e" x="29.11" y="15.05" width="1.02" height="3.06"/><rect class="e" x="29.11" y="20.16" width="1.02" height="5.11"/><rect class="e" x="29.11" y="27.31" width="1.02" height="1.02"/><rect class="e" x="29.11" y="29.35" width="1.02" height="1.02"/><rect class="e" x="30.14" y="2.79" width="1.02" height="1.02"/><rect class="e" x="30.14" y="8.92" width="1.02" height="1.02"/><rect class="e" x="30.14" y="10.96" width="1.02" height="1.02"/><rect class="e" x="30.14" y="13.01" width="1.02" height="1.02"/><rect class="e" x="30.14" y="16.07" width="1.02" height="5.11"/><rect class="e" x="30.14" y="24.25" width="1.02" height="2.04"/><rect class="e" x="30.14" y="27.31" width="1.02" height="1.02"/><rect class="e" x="30.14" y="30.38" width="1.02" height="2.04"/><rect class="e" x="31.16" y="2.79" width="1.02" height="2.04"/><rect class="e" x="31.16" y="4.84" width="1.02" height="2.04"/><rect class="e" x="31.16" y="6.88" width="1.02" height="3.06"/><rect class="e" x="31.16" y="10.96" width="1.02" height="2.04"/><rect class="e" x="31.16" y="14.03" width="1.02" height="1.02"/><rect class="e" x="31.16" y="16.07" width="1.02" height="2.04"/><rect class="e" x="31.16" y="24.25" width="1.02" height="1.02"/><rect class="e" x="31.16" y="26.29" width="1.02" height="1.02"/><rect class="e" x="31.16" y="28.33" width="1.02" height="2.04"/></g></g></g></svg>