<?xml version="1.0" encoding="UTF-8"?><svg xmlns="http://www.w3.org/2000/svg" viewBox="0 0 34.86 34.86"><defs><style>.d{fill:#fff;}.e{fill:#004054;}</style></defs><g id="a"/><g id="b"><g id="c"><rect class="d" width="34.86" height="34.86"/><g><rect class="e" x="2.62" y="3.03" width="1.02" height="2.04"/><rect class="e" x="2.62" y="5.07" width="1.02" height="2.04"/><rect class="e" x="2.62" y="7.12" width="1.02" height="3.06"/><rect class="e" x="2.62" y="11.2" width="1.02" height="3.06"/><rect class="e" x="2.62" y="15.29" width="1.02" height="1.02"/><rect class="e" x="2.62" y="18.35" width="1.02" height="1.02"/><rect class="e" x="2.62" y="21.42" width="1.02" height="1.02"/><rect class="e" x="2.62" y="25.5" width="1.02" height="7.15"/><rect class="e" x="3.64" y="3.03" width="1.02" height="1.02"/><rect class="e" x="3.64" y="9.16" width="1.02" height="1.02"/><rect class="e" x="3.64" y="14.27" width="1.02" height="2.04"/><rect class="e" x="3.64" y="17.33" width="1.02" height="1.02"/><rect class="e" x="3.64" y="23.46" width="1.02" height="1.02"/><rect class="e" x="3.64" y="25.5" width="1.02" height="1.02"/><rect class="e" x="3.64" y="31.63" width="1.02" height="1.02"/><rect class="e" x="4.66" y="3.03" width="1.02" height="1.02"/><rect class="e" x="4.66" y="5.07" width="1.02" height="2.04"/><rect class="e" x="4.66" y="7.12" width="1.02" height="1.02"/><rect class="e" x="4.66" y="9.16" width="1.02" height="1.02"/><rect class="e" x="4.66" y="11.2" width="1.02" height="2.04"/><rect class="e" x="4.66" y="14.27" width="1.02" height="1.02"/><rect class="e" x="4.66" y="18.35" width="1.02" height="1.02"/><rect class="e" x="4.66" y="21.42" width="1.02" height="1.02"/><rect class="e" x="4.66" y="25.5" width="1.02" height="1.02"/><rect class="e" x="4.66" y="27.55" width="1.02" height="3.06"/><rect class="e" x="4.66" y="31.63" width="1.02" height="1.02"/><rect class="e" x="5.68" y="3.03" width="1.02" height="1.02"/><rect class="e" x="5.68" y="5.07" width="1.02" height="2.04"/><rect class="e" x="5.68" y="7.12" width="1.02" height="1.02"/><rect class="e" x="5.68" y="9.16" width="1.02" height="1.02"/><rect class="e" x="5.68" y="11.2" width="1.02" height="1.02"/><rect class="e" x="5.68" y="13.25" width="1.02" height="2.04"/><rect class="e" x="5.68" y="16.31" width="1.02" height="3.06"/><rect class="e" x="5.68" y="21.42" width="1.02" height="3.06"/><rect class="e" x="5.68" y="25.5" width="1.02" height="1.02"/><rect class="e" x="5.68" y="27.55" width="1.02" height="3.06"/><rect class="e" x="5.68" y="31.63" width="1.02" height="1.02"/><rect class="e" x="6.7" y="3.03" width="1.02" height="1.02"/><rect class="e" x="6.7" y="5.07" width="1.02" height="2.04"/><rect class="e" x="6.7" y="7.12" width="1.02" height="1.02"/><rect class="e" x="6.7" y="9.16" width="1.02" height="1.02"/><rect class="e" x="6.7" y="16.31" width="1.02" height="4.09"/><rect class="e" x="6.7" y="22.44" width="1.02" height="1.02"/><rect class="e" x="6.7" y="25.5" width="1.02" height="1.02"/><rect class="e" x="6.7" y="27.55" width="1.02" height="3.06"/><rect class="e" x="6.7" y="31.63" width="1.02" height="1.02"/><rect class="e" x="7.72" y="3.03" width="1.02" height="1.02"/><rect class="e" x="7.72" y="9.16" width="1.02" height="1.02"/><rect class="e" x="7.72" y="11.2" width="1.02" height="1.02"/><rect class="e" x="7.72" y="17.33" width="1.02" height="2.04"/><rect class="e" x="7.72" y="21.42" width="1.02" height="1.02"/><rect class="e" x="7.72" y="23.46" width="1.02" height="1.02"/><rect class="e" x="7.72" y="25.5" width="1.02" height="1.02"/><rect class="e" x="7.72" y="31.63" width="1.02" height="1.02"/><rect class="e" x="8.75" y="3.03" width="1.02" height="2.04"/><rect class="e" x="8.75" y="5.07" width="1.02" height="2.04"/><rect class="e" x="8.75" y="7.12" width="1.02" height="3.06"/><rect class="e" x="8.75" y="11.2" width="1.02" height="1.02"/><rect class="e" x="8.75" y="13.25" width="1.02" height="1.02"/><rect class="e" x="8.75" y="15.29" width="1.02" height="1.02"/><rect class="e" x="8.75" y="17.33" width="1.02" height="1.02"/><rect class="e" x="8.75" y="19.38" width="1.02" height="1.02"/><rect class="e" x="8.75" y="21.42" width="1.02" height="1.02"/><rect class="e" x="8.75" y="23.46" width="1.02" height="1.02"/><rect class="e" x="8.75" y="25.5" width="1.02" height="7.15"/><rect class="e" x="9.77" y="11.2" width="1.02" height="2.04"/><rect class="e" x="9.77" y="18.35" width="1.02" height="1.02"/><rect class="e" x="9.77" y="21.42" width="1.02" height="1.02"/><rect class="e" x="10.79" y="3.03" width="1.02" height="2.04"/><rect class="e" x="10.79" y="6.09" width="1.02" height="1.02"/><rect class="e" x="10.79" y="9.16" width="1.02" height="2.04"/><rect class="e" x="10.79" y="12.22" width="1.02" height="8.17"/><rect class="e" x="10.79" y="21.42" width="1.02" height="2.04"/><rect class="e" x="10.79" y="24.48" width="1.02" height="3.06"/><rect class="e" x="10.79" y="28.57" width="1.02" height="2.04"/><rect class="e" x="10.79" y="31.63" width="1.02" height="1.02"/><rect class="e" x="11.81" y="3.03" width="1.02" height="1.02"/><rect class="e" x="11.81" y="5.07" width="1.02" height="1.02"/><rect class="e" x="11.81" y="7.12" width="1.02" height="1.02"/><rect class="e" x="11.81" y="12.22" width="1.02" height="2.04"/><rect class="e" x="11.81" y="16.31" width="1.02" height="1.02"/><rect class="e" x="11.81" y="18.35" width="1.02" height="1.02"/><rect class="e" x="11.81" y="21.42" width="1.02" height="2.04"/><rect class="e" x="11.81" y="25.5" width="1.02" height="5.11"/><rect class="e" x="11.81" y="31.63" width="1.02" height="1.02"/><rect class="e" x="12.83" y="5.07" width="1.02" height="2.04"/><rect class="e" x="12.83" y="9.16" width="1.02" height="1.02"/><rect class="e" x="12.83" y="12.22" width="1.02" height="3.06"/><rect class="e" x="12.83" y="16.31" width="1.02" height="1.02"/><rect class="e" x="12.83" y="18.35" width="1.02" height="3.06"/><rect class="e" x="12.83" y="22.44" width="1.02" height="1.02"/><rect class="e" x="12.83" y="24.48" width="1.02" height="1.02"/><rect class="e" x="12.83" y="26.53" width="1.02" height="1.02"/><rect class="e" x="12.83" y="29.59" width="1.02" height="3.06"/><rect class="e" x="13.85" y="3.03" width="1.02" height="1.02"/><rect class="e" x="13.85" y="5.07" width="1.02" height="2.04"/><rect class="e" x="13.85" y="8.14" width="1.02" height="1.02"/><rect class="e" x="13.85" y="10.18" width="1.02" height="4.09"/><rect class="e" x="13.85" y="17.33" width="1.02" height="3.06"/><rect class="e" x="13.85" y="21.42" width="1.02" height="1.02"/><rect class="e" x="13.85" y="23.46" width="1.02" height="1.02"/><rect class="e" x="13.85" y="25.5" width="1.02" height="1.02"/><rect class="e" x="13.85" y="31.63" width="1.02" height="1.02"/><rect class="e" x="14.88" y="3.03" width="1.02" height="1.02"/><rect class="e" x="14.88" y="6.09" width="1.02" height="1.02"/><rect class="e" x="14.88" y="9.16" width="1.02" height="1.02"/><rect class="e" x="14.88" y="14.27" width="1.02" height="2.04"/><rect class="e" x="14.88" y="19.38" width="1.02" height="4.09"/><rect class="e" x="14.88" y="24.48" width="1.02" height="1.02"/><rect class="e" x="14.88" y="31.63" width="1.02" height="1.02"/><rect class="e" x="15.9" y="3.03" width="1.02" height="2.04"/><rect class="e" x="15.9" y="5.07" width="1.02" height="1.02"/><rect class="e" x="15.9" y="7.12" width="1.02" height="1.02"/><rect class="e" x="15.9" y="10.18" width="1.02" height="2.04"/><rect class="e" x="15.9" y="14.27" width="1.02" height="1.02"/><rect class="e" x="15.9" y="16.31" width="1.02" height="1.02"/><rect class="e" x="15.9" y="18.35" width="1.02" height="1.02"/><rect class="e" x="15.9" y="20.4" width="1.02" height="1.02"/><rect class="e" x="15.9" y="23.46" width="1.02" height="3.06"/><rect class="e" x="15.9" y="29.59" width="1.02" height="1.02"/><rect class="e" x="16.92" y="5.07" width="1.02" height="1.02"/><rect class="e" x="16.92" y="7.12" width="1.02" height="5.11"/><rect class="e" x="16.92" y="13.25" width="1.02" height="2.04"/><rect class="e" x="16.92" y="17.33" width="1.02" height="1.02"/><rect class="e" x="16.92" y="24.48" width="1.02" height="1.02"/><rect class="e" x="16.92" y="27.55" width="1.02" height="4.09"/><rect class="e" x="17.94" y="5.07" width="1.02" height="2.04"/><rect class="e" x="17.94" y="12.22" width="1.02" height="1.02"/><rect class="e" x="17.94" y="14.27" width="1.02" height="2.04"/><rect class="e" x="17.94" y="19.38" width="1.02" height="4.09"/><rect class="e" x="17.94" y="27.55" width="1.02" height="2.04"/><rect class="e" x="17.94" y="30.61" width="1.02" height="1.02"/><rect class="e" x="18.96" y="4.05" width="1.02" height="1.02"/><rect class="e" x="18.96" y="5.07" width="1.02" height="1.02"/><rect class="e" x="18.96" y="7.12" width="1.02" height="4.09"/><rect class="e" x="18.96" y="12.22" width="1.02" height="1.02"/><rect class="e" x="18.96" y="14.27" width="1.02" height="3.06"/><rect class="e" x="18.96" y="18.35" width="1.02" height="1.02"/><rect class="e" x="18.96" y="20.4" width="1.02" height="2.04"/><rect class="e" x="18.96" y="24.48" width="1.02" height="2.04"/><rect class="e" x="18.96" y="28.57" width="1.02" height="1.02"/><rect class="e" x="18.96" y="30.61" width="1.02" height="1.02"/><rect class="e" x="19.98" y="6.09" width="1.02" height="1.02"/><rect class="e" x="19.98" y="8.14" width="1.02" height="1.02"/><rect class="e" x="19.98" y="10.18" width="1.02" height="4.09"/><rect class="e" x="19.98" y="15.29" width="1.02" height="1.02"/><rect class="e" x="19.98" y="20.4" width="1.02" height="1.02"/><rect class="e" x="19.98" y="22.44" width="1.02" height="2.04"/><rect class="e" x="19.98" y="25.5" width="1.02" height="1.02"/><rect class="e" x="19.98" y="27.55" width="1.02" height="2.04"/><rect class="e" x="21.01" y="3.03" width="1.02" height="1.02"/><rect class="e" x="21.01" y="5.07" width="1.02" height="1.02"/><rect class="e" x="21.01" y="8.14" width="1.02" height="7.15"/><rect class="e" x="21.01" y="17.33" width="1.02" height="1.02"/><rect class="e" x="21.01" y="19.38" width="1.02" height="1.02"/><rect class="e" x="21.01" y="21.42" width="1.02" height="3.06"/><rect class="e" x="21.01" y="25.5" width="1.02" height="1.02"/><rect class="e" x="21.01" y="28.57" width="1.02" height="4.09"/><rect class="e" x="22.03" y="6.09" width="1.02" height="1.02"/><rect class="e" x="22.03" y="7.12" width="1.02" height="2.04"/><rect class="e" x="22.03" y="10.18" width="1.02" height="3.06"/><rect class="e" x="22.03" y="16.31" width="1.02" height="4.09"/><rect class="e" x="22.03" y="22.44" width="1.02" height="1.02"/><rect class="e" x="22.03" y="25.5" width="1.02" height="2.04"/><rect class="e" x="22.03" y="28.57" width="1.02" height="2.04"/><rect class="e" x="22.03" y="31.63" width="1.02" height="1.02"/><rect class="e" x="23.05" y="3.03" width="1.02" height="1.02"/><rect class="e" x="23.05" y="5.07" width="1.02" height="1.02"/><rect class="e" x="23.05" y="7.12" width="1.02" height="3.06"/><rect class="e" x="23.05" y="12.22" width="1.02" height="2.04"/><rect class="e" x="23.05" y="15.29" width="1.02" height="1.02"/><rect class="e" x="23.05" y="17.33" width="1.02" height="4.09"/><rect class="e" x="23.05" y="23.46" width="1.02" height="5.11"/><rect class="e" x="23.05" y="30.61" width="1.02" height="2.04"/><rect class="e" x="24.07" y="12.22" width="1.02" height="2.04"/><rect class="e" x="24.07" y="16.31" width="1.02" height="6.13"/><rect class="e" x="24.07" y="23.46" width="1.02" height="1.02"/><rect class="e" x="24.07" y="27.55" width="1.02" height="4.09"/><rect class="e" x="25.09" y="3.03" width="1.02" height="2.04"/><rect class="e" x="25.09" y="5.07" width="1.02" height="2.04"/><rect class="e" x="25.09" y="7.12" width="1.02" height="3.06"/><rect class="e" x="25.09" y="11.2" width="1.02" height="2.04"/><rect class="e" x="25.09" y="14.27" width="1.02" height="1.02"/><rect class="e" x="25.09" y="16.31" width="1.02" height="3.06"/><rect class="e" x="25.09" y="22.44" width="1.02" height="2.04"/><rect class="e" x="25.09" y="25.5" width="1.02" height="1.02"/><rect class="e" x="25.09" y="27.55" width="1.02" height="1.02"/><rect class="e" x="26.11" y="3.03" width="1.02" height="1.02"/><rect class="e" x="26.11" y="9.16" width="1.02" height="1.02"/><rect class="e" x="26.11" y="12.22" width="1.02" height="3.06"/><rect class="e" x="26.11" y="16.31" width="1.02" height="3.06"/><rect class="e" x="26.11" y="20.4" width="1.02" height="2.04"/><rect class="e" x="26.11" y="23.46" width="1.02" height="1.02"/><rect class="e" x="26.11" y="27.55" width="1.02" height="1.02"/><rect class="e" x="26.11" y="29.59" width="1.02" height="2.04"/><rect class="e" x="27.14" y="3.03" width="1.02" height="1.02"/><rect class="e" x="27.14" y="5.07" width="1.02" height="2.04"/><rect class="e" x="27.14" y="7.12" width="1.02" height="1.02"/><rect class="e" x="27.14" y="9.16" width="1.02" height="1.02"/><rect class="e" x="27.14" y="12.22" width="1.02" height="3.06"/><rect class="e" x="27.14" y="17.33" width="1.02" height="3.06"/><rect class="e" x="27.14" y="23.46" width="1.02" height="6.13"/><rect class="e" x="28.16" y="3.03" width="1.02" height="1.02"/><rect class="e" x="28.16" y="5.07" width="1.02" height="2.04"/><rect class="e" x="28.16" y="7.12" width="1.02" height="1.02"/><rect class="e" x="28.16" y="9.16" width="1.02" height="1.02"/><rect class="e" x="28.16" y="11.2" width="1.02" height="1.02"/><rect class="e" x="28.16" y="15.29" width="1.02" height="1.02"/><rect class="e" x="28.16" y="19.38" width="1.02" height="2.04"/><rect class="e" x="28.16" y="23.46" width="1.02" height="4.09"/><rect class="e" x="28.16" y="28.57" width="1.02" height="1.02"/><rect class="e" x="28.16" y="30.61" width="1.02" height="2.04"/><rect class="e" x="29.18" y="3.03" width="1.02" height="1.02"/><rect class="e" x="29.18" y="5.07" width="1.02" height="2.04"/><rect class="e" x="29.18" y="7.12" width="1.02" height="1.02"/><rect class="e" x="29.18" y="9.16" width="1.02" height="1.02"/><rect class="e" x="29.18" y="13.25" width="1.02" height="1.02"/><rect class="e" x="29.18" y="15.29" width="1.02" height="3.06"/><rect class="e" x="29.18" y="20.4" width="1.02" height="5.11"/><rect class="e" x="29.18" y="27.55" width="1.02" height="1.02"/><rect class="e" x="29.18" y="29.59" width="1.02" height="1.02"/><rect class="e" x="30.2" y="3.03" width="1.02" height="1.02"/><rect class="e" x="30.2" y="9.16" width="1.02" height="1.02"/><rect class="e" x="30.2" y="11.2" width="1.02" height="1.02"/><rect class="e" x="30.2" y="13.25" width="1.02" height="1.02"/><rect class="e" x="30.2" y="16.31" width="1.02" height="5.11"/><rect class="e" x="30.2" y="24.48" width="1.02" height="3.06"/><rect class="e" x="30.2" y="30.61" width="1.02" height="2.04"/><rect class="e" x="31.22" y="3.03" width="1.02" height="2.04"/><rect class="e" x="31.22" y="5.07" width="1.02" height="2.04"/><rect class="e" x="31.22" y="7.12" width="1.02" height="3.06"/><rect class="e" x="31.22" y="11.2" width="1.02" height="2.04"/><rect class="e" x="31.22" y="14.27" width="1.02" height="1.02"/><rect class="e" x="31.22" y="16.31" width="1.02" height="2.04"/><rect class="e" x="31.22" y="24.48" width="1.02" height="1.02"/><rect class="e" x="31.22" y="26.53" width="1.02" height="1.02"/><rect class="e" x="31.22" y="28.57" width="1.02" height="2.04"/></g></g></g></svg>