<?xml version="1.0" encoding="UTF-8"?><svg xmlns="http://www.w3.org/2000/svg" viewBox="0 0 64.44 18.08"><defs><style>.d,.e{fill:#abf3ff;}.f{opacity:.4;}.e{fill-rule:evenodd;}</style></defs><g id="a"/><g id="b"><g id="c"><g><g class="f"><path class="d" d="M6.48,9.85H1.03c-.45,0-.82,.36-.82,.81v5.44c0,.45,.37,.81,.82,.81h3.09v-2.66c-.29,0-.61,.01-.88,0,0-.33-.01-.69,.01-1h.87c-.01-.7-.04-1.27,.26-1.65,.19-.26,.51-.43,.91-.46,.32-.02,.64,0,.94,.02v.9c-.42,0-.78-.05-.96,.17-.17,.21-.08,.81-.1,1.01,.33,0,.69-.01,1.01,.01-.04,.34-.1,.69-.14,1h-.87v2.66h1.31c.45,0,.82-.36,.82-.81v-5.44c0-.45-.37-.81-.82-.81"/><path class="d" d="M48.35,9.9h-5.37c-.45,0-.81,.36-.81,.8v5.37c0,.44,.36,.8,.81,.8h5.37c.45,0,.81-.36,.81-.8v-5.37c0-.44-.36-.8-.81-.8m-3.91,5.74h-1v-3.16s0-.02,0-.02h.99v3.18Zm-.19-3.69c-.38,.24-.88-.04-.88-.5,0-.3,.23-.55,.55-.57,.31-.02,.57,.2,.61,.5,.02,.26-.12,.47-.27,.56m3.89,3.69h-1v-1.07c0-.51,.07-1.09-.25-1.26-.28-.16-.64,0-.75,.2-.13,.24-.1,.62-.1,1.02v1.11h-1v-3.18h.95v.43c.18-.27,.45-.48,.88-.51,.41-.03,.74,.09,.93,.29,.54,.56,.24,1.95,.33,2.96"/><path class="d" d="M22.08,10.89c-.29,.13-.62,.22-.95,.26,.34-.2,.6-.53,.72-.91-.32,.19-.67,.33-1.05,.4-.3-.32-.73-.52-1.21-.52-.91,0-1.65,.74-1.65,1.65,0,.13,.01,.25,.04,.38-1.38-.07-2.59-.73-3.41-1.72-.14,.24-.22,.52-.22,.83,0,.57,.29,1.08,.74,1.37-.27,0-.53-.08-.75-.2v.02c0,.8,.57,1.47,1.33,1.62-.14,.04-.29,.06-.44,.06-.11,0-.21-.01-.31-.03,.21,.66,.82,1.13,1.54,1.15-.56,.44-1.28,.7-2.05,.7-.13,0-.26,0-.39-.02,.73,.47,1.6,.74,2.53,.74,3.04,0,4.7-2.52,4.7-4.7,0-.07,0-.14,0-.21,.32-.23,.6-.52,.82-.86"/><rect class="d" x="10.72" y="8.69" width=".36" height="9.39"/><rect class="d" x="24.51" y="8.69" width=".36" height="9.39"/><rect class="d" x="38.81" y="8.69" width=".36" height="9.39"/><rect class="d" x="52.07" y="8.69" width=".36" height="9.39"/><path class="e" d="M35.47,13.39c0,.53,.03,1.07,0,1.6-.05,.8-.36,1.47-1.15,1.81-.3,.13-.63,.21-.95,.22-1,.03-2.01,.02-3.02,0-1.23-.02-2.07-.83-2.11-2.05-.03-1.07-.03-2.14,0-3.2,.04-1.2,.87-2.01,2.07-2.03,1.03-.02,2.07-.02,3.1,0,1.19,.02,2.02,.86,2.06,2.05,.02,.53,0,1.07,0,1.6h0Zm-6.56,0h0c0,.54-.02,1.09,0,1.63,.04,.82,.49,1.29,1.32,1.32,1.09,.03,2.19,.03,3.28,0,.76-.02,1.24-.51,1.27-1.28,.03-1.12,.03-2.24,0-3.36-.02-.75-.51-1.24-1.25-1.26-1.11-.03-2.22-.03-3.33,0-.76,.02-1.23,.51-1.27,1.28-.03,.56,0,1.12,0,1.68"/><path class="e" d="M33.71,13.38c0,1.04-.83,1.88-1.85,1.88-1.04,0-1.88-.84-1.87-1.89,0-1.03,.84-1.87,1.87-1.87,1.02,0,1.86,.84,1.86,1.88m-1.87-1.22c-.66,0-1.22,.57-1.21,1.24,.01,.65,.57,1.21,1.22,1.2,.66,0,1.22-.58,1.21-1.24-.01-.66-.57-1.2-1.22-1.2"/><path class="e" d="M33.78,11.87c-.24,0-.44-.21-.43-.45,0-.23,.23-.44,.46-.43,.22,.01,.42,.22,.42,.44,0,.24-.21,.44-.45,.44"/><path class="d" d="M64.22,11.45c-.16-.65-.47-.9-1.03-.99-.32-.05-1.88-.11-3.12-.11h0c-1.24,0-2.8,.06-3.12,.11-.56,.09-.87,.34-1.03,.99-.06,.22-.13,1.42-.13,1.88v.1c0,.46,.08,1.66,.13,1.88,.16,.65,.47,.9,1.03,1,.32,.05,1.88,.11,3.12,.11s2.79-.06,3.12-.11c.56-.09,.87-.34,1.03-1,.05-.22,.13-1.42,.13-1.88v-.1c0-.46-.08-1.66-.13-1.88m-5.04,3.13v-2.43l2.27,1.19-2.27,1.24Z"/></g><g class="f"><path class="d" d="M3.41,3.27c-.05,.47-.23,.83-.52,1.09-.29,.25-.68,.38-1.16,.38-.52,0-.94-.19-1.26-.56s-.47-.88-.47-1.51v-.43c0-.41,.07-.77,.22-1.09S.58,.6,.85,.43c.27-.17,.58-.25,.94-.25,.47,0,.85,.13,1.13,.39s.45,.63,.5,1.09h-.59c-.05-.35-.16-.61-.33-.77-.17-.16-.41-.24-.71-.24-.37,0-.67,.14-.88,.41-.21,.28-.32,.67-.32,1.18v.43c0,.48,.1,.86,.3,1.15,.2,.28,.48,.43,.84,.43,.33,0,.57-.07,.75-.22,.17-.15,.29-.4,.35-.77h.59Z"/><path class="d" d="M3.97,3c0-.32,.06-.61,.19-.87,.13-.26,.3-.46,.53-.6s.48-.21,.78-.21c.45,0,.81,.16,1.09,.47,.28,.31,.42,.72,.42,1.24v.04c0,.32-.06,.61-.18,.86-.12,.25-.3,.45-.53,.6s-.49,.21-.79,.21c-.45,0-.81-.16-1.09-.47-.28-.31-.42-.72-.42-1.23v-.04Zm.57,.07c0,.37,.08,.66,.25,.88,.17,.22,.4,.33,.68,.33s.51-.11,.68-.34c.17-.22,.25-.54,.25-.94,0-.36-.09-.65-.26-.88-.17-.22-.4-.34-.68-.34s-.5,.11-.67,.33c-.17,.22-.25,.54-.25,.95Z"/><path class="d" d="M8.21,1.38l.02,.41c.25-.32,.58-.47,.99-.47,.7,0,1.05,.39,1.05,1.18v2.18h-.56V2.5c0-.24-.06-.41-.16-.53s-.27-.17-.5-.17c-.18,0-.34,.05-.48,.15-.14,.1-.25,.23-.32,.38v2.35h-.56V1.38h.53Z"/><path class="d" d="M11.65,1.38l.02,.41c.25-.32,.58-.47,.99-.47,.7,0,1.05,.39,1.05,1.18v2.18h-.56V2.5c0-.24-.06-.41-.16-.53s-.27-.17-.5-.17c-.18,0-.34,.05-.48,.15-.14,.1-.25,.23-.32,.38v2.35h-.56V1.38h.53Z"/><path class="d" d="M15.93,4.74c-.45,0-.81-.15-1.09-.44-.28-.29-.42-.69-.42-1.18v-.1c0-.33,.06-.62,.19-.88s.3-.46,.52-.6c.22-.15,.47-.22,.73-.22,.43,0,.76,.14,1,.42,.24,.28,.36,.69,.36,1.21v.23h-2.23c0,.32,.1,.59,.28,.79s.41,.3,.69,.3c.2,0,.37-.04,.5-.12s.26-.19,.36-.32l.34,.27c-.28,.42-.69,.64-1.24,.64Zm-.07-2.95c-.23,0-.42,.08-.57,.25-.15,.17-.25,.4-.29,.7h1.65v-.04c-.02-.29-.09-.51-.23-.67-.14-.16-.32-.24-.56-.24Z"/><path class="d" d="M19.18,4.28c.2,0,.38-.06,.53-.18s.23-.27,.25-.46h.53c0,.19-.08,.37-.19,.54-.12,.17-.28,.31-.48,.41-.2,.1-.41,.15-.63,.15-.45,0-.81-.15-1.07-.45-.27-.3-.4-.71-.4-1.23v-.09c0-.32,.06-.61,.18-.86,.12-.25,.29-.44,.51-.58,.22-.14,.48-.21,.78-.21,.37,0,.68,.11,.92,.33,.24,.22,.38,.51,.39,.86h-.53c-.02-.21-.1-.39-.24-.53-.15-.14-.32-.21-.54-.21-.29,0-.51,.1-.67,.31s-.24,.5-.24,.89v.11c0,.38,.08,.67,.23,.88,.16,.21,.38,.31,.67,.31Z"/><path class="d" d="M21.89,.58v.8h.62v.44h-.62V3.86c0,.13,.03,.23,.08,.3s.15,.1,.28,.1c.07,0,.15-.01,.27-.04v.45c-.15,.04-.29,.06-.43,.06-.25,0-.44-.08-.57-.23s-.19-.37-.19-.65V1.82h-.6v-.44h.6V.58h.56Z"/><path class="d" d="M27.62,3.9l.63-2.52h.56l-.96,3.29h-.46l-.8-2.5-.78,2.5h-.46l-.96-3.29h.56l.65,2.47,.77-2.47h.45l.78,2.52Z"/><path class="d" d="M29.4,.51c0-.09,.03-.17,.08-.23s.14-.09,.25-.09,.19,.03,.25,.09,.08,.14,.08,.23-.03,.17-.08,.23c-.06,.06-.14,.09-.25,.09s-.19-.03-.25-.09c-.06-.06-.08-.14-.08-.23Zm.61,4.17h-.56V1.38h.56v3.29Z"/><path class="d" d="M31.67,.58v.8h.62v.44h-.62V3.86c0,.13,.03,.23,.08,.3s.15,.1,.28,.1c.07,0,.15-.01,.27-.04v.45c-.15,.04-.29,.06-.43,.06-.25,0-.44-.08-.57-.23s-.19-.37-.19-.65V1.82h-.6v-.44h.6V.58h.56Z"/><path class="d" d="M33.51,1.78c.25-.31,.57-.46,.97-.46,.7,0,1.05,.39,1.05,1.18v2.18h-.56V2.5c0-.24-.06-.41-.16-.53s-.27-.17-.5-.17c-.18,0-.34,.05-.48,.15-.14,.1-.25,.23-.32,.38v2.35h-.56V0h.56V1.78Z"/><path class="d" d="M42.82,3.04c-.02,.52-.15,.93-.39,1.24-.23,.31-.55,.46-.95,.46-.17,0-.33-.04-.45-.11-.13-.08-.22-.18-.29-.32-.2,.28-.47,.43-.79,.43-.3,0-.53-.12-.69-.37-.16-.25-.22-.58-.18-.99,.04-.33,.12-.63,.25-.89s.3-.46,.5-.6,.42-.21,.66-.21c.29,0,.54,.07,.74,.2l.19,.13-.16,1.76c-.02,.16,0,.28,.05,.37,.06,.09,.14,.13,.27,.13,.19,0,.34-.11,.47-.33s.19-.5,.21-.86c.03-.71-.11-1.25-.43-1.63-.32-.38-.79-.57-1.42-.57-.39,0-.74,.1-1.05,.3-.31,.2-.55,.48-.72,.85-.18,.37-.28,.79-.3,1.26-.03,.72,.11,1.27,.43,1.67s.8,.59,1.44,.59c.17,0,.34-.02,.53-.06s.34-.09,.48-.15l.12,.47c-.12,.08-.29,.15-.5,.2s-.42,.07-.63,.07c-.54,0-.99-.11-1.37-.32-.38-.22-.66-.54-.84-.96-.19-.42-.27-.92-.24-1.51,.02-.56,.15-1.06,.38-1.51,.23-.44,.55-.79,.95-1.03,.4-.24,.85-.36,1.35-.36s.95,.11,1.32,.33c.37,.22,.64,.53,.83,.94,.18,.41,.26,.88,.24,1.42Zm-3.06,.32c-.02,.27,0,.47,.07,.61,.07,.14,.18,.21,.33,.21,.1,0,.19-.04,.28-.13,.09-.09,.16-.21,.22-.38l.13-1.44c-.08-.03-.16-.04-.24-.04-.23,0-.41,.1-.54,.3-.13,.2-.21,.49-.25,.87Z"/><path class="d" d="M43.47,4.68V.24h1.36c.39,0,.74,.09,1.05,.26,.31,.18,.55,.42,.72,.75,.17,.32,.26,.69,.26,1.1v.2c0,.41-.08,.78-.25,1.1-.17,.32-.41,.57-.72,.75-.31,.18-.66,.27-1.04,.27h-1.37Zm.91-3.69V3.94h.44c.36,0,.63-.12,.82-.35,.19-.23,.29-.57,.29-1v-.23c0-.45-.09-.79-.28-1.02-.19-.23-.46-.35-.82-.35h-.45Z"/><path class="d" d="M49.16,3.58l1-3.33h1.02l-1.54,4.43h-.95L47.15,.24h1.01l1,3.33Z"/><path class="d" d="M53.24,3.05h-.73v1.62h-.91V.24h1.65c.52,0,.93,.12,1.21,.35s.43,.56,.43,.99c0,.3-.07,.55-.2,.76-.13,.2-.33,.36-.59,.48l.96,1.81v.04h-.98l-.83-1.62Zm-.73-.74h.74c.23,0,.41-.06,.53-.17s.19-.28,.19-.48-.06-.37-.18-.49c-.12-.12-.3-.18-.55-.18h-.73v1.33Z"/><path class="d" d="M56.49,3.11v1.56h-.91V.24h1.73c.33,0,.63,.06,.88,.18,.25,.12,.45,.29,.58,.52,.14,.22,.2,.48,.2,.77,0,.43-.15,.78-.45,1.03-.3,.25-.71,.38-1.23,.38h-.8Zm0-.74h.82c.24,0,.43-.06,.55-.17s.19-.28,.19-.49-.06-.39-.19-.53c-.13-.13-.3-.2-.53-.21h-.84v1.39Z"/><path class="d" d="M63.08,3.2c-.04,.48-.21,.85-.53,1.13s-.74,.41-1.26,.41c-.57,0-1.02-.19-1.34-.57-.33-.38-.49-.91-.49-1.58v-.27c0-.43,.08-.8,.23-1.13,.15-.32,.36-.57,.64-.75,.28-.17,.6-.26,.97-.26,.51,0,.92,.14,1.24,.41s.49,.66,.54,1.15h-.91c-.02-.29-.1-.49-.24-.62s-.35-.19-.63-.19c-.3,0-.53,.11-.68,.33-.15,.22-.23,.56-.23,1.02v.33c0,.48,.07,.83,.22,1.05,.14,.22,.37,.33,.69,.33,.28,0,.49-.06,.63-.19,.14-.13,.22-.33,.24-.6h.91Z"/><path class="d" d="M63.77,4.39c0-.09,.03-.17,.08-.23,.06-.06,.14-.09,.25-.09s.19,.03,.25,.09,.09,.14,.09,.23-.03,.17-.09,.23-.14,.09-.25,.09-.19-.03-.25-.09c-.06-.06-.08-.14-.08-.23Zm.57-.97h-.51l-.04-3.18h.59l-.04,3.18Z"/></g></g></g></g></svg>