<?xml version="1.0" encoding="UTF-8"?><svg xmlns="http://www.w3.org/2000/svg" viewBox="0 0 148.49 47.31"><defs><style>.d{fill:#fff;}.e,.f{opacity:.5;}.g{opacity:.6;}.h,.i{opacity:.75;}.h,.j{fill:#f78131;}.k,.f{fill:#213f7c;}.l{opacity:.8;}.m{opacity:.45;}.n{fill:#298e65;}</style></defs><g id="a"/><g id="b"><g id="c"><g><path class="j" d="M61.48,1.87h-3.34c-1.28,0-2.33,1.04-2.33,2.33v13.73c0,1.28,1.04,2.33,2.33,2.33h.85v2.01h1.63v-2.01h.85c1.28,0,2.33-1.04,2.33-2.33V4.2c0-1.28-1.04-2.33-2.33-2.33Zm-1.67,16.41c-1.04,0-1.89-.84-1.89-1.89s.84-1.89,1.89-1.89,1.89,.84,1.89,1.89-.84,1.89-1.89,1.89Zm0-5.31c-1.04,0-1.89-.84-1.89-1.89s.84-1.89,1.89-1.89,1.89,.84,1.89,1.89-.84,1.89-1.89,1.89Zm0-5.31c-1.04,0-1.89-.84-1.89-1.89s.84-1.89,1.89-1.89,1.89,.84,1.89,1.89-.84,1.89-1.89,1.89Z"/><path class="k" d="M81.59,6.69l.05,1.26h-1.41l.05-1.26h-3.16l-9.7,15.9h27.03l-9.7-15.9h-3.16Zm-1.44,3.28h1.57l.1,2.56h-1.78l.1-2.56Zm-.42,10.38l.18-4.5h2.04l.18,4.5h-2.4Z"/><g><path class="n" d="M68.13,9.3c-.69,.69-.69,1.82,0,2.51,.69,.69,1.82,.69,2.51,0,.69-.69,.69-1.82,0-2.51-.69-.69-1.82-.69-2.51,0Z"/><path class="n" d="M69.39,6.24c-1.22,0-2.36,.5-3.22,1.41-.24,.25-.22,.64,.02,.88,.25,.24,.64,.22,.88-.02,.62-.66,1.44-1.02,2.32-1.02s1.7,.36,2.32,1.02c.12,.13,.29,.19,.45,.19,.15,0,.31-.06,.43-.17,.25-.24,.26-.63,.02-.88-.86-.91-2-1.41-3.22-1.41Z"/><path class="n" d="M69.39,3.24c-1.98,0-3.83,.81-5.23,2.29-.28,.29-.26,.75,.03,1.03,.29,.28,.75,.26,1.03-.03,1.12-1.18,2.6-1.83,4.17-1.83,1.57,0,3.06,.65,4.17,1.83,.14,.15,.34,.23,.53,.23,.18,0,.36-.07,.5-.2,.29-.28,.3-.74,.03-1.03-1.39-1.48-3.25-2.29-5.23-2.29Z"/><path class="n" d="M76.79,3.24c-1.97-2.09-4.6-3.24-7.4-3.24h0c-2.8,0-5.43,1.15-7.4,3.24-.35,.37-.34,.97,.04,1.32,.37,.35,.97,.34,1.32-.04,1.62-1.71,3.77-2.66,6.05-2.66,2.28,0,4.43,.94,6.05,2.66,.18,.19,.43,.29,.68,.29,.23,0,.46-.08,.64-.26,.37-.35,.39-.94,.04-1.32Z"/></g><g class="m"><polygon class="k" points="37.87 19.01 20.79 19.01 20.79 20.36 22.19 20.36 22.19 22.16 24.28 22.16 24.28 20.36 34.57 20.36 34.57 22.16 36.66 22.16 36.66 20.36 37.87 20.36 37.87 19.01"/><path class="k" d="M24.28,15.26c.18,.18,.38,.37,.6,.54l1.06,2.75h.7l-.81-2.11c.56,.32,1.21,.58,1.96,.73l.26,1.38h.67l-.24-1.27c.27,.03,.56,.05,.85,.05s.58-.02,.85-.04l-.24,1.27h.67l.25-1.37c.73-.15,1.38-.39,1.94-.69l-.79,2.06h.7l1.02-2.65c.31-.23,.59-.48,.83-.72v3.37h2.09v-6.93h-2.09v2.04c-.8,1.08-2.45,2.68-5.24,2.68s-4.29-1.52-5.05-2.59v-2.13h-2.09v6.93h2.09v-3.3Z"/></g><g class="e"><path class="n" d="M100.63,8.02c-.75,0-1.36,.61-1.36,1.36s.61,1.36,1.36,1.36,1.36-.61,1.36-1.36-.61-1.36-1.36-1.36Z"/><path class="n" d="M109.35,8.02c-.75,0-1.36,.61-1.36,1.36s.61,1.36,1.36,1.36,1.36-.61,1.36-1.36-.61-1.36-1.36-1.36Z"/><path class="n" d="M113.52,7.09c-1.1-.41-2.78-.92-3.9-1.55-1.12-.64-1.63-1.76-4.75-1.76s-4.38,.55-5.27,1.08c-.69,.41-1.17,.59-1.68,.69-.39,.07-.39,.97-.37,1.93,.02,.93,.24,1.46,1.29,1.8,0,0,.1,.03,.11-.04,.08-.87,.81-1.55,1.69-1.55,.94,0,1.7,.76,1.7,1.7,0,.03,0,.05,0,.08,0,0,0,.09,.08,.09l5.15,.04c.1,0,.08-.08,.08-.08,0-.04,0-.09,0-.14,0-.94,.76-1.7,1.7-1.7s1.66,.72,1.7,1.63c0,0,0,.09,.09,.09h2.23s.73,.04,.9-.8c.15-.7,.18-1.15-.76-1.5Zm-13.61-.82c1.21-1.68,3.75-1.79,3.75-1.79h.7v1.79h-4.44Zm4.86,0v-1.79h.04c2.13,0,2.68,.48,2.68,.48l1.69,1.32h-4.42Zm9.1,1.9c-.04,.19-.23,.15-.46,.12,0,0-1.15-.17-.91-.71,.21-.48,.87-.01,1.11,.13,.24,.15,.29,.27,.25,.46Z"/></g><path class="h" d="M53.23,22.32h-2.6l-2.23-2.01h-2.88l-2.23,2.01h-2.6l2.29-2.07c-.77-.21-1.34-.92-1.34-1.75V9.96c0-1,.81-1.81,1.81-1.81h7.01c1,0,1.81,.81,1.81,1.81v8.53c0,.83-.57,1.54-1.34,1.75l2.29,2.07Zm-2.47-.32h1.66l-2.2-1.99,.36-.03c.78-.05,1.39-.71,1.39-1.49V9.96c0-.83-.67-1.5-1.49-1.5h-7.01c-.83,0-1.49,.67-1.49,1.5v8.53c0,.78,.61,1.44,1.39,1.49l.36,.03-.27,.25-1.93,1.74h1.66l2.23-2.01h3.13l2.23,2.01Zm-.97-3.85c-.6,0-1.09-.49-1.09-1.09s.49-1.09,1.09-1.09,1.09,.49,1.09,1.09-.49,1.09-1.09,1.09Zm0-1.85c-.43,0-.77,.34-.77,.77s.34,.77,.77,.77,.77-.34,.77-.77-.34-.77-.77-.77Zm-5.65,1.85c-.6,0-1.09-.49-1.09-1.09s.49-1.09,1.09-1.09,1.09,.49,1.09,1.09-.49,1.09-1.09,1.09Zm0-1.85c-.43,0-.77,.34-.77,.77s.34,.77,.77,.77,.77-.34,.77-.77-.34-.77-.77-.77Zm6.85-1.06h-8.04v-4.5h8.04v4.5Zm-7.73-.32h7.41v-3.87h-7.41v3.87Zm5.19-4.66h-2.96c-.33,0-.61-.27-.61-.61s.27-.6,.61-.6h2.96c.33,0,.61,.27,.61,.6s-.27,.61-.61,.61Zm-2.96-.89c-.16,0-.29,.13-.29,.29s.13,.29,.29,.29h2.96c.16,0,.29-.13,.29-.29s-.13-.29-.29-.29h-2.96Z"/><g><path class="k" d="M45.85,29.92h-2.04v5.63h-1.13v-5.63h-2.03v-.92h5.2v.92Z"/><path class="k" d="M48.86,31.68c-.15-.02-.29-.04-.45-.04-.5,0-.83,.19-1.01,.58v3.33h-1.09v-4.87h1.05l.03,.54c.26-.42,.63-.64,1.1-.64,.15,0,.29,.03,.39,.07v1.02Z"/><path class="k" d="M52.32,35.55c-.05-.09-.09-.25-.12-.45-.35,.36-.78,.54-1.28,.54s-.89-.14-1.2-.42c-.31-.28-.46-.62-.46-1.03,0-.52,.19-.92,.58-1.2,.39-.28,.94-.42,1.66-.42h.67v-.32c0-.25-.07-.45-.21-.6-.14-.15-.36-.23-.64-.23-.25,0-.45,.06-.61,.19-.16,.12-.24,.28-.24,.47h-1.09c0-.27,.09-.52,.27-.75s.42-.41,.72-.54,.65-.2,1.02-.2c.57,0,1.02,.15,1.36,.43,.34,.29,.51,.69,.52,1.21v2.2c0,.44,.06,.79,.18,1.05v.07h-1.12Zm-1.2-.79c.22,0,.42-.05,.61-.16,.19-.11,.33-.25,.43-.42v-.92h-.59c-.4,0-.71,.07-.91,.21-.2,.14-.3,.34-.3,.6,0,.21,.07,.38,.21,.5,.14,.13,.33,.19,.56,.19Z"/><path class="k" d="M55.42,30.68l.03,.56c.36-.44,.83-.65,1.42-.65,1.02,0,1.53,.58,1.55,1.74v3.22h-1.09v-3.16c0-.31-.07-.54-.2-.69-.13-.15-.35-.22-.65-.22-.44,0-.77,.2-.98,.6v3.46h-1.09v-4.87h1.03Z"/><path class="k" d="M62.26,34.23c0-.19-.08-.34-.24-.44-.16-.11-.43-.19-.8-.27-.37-.08-.69-.18-.93-.29-.54-.26-.82-.65-.82-1.15,0-.42,.18-.77,.53-1.05,.36-.29,.8-.43,1.35-.43,.58,0,1.05,.15,1.41,.44,.36,.29,.54,.66,.54,1.12h-1.09c0-.21-.08-.39-.23-.52-.16-.14-.36-.21-.62-.21-.24,0-.44,.06-.58,.17-.15,.11-.23,.26-.23,.44,0,.17,.07,.3,.21,.39s.43,.19,.86,.28c.43,.1,.76,.21,1.01,.34,.24,.13,.43,.29,.54,.47,.11,.18,.18,.4,.18,.67,0,.44-.18,.79-.54,1.06s-.84,.4-1.43,.4c-.4,0-.75-.07-1.06-.22-.31-.14-.55-.34-.73-.59-.18-.25-.26-.52-.26-.81h1.06c.02,.26,.11,.46,.29,.6,.18,.14,.42,.21,.72,.21s.51-.05,.65-.16,.22-.25,.22-.43Z"/><path class="k" d="M68.55,33.16c0,.76-.17,1.35-.51,1.8-.34,.45-.8,.67-1.38,.67-.53,0-.96-.17-1.28-.52v2.31h-1.09v-6.74h1.01l.04,.5c.32-.39,.76-.59,1.31-.59,.59,0,1.06,.22,1.4,.67,.34,.44,.51,1.05,.51,1.84v.07Zm-1.09-.09c0-.49-.1-.87-.29-1.16s-.47-.43-.83-.43c-.45,0-.77,.18-.96,.55v2.16c.2,.38,.52,.57,.97,.57,.35,0,.62-.14,.82-.42,.19-.28,.29-.7,.29-1.27Z"/><path class="k" d="M69.27,33.07c0-.48,.09-.91,.28-1.29s.46-.67,.8-.88c.34-.21,.74-.31,1.18-.31,.65,0,1.19,.22,1.6,.64,.41,.42,.63,.98,.66,1.68v.25c0,.48-.09,.91-.27,1.29s-.45,.67-.79,.88c-.35,.21-.74,.31-1.19,.31-.69,0-1.24-.23-1.65-.69-.41-.46-.62-1.07-.62-1.83v-.05Zm1.09,.09c0,.5,.11,.9,.31,1.18,.21,.29,.5,.43,.87,.43s.65-.15,.86-.43c.21-.29,.31-.71,.31-1.27,0-.49-.11-.88-.32-1.17-.21-.29-.5-.44-.86-.44s-.64,.15-.85,.43c-.21,.29-.32,.71-.32,1.27Z"/><path class="k" d="M77.27,31.68c-.15-.02-.29-.04-.45-.04-.5,0-.83,.19-1.01,.58v3.33h-1.09v-4.87h1.05l.03,.54c.26-.42,.63-.64,1.1-.64,.15,0,.29,.03,.39,.07v1.02Z"/><path class="k" d="M79.55,29.5v1.18h.86v.81h-.86v2.72c0,.18,.04,.32,.11,.4,.07,.08,.21,.12,.4,.12,.12,0,.25-.02,.38-.05v.85c-.25,.07-.49,.1-.72,.1-.84,0-1.26-.46-1.26-1.39v-2.76h-.8v-.81h.8v-1.18h1.09Z"/><path class="k" d="M84.16,35.55c-.05-.09-.09-.25-.13-.45-.35,.36-.78,.54-1.28,.54s-.89-.14-1.2-.42c-.31-.28-.47-.62-.47-1.03,0-.52,.19-.92,.58-1.2s.94-.42,1.65-.42h.67v-.32c0-.25-.07-.45-.21-.6-.14-.15-.35-.23-.64-.23-.25,0-.45,.06-.61,.19-.16,.12-.24,.28-.24,.47h-1.09c0-.27,.09-.52,.26-.75s.42-.41,.72-.54c.31-.13,.65-.2,1.02-.2,.57,0,1.03,.15,1.36,.43,.34,.29,.52,.69,.53,1.21v2.2c0,.44,.06,.79,.18,1.05v.07h-1.11Zm-1.2-.79c.22,0,.42-.05,.61-.16s.33-.25,.43-.42v-.92h-.59c-.4,0-.71,.07-.91,.21-.2,.14-.3,.34-.3,.6,0,.21,.07,.38,.21,.5,.14,.13,.33,.19,.56,.19Z"/><path class="k" d="M87.6,29.5v1.18h.86v.81h-.86v2.72c0,.18,.04,.32,.11,.4,.07,.08,.21,.12,.4,.12,.13,0,.25-.02,.38-.05v.85c-.25,.07-.49,.1-.72,.1-.84,0-1.26-.46-1.26-1.39v-2.76h-.8v-.81h.8v-1.18h1.09Z"/><path class="k" d="M89.3,29.42c0-.17,.05-.31,.16-.42,.11-.11,.26-.17,.46-.17s.35,.06,.46,.17c.11,.11,.16,.25,.16,.42s-.06,.3-.16,.41c-.11,.11-.26,.16-.46,.16s-.35-.05-.46-.16c-.11-.11-.16-.25-.16-.41Zm1.16,6.13h-1.09v-4.87h1.09v4.87Z"/><path class="k" d="M91.45,33.07c0-.48,.09-.91,.28-1.29s.46-.67,.8-.88c.34-.21,.73-.31,1.18-.31,.65,0,1.19,.22,1.6,.64s.63,.98,.66,1.68v.25c0,.48-.09,.91-.27,1.29s-.45,.67-.79,.88-.74,.31-1.19,.31c-.69,0-1.23-.23-1.65-.69s-.62-1.07-.62-1.83v-.05Zm1.09,.09c0,.5,.1,.9,.31,1.18,.21,.29,.5,.43,.87,.43s.65-.15,.86-.43c.21-.29,.31-.71,.31-1.27,0-.49-.11-.88-.32-1.17-.21-.29-.5-.44-.86-.44s-.64,.15-.85,.43c-.21,.29-.31,.71-.31,1.27Z"/><path class="k" d="M97.91,30.68l.04,.56c.36-.44,.83-.65,1.42-.65,1.02,0,1.53,.58,1.55,1.74v3.22h-1.09v-3.16c0-.31-.07-.54-.2-.69s-.35-.22-.65-.22c-.44,0-.77,.2-.98,.6v3.46h-1.09v-4.87h1.03Z"/><path class="k" d="M109.65,32.44c0,.65-.11,1.21-.33,1.69-.22,.48-.54,.86-.95,1.12s-.89,.39-1.42,.39-1.01-.13-1.42-.39c-.42-.26-.74-.63-.96-1.11-.23-.48-.34-1.04-.35-1.66v-.37c0-.64,.11-1.2,.34-1.69,.22-.49,.54-.86,.96-1.12,.41-.26,.88-.39,1.42-.39s1.01,.13,1.42,.38c.41,.26,.73,.63,.96,1.11,.22,.48,.34,1.04,.34,1.68v.36Zm-1.14-.34c0-.73-.14-1.28-.41-1.67-.28-.39-.66-.58-1.17-.58s-.88,.19-1.16,.58-.42,.93-.43,1.63v.38c0,.72,.14,1.28,.42,1.67,.28,.4,.67,.59,1.17,.59s.89-.19,1.16-.58c.27-.38,.4-.94,.4-1.68v-.34Z"/><path class="k" d="M114.94,33.16c0,.76-.17,1.35-.51,1.8s-.8,.67-1.38,.67c-.54,0-.96-.17-1.28-.52v2.31h-1.09v-6.74h1.01l.05,.5c.32-.39,.76-.59,1.31-.59,.59,0,1.06,.22,1.39,.67,.34,.44,.51,1.05,.51,1.84v.07Zm-1.09-.09c0-.49-.1-.87-.29-1.16s-.47-.43-.83-.43c-.45,0-.77,.18-.96,.55v2.16c.2,.38,.52,.57,.97,.57,.35,0,.62-.14,.82-.42,.19-.28,.29-.7,.29-1.27Z"/><path class="k" d="M118.01,35.64c-.69,0-1.25-.22-1.68-.65-.43-.44-.65-1.02-.65-1.74v-.14c0-.49,.09-.92,.28-1.3s.45-.68,.79-.89c.34-.22,.72-.33,1.13-.33,.66,0,1.17,.22,1.53,.64,.36,.42,.54,1.02,.54,1.8v.44h-3.18c.03,.4,.17,.72,.4,.95,.24,.23,.53,.35,.89,.35,.5,0,.91-.2,1.22-.61l.59,.56c-.19,.29-.45,.51-.78,.68-.33,.16-.69,.24-1.1,.24Zm-.13-4.17c-.3,0-.54,.11-.73,.32s-.3,.5-.35,.88h2.08v-.08c-.02-.36-.12-.64-.29-.83-.17-.18-.4-.28-.71-.28Z"/><path class="k" d="M123.36,31.68c-.15-.02-.29-.04-.45-.04-.5,0-.84,.19-1.01,.58v3.33h-1.09v-4.87h1.05l.03,.54c.26-.42,.63-.64,1.09-.64,.16,0,.29,.03,.39,.07v1.02Z"/><path class="k" d="M126.83,35.55c-.04-.09-.09-.25-.12-.45-.35,.36-.77,.54-1.28,.54s-.89-.14-1.2-.42c-.31-.28-.47-.62-.47-1.03,0-.52,.19-.92,.58-1.2,.38-.28,.94-.42,1.65-.42h.67v-.32c0-.25-.07-.45-.22-.6-.14-.15-.35-.23-.64-.23-.25,0-.45,.06-.61,.19-.16,.12-.24,.28-.24,.47h-1.09c0-.27,.09-.52,.26-.75s.42-.41,.72-.54c.31-.13,.65-.2,1.02-.2,.57,0,1.02,.15,1.37,.43,.34,.29,.51,.69,.52,1.21v2.2c0,.44,.06,.79,.18,1.05v.07h-1.12Zm-1.2-.79c.22,0,.42-.05,.61-.16,.19-.11,.33-.25,.43-.42v-.92h-.59c-.4,0-.71,.07-.91,.21-.21,.14-.31,.34-.31,.6,0,.21,.07,.38,.21,.5,.14,.13,.33,.19,.56,.19Z"/><path class="k" d="M130.27,29.5v1.18h.86v.81h-.86v2.72c0,.18,.04,.32,.11,.4,.07,.08,.21,.12,.4,.12,.13,0,.25-.02,.38-.05v.85c-.25,.07-.49,.1-.72,.1-.84,0-1.26-.46-1.26-1.39v-2.76h-.8v-.81h.8v-1.18h1.09Z"/><path class="k" d="M131.97,29.42c0-.17,.05-.31,.16-.42,.11-.11,.26-.17,.46-.17s.35,.06,.46,.17c.11,.11,.16,.25,.16,.42s-.06,.3-.16,.41c-.11,.11-.26,.16-.46,.16s-.35-.05-.46-.16c-.11-.11-.16-.25-.16-.41Zm1.16,6.13h-1.09v-4.87h1.09v4.87Z"/><path class="k" d="M134.12,33.07c0-.48,.09-.91,.28-1.29s.46-.67,.8-.88c.34-.21,.73-.31,1.18-.31,.65,0,1.19,.22,1.6,.64s.63,.98,.66,1.68v.25c0,.48-.09,.91-.27,1.29s-.45,.67-.79,.88-.74,.31-1.19,.31c-.69,0-1.23-.23-1.65-.69s-.62-1.07-.62-1.83v-.05Zm1.09,.09c0,.5,.1,.9,.31,1.18,.21,.29,.5,.43,.87,.43s.65-.15,.86-.43c.21-.29,.31-.71,.31-1.27,0-.49-.11-.88-.32-1.17-.21-.29-.5-.44-.86-.44s-.64,.15-.85,.43c-.21,.29-.31,.71-.31,1.27Z"/><path class="k" d="M140.58,30.68l.04,.56c.36-.44,.83-.65,1.42-.65,1.02,0,1.53,.58,1.55,1.74v3.22h-1.09v-3.16c0-.31-.07-.54-.2-.69s-.35-.22-.65-.22c-.44,0-.77,.2-.98,.6v3.46h-1.09v-4.87h1.03Z"/><path class="k" d="M147.42,34.23c0-.19-.08-.34-.24-.44-.16-.11-.43-.19-.8-.27s-.68-.18-.93-.29c-.54-.26-.82-.65-.82-1.15,0-.42,.18-.77,.53-1.05,.36-.29,.8-.43,1.35-.43,.58,0,1.05,.15,1.41,.44,.36,.29,.54,.66,.54,1.12h-1.09c0-.21-.08-.39-.23-.52-.16-.14-.36-.21-.62-.21-.24,0-.44,.06-.59,.17s-.23,.26-.23,.44c0,.17,.07,.3,.21,.39,.15,.09,.43,.19,.86,.28,.43,.1,.76,.21,1.01,.34,.24,.13,.43,.29,.54,.47s.18,.4,.18,.67c0,.44-.18,.79-.54,1.06-.36,.27-.83,.4-1.42,.4-.4,0-.76-.07-1.07-.22-.31-.14-.55-.34-.73-.59-.17-.25-.26-.52-.26-.81h1.06c.02,.26,.11,.46,.29,.6,.18,.14,.42,.21,.72,.21s.51-.05,.65-.16,.22-.25,.22-.43Z"/><path class="k" d="M45.85,39.68h-2.04v5.63h-1.13v-5.63h-2.03v-.92h5.2v.92Z"/><path class="k" d="M48.76,45.32c-.05-.09-.09-.25-.12-.45-.35,.36-.78,.54-1.28,.54s-.89-.14-1.2-.42c-.31-.28-.46-.62-.46-1.03,0-.52,.19-.92,.58-1.2,.39-.28,.94-.42,1.66-.42h.67v-.32c0-.25-.07-.45-.21-.6-.14-.15-.36-.23-.64-.23-.25,0-.45,.06-.61,.19-.16,.12-.24,.28-.24,.47h-1.09c0-.27,.09-.52,.27-.75s.42-.41,.72-.54,.65-.2,1.02-.2c.57,0,1.02,.14,1.36,.43,.34,.29,.51,.69,.52,1.21v2.2c0,.44,.06,.79,.18,1.05v.07h-1.12Zm-1.2-.79c.22,0,.42-.05,.61-.16,.19-.11,.33-.25,.43-.42v-.92h-.59c-.4,0-.71,.07-.91,.21-.2,.14-.3,.34-.3,.6,0,.21,.07,.38,.21,.5,.14,.13,.33,.19,.56,.19Z"/><path class="k" d="M53.56,44c0-.19-.08-.34-.24-.44-.16-.11-.43-.19-.8-.27-.37-.08-.68-.18-.93-.29-.54-.26-.82-.65-.82-1.15,0-.42,.18-.77,.53-1.05,.35-.28,.8-.42,1.35-.42,.58,0,1.05,.14,1.41,.43,.36,.29,.54,.66,.54,1.12h-1.09c0-.21-.07-.39-.23-.52-.15-.14-.36-.21-.62-.21-.24,0-.44,.06-.59,.17-.15,.11-.22,.26-.22,.44,0,.17,.07,.3,.21,.39s.43,.19,.85,.28c.43,.1,.76,.21,1.01,.34s.43,.29,.54,.47,.18,.4,.18,.67c0,.44-.18,.79-.54,1.06-.36,.27-.84,.4-1.43,.4-.4,0-.76-.07-1.07-.22-.31-.14-.55-.34-.73-.59-.17-.25-.26-.52-.26-.81h1.06c.01,.26,.11,.46,.29,.6,.18,.14,.42,.21,.72,.21s.51-.05,.66-.16c.15-.11,.22-.25,.22-.43Z"/><path class="k" d="M57.17,43.23l-.48,.5v1.59h-1.09v-6.91h1.09v3.99l.34-.43,1.35-1.52h1.31l-1.81,2.03,2,2.84h-1.27l-1.45-2.09Z"/><path class="k" d="M66.58,42.54h-2.64v2.78h-1.14v-6.55h4.16v.92h-3.02v1.95h2.64v.91Z"/><path class="k" d="M67.46,42.84c0-.48,.09-.91,.28-1.29s.46-.67,.8-.88c.34-.21,.74-.31,1.18-.31,.65,0,1.19,.21,1.6,.63,.41,.42,.63,.98,.66,1.68v.25c0,.48-.09,.91-.27,1.29s-.45,.67-.79,.88c-.35,.21-.74,.31-1.19,.31-.69,0-1.24-.23-1.65-.69-.41-.46-.62-1.07-.62-1.83v-.05Zm1.09,.09c0,.5,.11,.9,.31,1.18,.21,.29,.5,.43,.87,.43s.65-.15,.86-.43c.21-.29,.31-.71,.31-1.27,0-.49-.11-.88-.32-1.17-.21-.29-.5-.44-.86-.44s-.64,.15-.85,.43c-.21,.29-.32,.71-.32,1.27Z"/><path class="k" d="M75.46,41.45c-.14-.02-.29-.04-.44-.04-.5,0-.84,.19-1.01,.58v3.33h-1.09v-4.87h1.04l.03,.54c.26-.42,.63-.63,1.1-.63,.16,0,.29,.02,.39,.06v1.02Z"/><path class="k" d="M78.06,44.54c.27,0,.5-.08,.68-.24,.18-.16,.28-.36,.29-.59h1.03c-.01,.3-.11,.59-.29,.85-.18,.26-.41,.47-.72,.62s-.63,.23-.98,.23c-.68,0-1.22-.22-1.62-.66s-.6-1.05-.6-1.83v-.11c0-.74,.2-1.34,.59-1.78,.4-.45,.94-.67,1.62-.67,.58,0,1.05,.17,1.42,.51s.56,.78,.58,1.33h-1.03c-.01-.28-.11-.51-.29-.69-.18-.18-.4-.27-.68-.27-.35,0-.62,.13-.82,.39-.19,.25-.29,.65-.29,1.17v.17c0,.53,.1,.92,.29,1.18,.19,.26,.47,.39,.83,.39Z"/><path class="k" d="M83.03,45.41c-.69,0-1.26-.22-1.69-.65-.43-.44-.65-1.02-.65-1.74v-.14c0-.49,.1-.92,.28-1.3,.19-.38,.45-.68,.79-.9,.34-.21,.72-.32,1.13-.32,.67,0,1.18,.21,1.54,.63s.54,1.02,.54,1.8v.44h-3.18c.04,.4,.17,.72,.4,.95,.23,.23,.53,.35,.89,.35,.5,0,.91-.2,1.22-.61l.59,.56c-.19,.29-.45,.51-.78,.68-.33,.16-.69,.24-1.09,.24Zm-.13-4.17c-.3,0-.54,.11-.73,.32s-.3,.5-.35,.88h2.08v-.08c-.03-.36-.12-.64-.29-.83-.18-.18-.41-.28-.71-.28Z"/><path class="k" d="M88.16,42.83c0-.62,.08-1.21,.24-1.8,.16-.58,.39-1.11,.69-1.59,.31-.48,.63-.83,.98-1.04l.12,.34c-.18,.13-.37,.33-.55,.58-.18,.25-.35,.56-.49,.91-.15,.35-.26,.74-.35,1.18-.09,.44-.13,.93-.13,1.49,0,.59,.07,1.16,.2,1.71,.13,.54,.32,1.03,.55,1.44,.24,.42,.5,.73,.78,.94l-.12,.33c-.36-.22-.69-.56-1-1.04-.3-.48-.53-1.01-.69-1.58s-.23-1.2-.23-1.86Z"/><path class="k" d="M95.3,39.59h-2.11v5.73h-.52v-5.73h-2.11v-.44h4.75v.44Z"/><path class="k" d="M100.74,42.57c0,.57-.1,1.07-.29,1.5-.19,.43-.47,.76-.84,.99s-.79,.35-1.27,.35c-.72,0-1.3-.25-1.74-.77-.44-.51-.66-1.21-.66-2.09v-.63c0-.56,.1-1.06,.3-1.49,.2-.44,.48-.77,.84-1s.78-.35,1.26-.35,.9,.11,1.26,.35c.36,.23,.65,.55,.84,.97,.2,.42,.3,.91,.31,1.45v.74Zm-.52-.67c0-.74-.17-1.33-.51-1.75-.34-.42-.8-.63-1.38-.63s-1.03,.21-1.37,.63c-.34,.42-.51,1.01-.51,1.77v.65c0,.73,.17,1.31,.51,1.74s.8,.64,1.38,.64,1.05-.21,1.38-.63,.5-1.01,.5-1.77v-.65Z"/><path class="k" d="M106.13,39.59h-2.11v5.73h-.52v-5.73h-2.11v-.44h4.75v.44Z"/><path class="k" d="M110.52,42.43h-2.88v2.89h-.52v-6.17h3.82v.44h-3.3v2.4h2.88v.44Z"/><path class="k" d="M113.4,42.89c0,.62-.08,1.22-.23,1.8s-.38,1.1-.69,1.58c-.3,.48-.63,.83-1,1.05l-.12-.33c.28-.2,.53-.51,.77-.92,.24-.42,.42-.9,.56-1.45,.14-.55,.2-1.15,.2-1.8,0-.58-.07-1.15-.2-1.69-.14-.54-.33-1.03-.56-1.46-.24-.43-.49-.74-.76-.94l.12-.33c.36,.22,.69,.57,.99,1.04,.3,.48,.53,1.01,.69,1.59,.16,.58,.24,1.2,.24,1.85Z"/></g><g class="g"><g><path class="k" d="M4.04,28.99c-.36-.16-.75-.25-1.16-.25-1.59,0-2.88,1.29-2.88,2.88,0,.98,.49,1.84,1.23,2.36l2.8-4.99Zm-3.63,3.68l.24-.15c.76-.52,1.36-1.23,1.61-2.14,.11-.42,.16-.85,.16-1.28v-.17h.01s.07,.1,.05,.08c.04,.05,.07,.1,.1,.15,.03,.05,.06,.1,.08,.16,.02,.05,.04,.11,.06,.17,.24,.76,.1,1.7-.42,2.32-.15,.17-.33,.35-.52,.47-.31,.2-.65,.34-1.01,.38-.12,.02-.26,.03-.35,0Z"/><path class="k" d="M4.49,29.24l-2.81,5c.36,.16,.77,.26,1.19,.26,1.59,0,2.88-1.29,2.88-2.88,0-.99-.5-1.86-1.26-2.38Zm-1,3.58c-.13,.43-.19,.89-.21,1.34,0,.06,0,.12,0,.17h-.01s-.07-.11-.05-.09c-.04-.05-.07-.11-.1-.16-.03-.06-.05-.11-.07-.17-.02-.06-.04-.12-.05-.18-.22-.81-.04-1.79,.52-2.42,.16-.17,.35-.36,.55-.48,.32-.2,.69-.33,1.06-.37,.12-.01,.27-.02,.36,0l-.25,.15c-.81,.52-1.46,1.24-1.75,2.18Z"/></g></g><path class="k" d="M11.53,33.94h-1.26v-.48h-.02c-.11,.18-.43,.62-1.33,.62-1.34,0-2.22-1.04-2.22-2.37,0-1.5,1.07-2.36,2.2-2.36,.78,0,1.16,.38,1.3,.53v-3.15h1.33v7.21Zm-2.39-1.09c.83,0,1.13-.68,1.13-1.14,0-.54-.38-1.11-1.12-1.11s-1.13,.6-1.13,1.11c0,.69,.49,1.14,1.11,1.14Z"/><path class="k" d="M15,33.94h-1.27l-1.59-4.43h1.37l.85,2.76h.02l.85-2.76h1.37l-1.6,4.43Z"/><path class="k" d="M17.21,29.51h1.25v.47h.02c.11-.22,.34-.62,1.11-.62v1.33c-.62,.02-1.05,.14-1.05,.81v2.44h-1.33v-4.43Z"/><path class="k" d="M20.28,29.51h1.25v.49h.02c.26-.34,.7-.64,1.38-.64,1.57,0,2.16,1.38,2.16,2.41,0,1.28-.89,2.32-2.16,2.32-.8,0-1.17-.38-1.33-.55v3.2h-1.33v-7.23Zm3.49,2.22c0-.53-.38-1.13-1.11-1.13s-1.11,.61-1.11,1.13c0,.56,.42,1.13,1.11,1.13s1.11-.57,1.11-1.13Z"/><path class="k" d="M30.33,32.26c-.24,1.01-1.13,1.83-2.33,1.83-1.34,0-2.37-1.05-2.37-2.37s1.01-2.36,2.34-2.36c1.17,0,2.13,.78,2.35,1.86h-1.34c-.14-.3-.41-.62-.96-.62-.63-.03-1.05,.49-1.05,1.13s.42,1.13,1.05,1.13c.55,0,.81-.32,.96-.59h1.35Z"/><g><g class="l"><path class="j" d="M90.28,2.5l-5.57,9.65c-.15,.26-.15,.58,0,.83,.15,.26,.42,.42,.72,.42h11.14c.3,0,.57-.16,.72-.42,.15-.26,.15-.58,0-.83l-5.57-9.65c-.15-.26-.42-.42-.72-.42s-.57,.16-.72,.42Z"/></g><path class="d" d="M90.47,8.56l-.16-2.4c-.03-.47-.04-.8-.04-1.01,0-.28,.07-.49,.22-.65,.15-.16,.34-.23,.58-.23,.29,0,.48,.1,.58,.3,.1,.2,.15,.48,.15,.86,0,.22-.01,.44-.04,.67l-.22,2.47c-.02,.29-.07,.52-.15,.68-.08,.16-.2,.24-.38,.24s-.3-.07-.37-.23-.12-.38-.15-.69Zm.56,3.3c-.2,0-.38-.07-.53-.2-.15-.13-.23-.32-.23-.55,0-.21,.07-.38,.22-.53s.33-.22,.54-.22,.39,.07,.54,.22c.15,.15,.22,.32,.22,.53,0,.24-.07,.42-.22,.55-.15,.13-.33,.2-.53,.2Z"/></g><g class="i"><path class="j" d="M121.03,20.38h-20.45v-7.44h20.45v7.44Zm-20.13-.32h19.81v-6.81h-19.81v6.81Z"/><path class="j" d="M122.21,23.34c-.72,0-1.31-.58-1.32-1.3h-12.01c0,.72-.6,1.3-1.32,1.3s-1.31-.58-1.32-1.3h-.66c0,.72-.6,1.3-1.32,1.3s-1.31-.58-1.32-1.3h-2.36v-1.48h.16l20.54-.04v-5.19h2.92l.05,.07,2.23,3.1v3.54h-2.94c0,.72-.6,1.3-1.32,1.3Zm-13.49-1.62h12.51v.17c-.02,.05-.02,.09-.02,.13,0,.55,.45,1,1,1s1.01-.45,1.01-1c0-.04,0-.07,0-.11l-.02-.17h2.97v-3.13l-2.12-2.96h-2.44v5.19h-.16l-20.54,.04v.85h2.4l-.04,.18s0,.07,0,.11c0,.55,.45,1,1,1s1-.45,1-1c0-.04,0-.07,0-.11l-.02-.17h1.34v.16c-.02,.05-.02,.09-.02,.13,0,.55,.45,1,1,1s1-.45,1-1c0-.04,0-.07,0-.11l-.02-.17h.17Zm17.08-2.08c-.06,0-.12,0-.17-.01-.12-.02-.64-.1-.8-.39-.06-.11-.06-.23,0-.35,.07-.15,.18-.2,.25-.23,.04,0,.08-.02,.13-.02,.22,0,.46,.15,.61,.24l.05,.03c.15,.09,.32,.23,.26,.5-.04,.18-.19,.22-.32,.22Zm-.59-.68s-.06-.02-.09,.06c-.02,.04,0,.06,0,.07,.06,.11,.36,.2,.54,.23,.06,0,.13,.01,.16,.01,0-.04,0-.07-.11-.14l-.06-.04c-.1-.06-.31-.19-.44-.19Zm.56-.59h-3.83v-2.29h2.23l.04,.07,1.56,2.22Zm-3.52-.32h2.91l-1.16-1.66h-1.75v1.66Z"/></g><rect class="f" x="35.24" y="29.05" width=".42" height="16.51"/></g></g></g></svg>