<?xml version="1.0" encoding="UTF-8"?><svg xmlns="http://www.w3.org/2000/svg" xmlns:xlink="http://www.w3.org/1999/xlink" viewBox="0 0 77.15 36.71"><defs><style>.f{fill:#fff;}.g{filter:url(#d);}</style><filter id="d" filterUnits="userSpaceOnUse"><feOffset dx=".67" dy=".67"/><feGaussianBlur result="e" stdDeviation="2.02"/><feFlood flood-color="#022a35" flood-opacity=".3"/><feComposite in2="e" operator="in"/><feComposite in="SourceGraphic"/></filter></defs><g id="a"/><g id="b"><g id="c"><g class="g"><path class="f" d="M16.88,6.72c-.28,.36-.68,.48-1.52,.6-.72,4.16-1.76,8.48-3.4,12.68,6.2,7.28,4.88,11.96,2.32,10.04-.56-2.2-1.88-4.76-3.52-7.28-2.32,4.92-5.56,9.44-10.16,13.04l-.6-.48c4.08-3.96,7.08-9.2,9.16-14.76-2.4-3.32-5.24-6.48-7.6-8.84l.6-.4c3.32,2.32,5.92,4.56,7.92,6.64,1.2-3.64,2.04-7.4,2.56-11.08H.76l-.36-1.2H12.4l1.6-1.64,2.88,2.68Zm9.4,6.96c.84,8.36,3.32,15.48,11.32,19.96l-.12,.48c-1.36,.2-2.24,.8-2.56,2.4-5.92-4.2-8.08-11.24-9-18.72-.84,6.88-3.24,13.48-12.72,18.92l-.56-.72c9.88-7.12,10.96-15.32,11.2-24.6l4.08,1.04c-.16,.48-.64,.88-1.6,.88l-.04,.36Zm-11.24,4.4C17.44,13.6,19.64,6.76,20.76,.08l4.28,1c-.12,.48-.56,.88-1.48,.88-.6,2.08-1.28,4.16-2,6.08h10.92l1.8-1.76,3.16,3.04c-.32,.32-.8,.36-1.6,.44-1.24,1.84-3.6,5-5.16,6.8l-.56-.28c.72-1.84,1.8-4.96,2.48-7.08h-11.52c-1.52,3.6-3.36,6.84-5.48,9.28l-.56-.4Z"/><path class="f" d="M53.48,19.64c-.28,.32-.68,.44-1.56,.48-.76,2.76-2.24,5.96-4.48,8.44,.28,.08,.48,.24,.76,.48,3.44,3.56,7.84,4.08,15.64,4.08,4.64,0,8.56,0,13.32-.24v.56c-1.12,.2-1.76,1-1.92,2.04h-12.2c-8,0-11.8-1.12-15.4-5.32-.52-.56-.92-.48-1.24,0-.8,1.16-2.64,3.52-3.68,5.16,.16,.32,.08,.64-.2,.84l-2.28-2.76c1.64-1.16,4.08-3.36,5.56-4.36,1.72-2.6,3-6.08,3.52-9.08h-4.4l-1.16,.92-2.24-2.08c.4-.2,1.04-.44,1.6-.6,1.44-1.96,3.32-4.84,4.6-6.96h-6.8l-.36-1.16h7.32l1.48-1.52,3.08,2.72c-.4,.4-1.32,.6-2.36,.64-1.16,1.84-3.12,4.76-4.6,6.84h3.68l1.56-1.56,2.76,2.44ZM42.72,.32c8.56,2.32,6.68,8.08,3.88,6.32-.48-2-2.6-4.52-4.28-5.96l.4-.36Zm10.52,23.72c1.08-.6,1.28-.8,1.28-1.52V3.64l2.64,.56c1.6-1.4,3.32-3.04,4.4-4.2l3.36,2.16c-.16,.32-.6,.48-1.44,.28-1.56,.84-4.28,2.16-6.56,3.2V22.52c1.6-.84,3.48-1.88,5.4-3l.28,.52c-1.32,1.16-3.84,3.6-6.64,6-.24,.76-.76,1.24-1.12,1.4l-1.6-3.4Zm13.44-19.12h5.12l1.28-1.6,3.2,2.48c-.24,.32-.88,.64-1.68,.8V22.84c0,2.04-.4,3.2-3.64,3.56-.12-.72-.24-1.44-.68-1.8-.52-.4-1.32-.72-2.76-.92v-.64s3.16,.28,3.84,.28c.64,0,.84-.2,.84-.8V6.12h-5.92V30.75c0,.2-.8,.92-2.04,.92h-.4V3.68l2.84,1.24Z"/></g></g></g></svg>